<svg width="19" height="19" viewBox="0 0 19 19" fill="none" xmlns="http://www.w3.org/2000/svg">
<path d="M12.8924 8.19019C13.0806 8.00339 13.1865 7.74983 13.1865 7.48525C13.1865 7.22066 13.0806 6.9671 12.8924 6.7803C12.7042 6.59353 12.4492 6.48877 12.1835 6.48877C11.9177 6.48877 11.6627 6.59353 11.4745 6.7803C11.2863 6.9671 11.1804 7.22066 11.1804 7.48525C11.1804 7.74983 11.2863 8.00339 11.4745 8.19019C11.6627 8.37696 11.9177 8.48172 12.1835 8.48172C12.4492 8.48172 12.7042 8.37696 12.8924 8.19019ZM7.62409 8.19019C7.8123 8.00339 7.91821 7.74983 7.91821 7.48525C7.91821 7.22066 7.8123 6.9671 7.62409 6.7803C7.43591 6.59353 7.18088 6.48877 6.91516 6.48877C6.64943 6.48877 6.39441 6.59353 6.20623 6.7803C6.01802 6.9671 5.91211 7.22066 5.91211 7.48525C5.91211 7.74983 6.01802 8.00339 6.20623 8.19019C6.39441 8.37696 6.64943 8.48172 6.91516 8.48172C7.18088 8.48172 7.43591 8.37696 7.62409 8.19019Z" fill="#603913" stroke="#603913" stroke-width="0.25"/>
<mask id="path-2-outside-1_2004_1667" maskUnits="userSpaceOnUse" x="0" y="-0.269531" width="19" height="20" fill="black">
<rect fill="white" y="-0.269531" width="19" height="20"/>
<path fill-rule="evenodd" clip-rule="evenodd" d="M9.54848 2.03768C9.02452 2.03768 8.52201 2.24427 8.15152 2.61199C7.78102 2.97972 7.57287 3.47846 7.57287 3.99851V4.21986C7.9399 4.21638 8.33502 4.21637 8.76263 4.21637H10.3343C10.7619 4.21637 11.1579 4.21638 11.5241 4.21986V3.99851C11.5241 3.47846 11.3159 2.97972 10.9454 2.61199C10.575 2.24427 10.0724 2.03768 9.54848 2.03768ZM12.8412 4.26605V3.99851C12.8412 3.13177 12.4943 2.30053 11.8768 1.68765C11.2593 1.07478 10.4218 0.730469 9.54848 0.730469C8.67521 0.730469 7.8377 1.07478 7.2202 1.68765C6.60271 2.30053 6.2558 3.13177 6.2558 3.99851V4.26605C6.13726 4.27476 6.02312 4.28435 5.91248 4.29655C5.14156 4.37934 4.49619 4.55189 3.9237 4.94144C3.72668 5.07534 3.54161 5.22579 3.37053 5.39113C2.87356 5.87218 2.5759 6.46653 2.34321 7.20031C2.11756 7.91405 1.93492 8.82039 1.70487 9.9594L1.68819 10.0422C1.35804 11.6832 1.09726 12.9765 1.02263 14.0065C0.94536 15.0593 1.05248 15.9438 1.55473 16.7116C1.72243 16.9678 1.91824 17.204 2.13775 17.4175C2.79804 18.0572 3.65151 18.3343 4.70604 18.4668C5.73863 18.5957 7.06799 18.5957 8.75385 18.5957H10.3431C12.0298 18.5957 13.3583 18.5957 14.3909 18.4668C15.4455 18.3343 16.2998 18.0572 16.9592 17.4175C17.1792 17.2043 17.3747 16.9675 17.5422 16.7116C18.0445 15.9447 18.1516 15.0593 18.0752 14.0065C17.9997 12.9765 17.7398 11.6832 17.4079 10.0422L17.3921 9.9594C17.1629 8.82039 16.9794 7.91405 16.7537 7.20031C16.5211 6.46653 16.2234 5.87218 15.7264 5.39113C15.5554 5.22578 15.3703 5.07533 15.1733 4.94144C14.6008 4.55189 13.9554 4.37934 13.1845 4.29655C13.0705 4.28444 12.9564 4.27427 12.842 4.26605M6.05385 5.59592C5.39795 5.66564 4.99317 5.79898 4.66829 6.01946C4.53347 6.11134 4.40685 6.21456 4.28985 6.32796C4.00799 6.60073 3.79814 6.9685 3.5997 7.59247C3.39775 8.23127 3.22741 9.06788 2.98946 10.2522C2.64702 11.9499 2.4038 13.163 2.33619 14.1007C2.26858 15.0262 2.38185 15.5761 2.65931 15.9996C2.77346 16.1739 2.9078 16.3369 3.05795 16.4824C3.42234 16.8354 3.94302 17.0532 4.87112 17.17C5.81063 17.2877 7.05746 17.2885 8.80126 17.2885H10.2966C12.0404 17.2885 13.2855 17.2877 14.2258 17.17C15.1539 17.0532 15.6746 16.8354 16.039 16.4824C16.1894 16.3365 16.3231 16.1746 16.4377 15.9996C16.7151 15.5761 16.8284 15.0262 16.7617 14.0998C16.6932 13.1621 16.4499 11.9499 16.1084 10.2522C15.8696 9.06788 15.7001 8.2304 15.4973 7.59247C15.2997 6.9685 15.089 6.60073 14.8071 6.32796C14.6904 6.21458 14.5641 6.11137 14.4296 6.01946C14.1047 5.79898 13.699 5.66651 13.0431 5.59592C12.3732 5.52446 11.5127 5.52359 10.2957 5.52359H8.80214C7.58516 5.52359 6.72468 5.52446 6.05385 5.59592Z"/>
</mask>
<path fill-rule="evenodd" clip-rule="evenodd" d="M9.54848 2.03768C9.02452 2.03768 8.52201 2.24427 8.15152 2.61199C7.78102 2.97972 7.57287 3.47846 7.57287 3.99851V4.21986C7.9399 4.21638 8.33502 4.21637 8.76263 4.21637H10.3343C10.7619 4.21637 11.1579 4.21638 11.5241 4.21986V3.99851C11.5241 3.47846 11.3159 2.97972 10.9454 2.61199C10.575 2.24427 10.0724 2.03768 9.54848 2.03768ZM12.8412 4.26605V3.99851C12.8412 3.13177 12.4943 2.30053 11.8768 1.68765C11.2593 1.07478 10.4218 0.730469 9.54848 0.730469C8.67521 0.730469 7.8377 1.07478 7.2202 1.68765C6.60271 2.30053 6.2558 3.13177 6.2558 3.99851V4.26605C6.13726 4.27476 6.02312 4.28435 5.91248 4.29655C5.14156 4.37934 4.49619 4.55189 3.9237 4.94144C3.72668 5.07534 3.54161 5.22579 3.37053 5.39113C2.87356 5.87218 2.5759 6.46653 2.34321 7.20031C2.11756 7.91405 1.93492 8.82039 1.70487 9.9594L1.68819 10.0422C1.35804 11.6832 1.09726 12.9765 1.02263 14.0065C0.94536 15.0593 1.05248 15.9438 1.55473 16.7116C1.72243 16.9678 1.91824 17.204 2.13775 17.4175C2.79804 18.0572 3.65151 18.3343 4.70604 18.4668C5.73863 18.5957 7.06799 18.5957 8.75385 18.5957H10.3431C12.0298 18.5957 13.3583 18.5957 14.3909 18.4668C15.4455 18.3343 16.2998 18.0572 16.9592 17.4175C17.1792 17.2043 17.3747 16.9675 17.5422 16.7116C18.0445 15.9447 18.1516 15.0593 18.0752 14.0065C17.9997 12.9765 17.7398 11.6832 17.4079 10.0422L17.3921 9.9594C17.1629 8.82039 16.9794 7.91405 16.7537 7.20031C16.5211 6.46653 16.2234 5.87218 15.7264 5.39113C15.5554 5.22578 15.3703 5.07533 15.1733 4.94144C14.6008 4.55189 13.9554 4.37934 13.1845 4.29655C13.0705 4.28444 12.9564 4.27427 12.842 4.26605M6.05385 5.59592C5.39795 5.66564 4.99317 5.79898 4.66829 6.01946C4.53347 6.11134 4.40685 6.21456 4.28985 6.32796C4.00799 6.60073 3.79814 6.9685 3.5997 7.59247C3.39775 8.23127 3.22741 9.06788 2.98946 10.2522C2.64702 11.9499 2.4038 13.163 2.33619 14.1007C2.26858 15.0262 2.38185 15.5761 2.65931 15.9996C2.77346 16.1739 2.9078 16.3369 3.05795 16.4824C3.42234 16.8354 3.94302 17.0532 4.87112 17.17C5.81063 17.2877 7.05746 17.2885 8.80126 17.2885H10.2966C12.0404 17.2885 13.2855 17.2877 14.2258 17.17C15.1539 17.0532 15.6746 16.8354 16.039 16.4824C16.1894 16.3365 16.3231 16.1746 16.4377 15.9996C16.7151 15.5761 16.8284 15.0262 16.7617 14.0998C16.6932 13.1621 16.4499 11.9499 16.1084 10.2522C15.8696 9.06788 15.7001 8.2304 15.4973 7.59247C15.2997 6.9685 15.089 6.60073 14.8071 6.32796C14.6904 6.21458 14.5641 6.11137 14.4296 6.01946C14.1047 5.79898 13.699 5.66651 13.0431 5.59592C12.3732 5.52446 11.5127 5.52359 10.2957 5.52359H8.80214C7.58516 5.52359 6.72468 5.52446 6.05385 5.59592Z" fill="#603913"/>
<path d="M9.54848 2.03768V1.78768V2.03768ZM7.57287 4.21986H7.32287V4.47225L7.57525 4.46985L7.57287 4.21986ZM11.5241 4.21986L11.5217 4.46985L11.7741 4.47225V4.21986H11.5241ZM9.54848 0.730469V0.480469V0.730469ZM6.2558 4.26605L6.27413 4.51538L6.5058 4.49834V4.26605H6.2558ZM5.91248 4.29655L5.93918 4.54512L5.93989 4.54504L5.91248 4.29655ZM3.9237 4.94144L4.06423 5.14821L4.06434 5.14813L3.9237 4.94144ZM3.37053 5.39113L3.1968 5.21136L3.19666 5.21149L3.37053 5.39113ZM2.34321 7.20031L2.10491 7.12474L2.10484 7.12495L2.34321 7.20031ZM1.70487 9.9594L1.45982 9.90991L1.4598 9.91002L1.70487 9.9594ZM1.68819 10.0422L1.44312 9.99281L1.4431 9.99289L1.68819 10.0422ZM1.02263 14.0065L1.27196 14.0248L1.27197 14.0246L1.02263 14.0065ZM1.55473 16.7116L1.34551 16.8485L1.34555 16.8485L1.55473 16.7116ZM2.13775 17.4175L1.96344 17.5967L1.9638 17.5971L2.13775 17.4175ZM4.70604 18.4668L4.67488 18.7148L4.67506 18.7148L4.70604 18.4668ZM14.3909 18.4668L14.4219 18.7148L14.4221 18.7148L14.3909 18.4668ZM16.9592 17.4175L16.7852 17.238L16.7851 17.2381L16.9592 17.4175ZM17.5422 16.7116L17.3331 16.5746L17.3331 16.5747L17.5422 16.7116ZM18.0752 14.0065L18.3246 13.9884L18.3245 13.9883L18.0752 14.0065ZM17.4079 10.0422L17.1623 10.0891L17.1629 10.0918L17.4079 10.0422ZM17.3921 9.9594L17.6377 9.91253L17.6372 9.91009L17.3921 9.9594ZM16.7537 7.20031L16.9921 7.12495L16.9921 7.12474L16.7537 7.20031ZM15.7264 5.39113L15.9003 5.21149L15.9002 5.21136L15.7264 5.39113ZM15.1733 4.94144L15.0326 5.14813L15.0327 5.14822L15.1733 4.94144ZM13.1845 4.29655L13.2112 4.04798L13.2109 4.04795L13.1845 4.29655ZM6.05385 5.59592L6.08027 5.84452L6.08033 5.84452L6.05385 5.59592ZM4.66829 6.01946L4.5279 5.8126L4.5275 5.81287L4.66829 6.01946ZM4.28985 6.32796L4.46371 6.50761L4.46384 6.50748L4.28985 6.32796ZM3.5997 7.59247L3.36146 7.51671L3.36133 7.51711L3.5997 7.59247ZM2.98946 10.2522L3.23452 10.3017L3.23456 10.3015L2.98946 10.2522ZM2.33619 14.1007L2.58553 14.1189L2.58554 14.1186L2.33619 14.1007ZM2.65931 15.9996L2.86845 15.8626L2.86843 15.8626L2.65931 15.9996ZM3.05795 16.4824L2.88395 16.6619L2.88401 16.662L3.05795 16.4824ZM4.87112 17.17L4.83991 17.418L4.84005 17.4181L4.87112 17.17ZM14.2258 17.17L14.2569 17.4181L14.2571 17.418L14.2258 17.17ZM16.039 16.4824L16.213 16.662L16.2131 16.6619L16.039 16.4824ZM16.4377 15.9996L16.2285 15.8626L16.2285 15.8627L16.4377 15.9996ZM16.7617 14.0998L17.011 14.0818L17.011 14.0816L16.7617 14.0998ZM16.1084 10.2522L16.3535 10.2029L16.3535 10.2028L16.1084 10.2522ZM15.4973 7.59247L15.2589 7.66794L15.259 7.66823L15.4973 7.59247ZM14.8071 6.32796L14.6329 6.50728L14.6333 6.50761L14.8071 6.32796ZM14.4296 6.01946L14.5706 5.81303L14.5699 5.8126L14.4296 6.01946ZM13.0431 5.59592L13.0699 5.34736L13.0696 5.34733L13.0431 5.59592ZM9.54848 1.78768C8.95882 1.78768 8.39293 2.02016 7.9754 2.43456L8.32763 2.78943C8.6511 2.46838 9.09022 2.28768 9.54848 2.28768V1.78768ZM7.9754 2.43456C7.55782 2.84902 7.32287 3.41155 7.32287 3.99851H7.82287C7.82287 3.54538 8.00422 3.11042 8.32763 2.78943L7.9754 2.43456ZM7.32287 3.99851V4.21986H7.82287V3.99851H7.32287ZM7.57525 4.46985C7.94086 4.46638 8.33473 4.46637 8.76263 4.46637V3.96637C8.3353 3.96637 7.93894 3.96637 7.5705 3.96987L7.57525 4.46985ZM8.76263 4.46637H10.3343V3.96637H8.76263V4.46637ZM10.3343 4.46637C10.7622 4.46637 11.157 4.46638 11.5217 4.46985L11.5265 3.96987C11.1589 3.96637 10.7617 3.96637 10.3343 3.96637V4.46637ZM11.7741 4.21986V3.99851H11.2741V4.21986H11.7741ZM11.7741 3.99851C11.7741 3.41155 11.5391 2.84902 11.1216 2.43456L10.7693 2.78943C11.0927 3.11042 11.2741 3.54538 11.2741 3.99851H11.7741ZM11.1216 2.43456C10.704 2.02016 10.1381 1.78768 9.54848 1.78768V2.28768C10.0067 2.28768 10.4459 2.46838 10.7693 2.78943L11.1216 2.43456ZM13.0912 4.26605V3.99851H12.5912V4.26605H13.0912ZM13.0912 3.99851C13.0912 3.06486 12.7175 2.16983 12.0529 1.51022L11.7006 1.86509C12.2711 2.43123 12.5912 3.19868 12.5912 3.99851H13.0912ZM12.0529 1.51022C11.3883 0.850665 10.4875 0.480469 9.54848 0.480469V0.980469C10.3561 0.980469 11.1302 1.29889 11.7006 1.86509L12.0529 1.51022ZM9.54848 0.480469C8.60951 0.480469 7.70862 0.850665 7.04409 1.51022L7.39632 1.86509C7.96679 1.29889 8.74091 0.980469 9.54848 0.980469V0.480469ZM7.04409 1.51022C6.37951 2.16983 6.0058 3.06486 6.0058 3.99851H6.5058C6.5058 3.19868 6.82591 2.43123 7.39632 1.86509L7.04409 1.51022ZM6.0058 3.99851V4.26605H6.5058V3.99851H6.0058ZM6.23747 4.01672C6.11746 4.02554 5.99996 4.03539 5.88508 4.04806L5.93989 4.54504C6.04627 4.53331 6.15706 4.52398 6.27413 4.51538L6.23747 4.01672ZM5.88579 4.04798C5.09334 4.13308 4.40259 4.31319 3.78306 4.73476L4.06434 5.14813C4.58979 4.79059 5.18977 4.6256 5.93918 4.54512L5.88579 4.04798ZM3.78318 4.73468C3.57435 4.8766 3.37817 5.03608 3.1968 5.21136L3.54426 5.5709C3.70505 5.4155 3.87901 5.27409 4.06423 5.14821L3.78318 4.73468ZM3.19666 5.21149C2.65868 5.73224 2.34434 6.36969 2.10491 7.12474L2.58152 7.27588C2.80746 6.56336 3.08843 6.01212 3.54441 5.57076L3.19666 5.21149ZM2.10484 7.12495C1.87423 7.85437 1.68884 8.77597 1.45982 9.90991L1.94992 10.0089C2.181 8.8648 2.36089 7.97372 2.58158 7.27567L2.10484 7.12495ZM1.4598 9.91002L1.44312 9.99281L1.93326 10.0916L1.94995 10.0088L1.4598 9.91002ZM1.4431 9.99289C1.11424 11.6275 0.849327 12.9389 0.773282 13.9885L1.27197 14.0246C1.3452 13.014 1.60185 11.7389 1.93328 10.0915L1.4431 9.99289ZM0.773299 13.9882C0.694215 15.0657 0.800133 16.0148 1.34551 16.8485L1.76394 16.5747C1.30483 15.8729 1.19651 15.0528 1.27196 14.0248L0.773299 13.9882ZM1.34555 16.8485C1.52355 17.1205 1.73113 17.3708 1.96344 17.5967L2.31206 17.2383C2.10534 17.0372 1.92131 16.8152 1.7639 16.5747L1.34555 16.8485ZM1.9638 17.5971C2.68027 18.2911 3.59669 18.5794 4.67488 18.7148L4.7372 18.2187C3.70632 18.0892 2.91581 17.8232 2.3117 17.2379L1.9638 17.5971ZM4.67506 18.7148C5.72669 18.8462 7.07428 18.8457 8.75385 18.8457V18.3457C7.06171 18.3457 5.75057 18.3453 4.73703 18.2187L4.67506 18.7148ZM8.75385 18.8457H10.3431V18.3457H8.75385V18.8457ZM10.3431 18.8457C12.0236 18.8457 13.3703 18.8462 14.4219 18.7148L14.3599 18.2187C13.3464 18.3453 12.0361 18.3457 10.3431 18.3457V18.8457ZM14.4221 18.7148C15.5001 18.5794 16.4176 18.2912 17.1333 17.5969L16.7851 17.2381C16.182 17.8231 15.3908 18.0892 14.3598 18.2187L14.4221 18.7148ZM17.1332 17.597C17.3664 17.3709 17.5737 17.1199 17.7514 16.8485L17.3331 16.5747C17.1757 16.8151 16.9919 17.0376 16.7852 17.238L17.1332 17.597ZM17.7514 16.8486C18.2968 16.0157 18.4027 15.0657 18.3246 13.9884L17.8259 14.0246C17.9005 15.0529 17.7921 15.8737 17.3331 16.5746L17.7514 16.8486ZM18.3245 13.9883C18.2476 12.9388 17.9836 11.6277 17.6529 9.99263L17.1629 10.0918C17.496 11.7387 17.7518 13.0141 17.8259 14.0248L18.3245 13.9883ZM17.6535 9.99532L17.6377 9.91253L17.1465 10.0063L17.1623 10.0891L17.6535 9.99532ZM17.6372 9.91009C17.409 8.77576 17.2227 7.85438 16.9921 7.12495L16.5154 7.27567C16.7361 7.97372 16.9169 8.86501 17.147 10.0087L17.6372 9.91009ZM16.9921 7.12474C16.7526 6.36969 16.4383 5.73224 15.9003 5.21149L15.5526 5.57076C16.0085 6.01212 16.2895 6.56336 16.5154 7.27588L16.9921 7.12474ZM15.9002 5.21136C15.7188 5.03607 15.5226 4.87659 15.3138 4.73467L15.0327 5.14822C15.218 5.27408 15.3919 5.41549 15.5527 5.57089L15.9002 5.21136ZM15.3139 4.73476C14.6944 4.31319 14.0036 4.13308 13.2112 4.04798L13.1578 4.54512C13.9072 4.6256 14.5072 4.79059 15.0326 5.14813L15.3139 4.73476ZM13.2109 4.04795C13.0941 4.03554 12.9771 4.02512 12.86 4.01669L12.8241 4.51541C12.9356 4.52342 13.0469 4.53334 13.1581 4.54515L13.2109 4.04795ZM6.02742 5.34732C5.34927 5.41941 4.89944 5.56045 4.5279 5.8126L4.80868 6.22632C5.08689 6.03751 5.44662 5.91187 6.08027 5.84452L6.02742 5.34732ZM4.5275 5.81287C4.38087 5.9128 4.24315 6.02507 4.11585 6.14845L4.46384 6.50748C4.57056 6.40404 4.68606 6.30988 4.80908 6.22605L4.5275 5.81287ZM4.11599 6.14832C3.7931 6.4608 3.56659 6.87168 3.36146 7.51671L3.83794 7.66824C4.02969 7.06532 4.22288 6.74067 4.46371 6.50761L4.11599 6.14832ZM3.36133 7.51711C3.15438 8.17173 2.98129 9.0237 2.74436 10.203L3.23456 10.3015C3.47353 9.11207 3.64112 8.29081 3.83807 7.66783L3.36133 7.51711ZM2.74439 10.2028C2.40331 11.8937 2.15587 13.1253 2.08684 14.0827L2.58554 14.1186C2.65173 13.2006 2.89073 12.006 3.23452 10.3017L2.74439 10.2028ZM2.08685 14.0824C2.01745 15.0326 2.12947 15.647 2.45019 16.1366L2.86843 15.8626C2.63422 15.5051 2.51971 15.0198 2.58553 14.1189L2.08685 14.0824ZM2.45017 16.1366C2.57435 16.3262 2.72046 16.5034 2.88395 16.6619L3.23195 16.3029C3.09514 16.1703 2.97256 16.0216 2.86845 15.8626L2.45017 16.1366ZM2.88401 16.662C3.30452 17.0693 3.88808 17.2983 4.83991 17.418L4.90233 16.922C3.99796 16.8082 3.54015 16.6014 3.23188 16.3028L2.88401 16.662ZM4.84005 17.4181C5.79878 17.5381 7.06429 17.5385 8.80126 17.5385V17.0385C7.05062 17.0385 5.82248 17.0372 4.90218 16.9219L4.84005 17.4181ZM8.80126 17.5385H10.2966V17.0385H8.80126V17.5385ZM10.2966 17.5385C12.0336 17.5385 13.2973 17.5381 14.2569 17.4181L14.1948 16.9219C13.2736 17.0372 12.0472 17.0385 10.2966 17.0385V17.5385ZM14.2571 17.418C15.2089 17.2983 15.7924 17.0693 16.213 16.662L15.8651 16.3028C15.5568 16.6014 15.099 16.8082 14.1946 16.922L14.2571 17.418ZM16.2131 16.6619C16.3767 16.5032 16.5222 16.327 16.6468 16.1365L16.2285 15.8627C16.124 16.0223 16.0021 16.1699 15.865 16.3029L16.2131 16.6619ZM16.6468 16.1366C16.9675 15.6471 17.0795 15.0326 17.011 14.0818L16.5123 14.1178C16.5773 15.0197 16.4628 15.5051 16.2285 15.8626L16.6468 16.1366ZM17.011 14.0816C16.9411 13.1244 16.6937 11.8938 16.3535 10.2029L15.8633 10.3015C16.2062 12.006 16.4453 13.1998 16.5123 14.118L17.011 14.0816ZM16.3535 10.2028C16.1158 9.02407 15.9434 8.17071 15.7355 7.51672L15.259 7.66823C15.4567 8.29008 15.6234 9.1117 15.8633 10.3016L16.3535 10.2028ZM15.7356 7.51701C15.5312 6.87146 15.3037 6.46068 14.981 6.14832L14.6333 6.50761C14.8742 6.74079 15.0682 7.06554 15.2589 7.66794L15.7356 7.51701ZM14.9813 6.14864C14.8543 6.02528 14.7169 5.913 14.5706 5.81304L14.2885 6.22588C14.4113 6.30973 14.5265 6.40388 14.6329 6.50728L14.9813 6.14864ZM14.5699 5.8126C14.1982 5.5603 13.7473 5.42027 13.0699 5.34736L13.0164 5.84449C13.6507 5.91276 14.0112 6.03765 14.2892 6.22632L14.5699 5.8126ZM13.0696 5.34733C12.3833 5.27413 11.5072 5.27359 10.2957 5.27359V5.77359C11.5182 5.77359 12.363 5.77479 13.0166 5.84451L13.0696 5.34733ZM10.2957 5.27359H8.80214V5.77359H10.2957V5.27359ZM8.80214 5.27359C7.59064 5.27359 6.71451 5.27413 6.02737 5.34733L6.08033 5.84452C6.73484 5.77479 7.57969 5.77359 8.80214 5.77359V5.27359Z" fill="#603913" mask="url(#path-2-outside-1_2004_1667)"/>
</svg>
