<svg width="19" height="20" viewBox="0 0 19 20" fill="none" xmlns="http://www.w3.org/2000/svg">
<path d="M12.8927 8.51505C13.0808 8.32694 13.1865 8.07181 13.1865 7.80578C13.1865 7.53976 13.0808 7.28463 12.8927 7.09652C12.7046 6.90841 12.4495 6.80273 12.1835 6.80273C11.9174 6.80273 11.6623 6.90841 11.4742 7.09652C11.2861 7.28463 11.1804 7.53976 11.1804 7.80578C11.1804 8.07181 11.2861 8.32694 11.4742 8.51505C11.6623 8.70315 11.9174 8.80883 12.1835 8.80883C12.4495 8.80883 12.7046 8.70315 12.8927 8.51505ZM7.62442 8.51505C7.81253 8.32694 7.91821 8.07181 7.91821 7.80578C7.91821 7.53976 7.81253 7.28463 7.62442 7.09652C7.43631 6.90841 7.18118 6.80273 6.91516 6.80273C6.64913 6.80273 6.394 6.90841 6.2059 7.09652C6.01779 7.28463 5.91211 7.53976 5.91211 7.80578C5.91211 8.07181 6.01779 8.32694 6.2059 8.51505C6.394 8.70315 6.64913 8.80883 6.91516 8.80883C7.18118 8.80883 7.43631 8.70315 7.62442 8.51505Z" fill="#603913" stroke="#603913" stroke-width="0.25"/>
<mask id="path-2-outside-1_6_3252" maskUnits="userSpaceOnUse" x="0" y="0" width="19" height="20" fill="black">
<rect fill="white" width="19" height="20"/>
<path fill-rule="evenodd" clip-rule="evenodd" d="M9.54848 2.31707C9.02452 2.31707 8.52201 2.52522 8.15152 2.89572C7.78102 3.26621 7.57287 3.76872 7.57287 4.29268V4.51571C7.9399 4.5122 8.33502 4.5122 8.76263 4.5122H10.3343C10.7619 4.5122 11.1579 4.5122 11.5241 4.51571V4.29268C11.5241 3.76872 11.3159 3.26621 10.9454 2.89572C10.575 2.52522 10.0724 2.31707 9.54848 2.31707ZM12.8412 4.56224V4.29268C12.8412 3.41941 12.4943 2.5819 11.8768 1.9644C11.2593 1.34691 10.4218 1 9.54848 1C8.67521 1 7.8377 1.34691 7.2202 1.9644C6.60271 2.5819 6.2558 3.41941 6.2558 4.29268V4.56224C6.13726 4.57102 6.02312 4.58068 5.91248 4.59298C5.14156 4.67639 4.49619 4.85024 3.9237 5.24273C3.72668 5.37764 3.54161 5.52922 3.37053 5.69581C2.87356 6.18049 2.5759 6.77932 2.34321 7.51863C2.11756 8.23776 1.93492 9.15093 1.70487 10.2985L1.68819 10.382C1.35804 12.0353 1.09726 13.3383 1.02263 14.3762C0.94536 15.4369 1.05248 16.3281 1.55473 17.1017C1.72243 17.3598 1.91824 17.5978 2.13775 17.8129C2.79804 18.4574 3.65151 18.7366 4.70604 18.87C5.73863 19 7.06799 19 8.75385 19H10.3431C12.0298 19 13.3583 19 14.3909 18.87C15.4455 18.7366 16.2998 18.4574 16.9592 17.8129C17.1792 17.598 17.3747 17.3595 17.5422 17.1017C18.0445 16.329 18.1516 15.4369 18.0752 14.3762C17.9997 13.3383 17.7398 12.0353 17.4079 10.382L17.3921 10.2985C17.1629 9.15093 16.9794 8.23776 16.7537 7.51863C16.5211 6.77932 16.2234 6.18049 15.7264 5.69581C15.5554 5.52921 15.3703 5.37763 15.1733 5.24273C14.6008 4.85024 13.9554 4.67639 13.1845 4.59298C13.0705 4.58077 12.9564 4.57053 12.842 4.56224M6.05385 5.90215C5.39795 5.97239 4.99317 6.10673 4.66829 6.32888C4.53347 6.42145 4.40685 6.52544 4.28985 6.63971C4.00799 6.91454 3.79814 7.28507 3.5997 7.91376C3.39775 8.55737 3.22741 9.40029 2.98946 10.5936C2.64702 12.304 2.4038 13.5262 2.33619 14.471C2.26858 15.4035 2.38185 15.9576 2.65931 16.3843C2.77346 16.5599 2.9078 16.7241 3.05795 16.8707C3.42234 17.2263 3.94302 17.4459 4.87112 17.5635C5.81063 17.682 7.05746 17.6829 8.80126 17.6829H10.2966C12.0404 17.6829 13.2855 17.682 14.2258 17.5635C15.1539 17.4459 15.6746 17.2263 16.039 16.8707C16.1894 16.7238 16.3231 16.5606 16.4377 16.3843C16.7151 15.9576 16.8284 15.4035 16.7617 14.4701C16.6932 13.5254 16.4499 12.304 16.1084 10.5936C15.8696 9.40029 15.7001 8.55649 15.4973 7.91376C15.2997 7.28507 15.089 6.91454 14.8071 6.63971C14.6904 6.52547 14.5641 6.42148 14.4296 6.32888C14.1047 6.10673 13.699 5.97327 13.0431 5.90215C12.3732 5.83015 11.5127 5.82927 10.2957 5.82927H8.80214C7.58516 5.82927 6.72468 5.83015 6.05385 5.90215Z"/>
</mask>
<path fill-rule="evenodd" clip-rule="evenodd" d="M9.54848 2.31707C9.02452 2.31707 8.52201 2.52522 8.15152 2.89572C7.78102 3.26621 7.57287 3.76872 7.57287 4.29268V4.51571C7.9399 4.5122 8.33502 4.5122 8.76263 4.5122H10.3343C10.7619 4.5122 11.1579 4.5122 11.5241 4.51571V4.29268C11.5241 3.76872 11.3159 3.26621 10.9454 2.89572C10.575 2.52522 10.0724 2.31707 9.54848 2.31707ZM12.8412 4.56224V4.29268C12.8412 3.41941 12.4943 2.5819 11.8768 1.9644C11.2593 1.34691 10.4218 1 9.54848 1C8.67521 1 7.8377 1.34691 7.2202 1.9644C6.60271 2.5819 6.2558 3.41941 6.2558 4.29268V4.56224C6.13726 4.57102 6.02312 4.58068 5.91248 4.59298C5.14156 4.67639 4.49619 4.85024 3.9237 5.24273C3.72668 5.37764 3.54161 5.52922 3.37053 5.69581C2.87356 6.18049 2.5759 6.77932 2.34321 7.51863C2.11756 8.23776 1.93492 9.15093 1.70487 10.2985L1.68819 10.382C1.35804 12.0353 1.09726 13.3383 1.02263 14.3762C0.94536 15.4369 1.05248 16.3281 1.55473 17.1017C1.72243 17.3598 1.91824 17.5978 2.13775 17.8129C2.79804 18.4574 3.65151 18.7366 4.70604 18.87C5.73863 19 7.06799 19 8.75385 19H10.3431C12.0298 19 13.3583 19 14.3909 18.87C15.4455 18.7366 16.2998 18.4574 16.9592 17.8129C17.1792 17.598 17.3747 17.3595 17.5422 17.1017C18.0445 16.329 18.1516 15.4369 18.0752 14.3762C17.9997 13.3383 17.7398 12.0353 17.4079 10.382L17.3921 10.2985C17.1629 9.15093 16.9794 8.23776 16.7537 7.51863C16.5211 6.77932 16.2234 6.18049 15.7264 5.69581C15.5554 5.52921 15.3703 5.37763 15.1733 5.24273C14.6008 4.85024 13.9554 4.67639 13.1845 4.59298C13.0705 4.58077 12.9564 4.57053 12.842 4.56224M6.05385 5.90215C5.39795 5.97239 4.99317 6.10673 4.66829 6.32888C4.53347 6.42145 4.40685 6.52544 4.28985 6.63971C4.00799 6.91454 3.79814 7.28507 3.5997 7.91376C3.39775 8.55737 3.22741 9.40029 2.98946 10.5936C2.64702 12.304 2.4038 13.5262 2.33619 14.471C2.26858 15.4035 2.38185 15.9576 2.65931 16.3843C2.77346 16.5599 2.9078 16.7241 3.05795 16.8707C3.42234 17.2263 3.94302 17.4459 4.87112 17.5635C5.81063 17.682 7.05746 17.6829 8.80126 17.6829H10.2966C12.0404 17.6829 13.2855 17.682 14.2258 17.5635C15.1539 17.4459 15.6746 17.2263 16.039 16.8707C16.1894 16.7238 16.3231 16.5606 16.4377 16.3843C16.7151 15.9576 16.8284 15.4035 16.7617 14.4701C16.6932 13.5254 16.4499 12.304 16.1084 10.5936C15.8696 9.40029 15.7001 8.55649 15.4973 7.91376C15.2997 7.28507 15.089 6.91454 14.8071 6.63971C14.6904 6.52547 14.5641 6.42148 14.4296 6.32888C14.1047 6.10673 13.699 5.97327 13.0431 5.90215C12.3732 5.83015 11.5127 5.82927 10.2957 5.82927H8.80214C7.58516 5.82927 6.72468 5.83015 6.05385 5.90215Z" fill="#603913"/>
<path d="M9.54848 2.31707V2.06707V2.31707ZM7.57287 4.51571H7.32287V4.76811L7.57526 4.7657L7.57287 4.51571ZM11.5241 4.51571L11.5217 4.7657L11.7741 4.76812V4.51571H11.5241ZM9.54848 1V0.75V1ZM6.2558 4.56224L6.27427 4.81156L6.5058 4.79441V4.56224H6.2558ZM5.91248 4.59298L5.93938 4.84153L5.94009 4.84145L5.91248 4.59298ZM3.9237 5.24273L4.06495 5.44901L4.06507 5.44893L3.9237 5.24273ZM3.37053 5.69581L3.19613 5.51669L3.19598 5.51683L3.37053 5.69581ZM2.34321 7.51863L2.10475 7.44358L2.10468 7.44378L2.34321 7.51863ZM1.70487 10.2985L1.45975 10.2494L1.45973 10.2495L1.70487 10.2985ZM1.68819 10.382L1.44304 10.3329L1.44303 10.333L1.68819 10.382ZM1.02263 14.3762L1.27197 14.3944L1.27198 14.3941L1.02263 14.3762ZM1.55473 17.1017L1.34504 17.2378L1.34508 17.2379L1.55473 17.1017ZM2.13775 17.8129L1.96277 17.9914L1.96313 17.9918L2.13775 17.8129ZM4.70604 18.87L4.67465 19.1181L4.67483 19.1181L4.70604 18.87ZM14.3909 18.87L14.4221 19.1181L14.4223 19.1181L14.3909 18.87ZM16.9592 17.8129L16.7845 17.634L16.7845 17.6341L16.9592 17.8129ZM17.5422 17.1017L17.3326 16.9654L17.3326 16.9654L17.5422 17.1017ZM18.0752 14.3762L18.3246 14.3582L18.3246 14.3581L18.0752 14.3762ZM17.4079 10.382L17.1623 10.4285L17.1628 10.4312L17.4079 10.382ZM17.3921 10.2985L17.6377 10.252L17.6373 10.2496L17.3921 10.2985ZM16.7537 7.51863L16.9923 7.44378L16.9922 7.44358L16.7537 7.51863ZM15.7264 5.69581L15.901 5.51683L15.9008 5.5167L15.7264 5.69581ZM15.1733 5.24273L15.0319 5.44893L15.032 5.44901L15.1733 5.24273ZM13.1845 4.59298L13.2114 4.34443L13.2111 4.3444L13.1845 4.59298ZM6.05385 5.90215L6.08047 6.15072L6.08053 6.15072L6.05385 5.90215ZM4.66829 6.32888L4.52718 6.12251L4.52677 6.12279L4.66829 6.32888ZM4.28985 6.63971L4.46438 6.8187L4.46452 6.81857L4.28985 6.63971ZM3.5997 7.91376L3.3613 7.8385L3.36117 7.83891L3.5997 7.91376ZM2.98946 10.5936L3.23459 10.6426L3.23463 10.6425L2.98946 10.5936ZM2.33619 14.471L2.58554 14.4891L2.58555 14.4889L2.33619 14.471ZM2.65931 16.3843L2.86892 16.248L2.8689 16.248L2.65931 16.3843ZM3.05795 16.8707L2.88327 17.0496L2.88334 17.0497L3.05795 16.8707ZM4.87112 17.5635L4.83967 17.8115L4.83982 17.8115L4.87112 17.5635ZM14.2258 17.5635L14.2571 17.8116L14.2573 17.8115L14.2258 17.5635ZM16.039 16.8707L16.2136 17.0497L16.2137 17.0495L16.039 16.8707ZM16.4377 16.3843L16.2281 16.248L16.228 16.2481L16.4377 16.3843ZM16.7617 14.4701L17.011 14.4523L17.011 14.4521L16.7617 14.4701ZM16.1084 10.5936L16.3535 10.5446L16.3535 10.5445L16.1084 10.5936ZM15.4973 7.91376L15.2588 7.9887L15.2589 7.98899L15.4973 7.91376ZM14.8071 6.63971L14.6322 6.81837L14.6326 6.8187L14.8071 6.63971ZM14.4296 6.32888L14.5713 6.12295L14.5707 6.12251L14.4296 6.32888ZM13.0431 5.90215L13.0701 5.6536L13.0698 5.65358L13.0431 5.90215ZM9.54848 2.06707C8.95821 2.06707 8.39212 2.30156 7.97474 2.71894L8.32829 3.07249C8.65191 2.74888 9.09082 2.56707 9.54848 2.56707V2.06707ZM7.97474 2.71894C7.55736 3.13632 7.32287 3.70241 7.32287 4.29268H7.82287C7.82287 3.83502 8.00468 3.39611 8.32829 3.07249L7.97474 2.71894ZM7.32287 4.29268V4.51571H7.82287V4.29268H7.32287ZM7.57526 4.7657C7.94087 4.7622 8.33473 4.7622 8.76263 4.7622V4.2622C8.33531 4.2622 7.93893 4.26219 7.57048 4.26572L7.57526 4.7657ZM8.76263 4.7622H10.3343V4.2622H8.76263V4.7622ZM10.3343 4.7622C10.7622 4.7622 11.157 4.7622 11.5217 4.7657L11.5265 4.26572C11.1589 4.26219 10.7617 4.2622 10.3343 4.2622V4.7622ZM11.7741 4.51571V4.29268H11.2741V4.51571H11.7741ZM11.7741 4.29268C11.7741 3.70241 11.5396 3.13632 11.1222 2.71894L10.7687 3.07249C11.0923 3.39611 11.2741 3.83502 11.2741 4.29268H11.7741ZM11.1222 2.71894C10.7048 2.30156 10.1388 2.06707 9.54848 2.06707V2.56707C10.0061 2.56707 10.4451 2.74888 10.7687 3.07249L11.1222 2.71894ZM13.0912 4.56224V4.29268H12.5912V4.56224H13.0912ZM13.0912 4.29268C13.0912 3.35311 12.7179 2.45201 12.0535 1.78763L11.7 2.14118C12.2706 2.71179 12.5912 3.48571 12.5912 4.29268H13.0912ZM12.0535 1.78763C11.3892 1.12325 10.4881 0.75 9.54848 0.75V1.25C10.3555 1.25 11.1294 1.57057 11.7 2.14118L12.0535 1.78763ZM9.54848 0.75C8.6089 0.75 7.70781 1.12325 7.04343 1.78763L7.39698 2.14118C7.96759 1.57057 8.74151 1.25 9.54848 1.25V0.75ZM7.04343 1.78763C6.37905 2.45201 6.0058 3.35311 6.0058 4.29268H6.5058C6.5058 3.48571 6.82637 2.71179 7.39698 2.14118L7.04343 1.78763ZM6.0058 4.29268V4.56224H6.5058V4.29268H6.0058ZM6.23733 4.31293C6.11731 4.32182 5.99979 4.33174 5.88487 4.3445L5.94009 4.84145C6.04644 4.82963 6.15721 4.82023 6.27427 4.81156L6.23733 4.31293ZM5.88559 4.34443C5.09292 4.43019 4.40196 4.61173 3.78234 5.03654L4.06507 5.44893C4.59042 5.08876 5.19019 4.92259 5.93938 4.84152L5.88559 4.34443ZM3.78245 5.03646C3.57362 5.17945 3.37746 5.34012 3.19613 5.51669L3.54494 5.87492C3.70576 5.71833 3.87974 5.57583 4.06495 5.44901L3.78245 5.03646ZM3.19598 5.51683C2.65822 6.04129 2.34406 6.6832 2.10475 7.44358L2.58168 7.59369C2.80773 6.87544 3.0889 6.31968 3.54508 5.87478L3.19598 5.51683ZM2.10468 7.44378C1.87413 8.1785 1.68879 9.10684 1.45975 10.2494L1.95 10.3477C2.18106 9.19501 2.36098 8.29701 2.58175 7.59348L2.10468 7.44378ZM1.45973 10.2495L1.44304 10.3329L1.93334 10.431L1.95002 10.3476L1.45973 10.2495ZM1.44303 10.333C1.11415 11.98 0.849297 13.3011 0.773273 14.3583L1.27198 14.3941C1.34523 13.3756 1.60194 12.0906 1.93335 10.4309L1.44303 10.333ZM0.773289 14.358C0.694239 15.4432 0.800119 16.3985 1.34504 17.2378L1.76441 16.9655C1.30485 16.2577 1.19648 15.4306 1.27197 14.3944L0.773289 14.358ZM1.34508 17.2379C1.523 17.5117 1.73051 17.7638 1.96277 17.9914L2.31273 17.6343C2.10597 17.4317 1.92187 17.2079 1.76437 16.9655L1.34508 17.2379ZM1.96313 17.9918C2.67955 18.6911 3.59614 18.9816 4.67465 19.1181L4.73743 18.622C3.70687 18.4916 2.91654 18.2237 2.31237 17.634L1.96313 17.9918ZM4.67483 19.1181C5.7266 19.2505 7.07433 19.25 8.75385 19.25V18.75C7.06166 18.75 5.75066 18.7495 4.73726 18.622L4.67483 19.1181ZM8.75385 19.25H10.3431V18.75H8.75385V19.25ZM10.3431 19.25C12.0235 19.25 13.3704 19.2505 14.4221 19.1181L14.3597 18.622C13.3463 18.7495 12.0362 18.75 10.3431 18.75V19.25ZM14.4223 19.1181C15.5007 18.9816 16.4183 18.6911 17.134 17.9917L16.7845 17.6341C16.1813 18.2236 15.3902 18.4916 14.3595 18.622L14.4223 19.1181ZM17.1339 17.9917C17.3671 17.764 17.5743 17.5112 17.7519 17.2379L17.3326 16.9654C17.1751 17.2078 16.9913 17.4321 16.7845 17.634L17.1339 17.9917ZM17.7518 17.2379C18.2969 16.3994 18.4027 15.4432 18.3246 14.3582L17.8259 14.3942C17.9005 15.4306 17.7921 16.2585 17.3326 16.9654L17.7518 17.2379ZM18.3246 14.3581C18.2476 13.301 17.9837 11.9802 17.653 10.3327L17.1628 10.4312C17.4959 12.0904 17.7518 13.3757 17.8259 14.3943L18.3246 14.3581ZM17.6535 10.3354L17.6377 10.252L17.1465 10.3451L17.1623 10.4285L17.6535 10.3354ZM17.6373 10.2496C17.409 9.10663 17.2228 8.17851 16.9923 7.44378L16.5152 7.59348C16.736 8.29701 16.9168 9.19523 17.1469 10.3475L17.6373 10.2496ZM16.9922 7.44358C16.7529 6.6832 16.4387 6.04129 15.901 5.51683L15.5519 5.87478C16.0081 6.31968 16.2892 6.87544 16.5153 7.59369L16.9922 7.44358ZM15.9008 5.5167C15.7195 5.34012 15.5233 5.17944 15.3145 5.03645L15.032 5.44901C15.2172 5.57582 15.3912 5.71831 15.552 5.87491L15.9008 5.5167ZM15.3146 5.03654C14.695 4.61173 14.004 4.43019 13.2114 4.34443L13.1576 4.84152C13.9068 4.92259 14.5065 5.08876 15.0319 5.44893L15.3146 5.03654ZM13.2111 4.3444C13.0943 4.33189 12.9773 4.32139 12.8601 4.3129L12.824 4.81159C12.9354 4.81967 13.0467 4.82966 13.1579 4.84155L13.2111 4.3444ZM6.02723 5.65357C5.34885 5.72622 4.89881 5.86839 4.52718 6.12251L4.8094 6.53525C5.08752 6.34507 5.44704 6.21856 6.08047 6.15072L6.02723 5.65357ZM4.52677 6.12279C4.38014 6.22347 4.24244 6.33657 4.11518 6.46085L4.46452 6.81857C4.57127 6.71432 4.68679 6.61943 4.8098 6.53497L4.52677 6.12279ZM4.11532 6.46071C3.79264 6.77535 3.56632 7.18897 3.3613 7.8385L3.83811 7.98901C4.02996 7.38118 4.22335 7.05373 4.46438 6.8187L4.11532 6.46071ZM3.36117 7.83891C3.15428 8.49825 2.98123 9.35643 2.74429 10.5447L3.23463 10.6425C3.47359 9.44415 3.64122 8.61649 3.83823 7.9886L3.36117 7.83891ZM2.74432 10.5445C2.40322 12.2483 2.15583 13.4889 2.08683 14.4532L2.58555 14.4889C2.65176 13.5636 2.89082 12.3597 3.23459 10.6426L2.74432 10.5445ZM2.08684 14.4529C2.01747 15.4098 2.12946 16.028 2.44972 16.5206L2.8689 16.248C2.63424 15.8871 2.51969 15.3973 2.58554 14.4891L2.08684 14.4529ZM2.4497 16.5205C2.5738 16.7115 2.71983 16.89 2.88327 17.0496L3.23262 16.6919C3.09577 16.5582 2.97312 16.4083 2.86892 16.248L2.4497 16.5205ZM2.88334 17.0497C3.3038 17.46 3.88753 17.6908 4.83967 17.8115L4.90256 17.3155C3.99851 17.2009 3.54087 16.9927 3.23255 16.6918L2.88334 17.0497ZM4.83982 17.8115C5.79869 17.9325 7.06434 17.9329 8.80126 17.9329V17.4329C7.05057 17.4329 5.82257 17.4316 4.90241 17.3155L4.83982 17.8115ZM8.80126 17.9329H10.2966V17.4329H8.80126V17.9329ZM10.2966 17.9329C12.0335 17.9329 13.2974 17.9325 14.2571 17.8116L14.1946 17.3155C13.2735 17.4316 12.0472 17.4329 10.2966 17.4329V17.9329ZM14.2573 17.8115C15.2094 17.6908 15.7932 17.46 16.2136 17.0497L15.8644 16.6918C15.5561 16.9927 15.0985 17.2009 14.1944 17.3155L14.2573 17.8115ZM16.2137 17.0495C16.3773 16.8897 16.5227 16.7123 16.6473 16.5205L16.228 16.2481C16.1235 16.409 16.0015 16.5578 15.8643 16.6919L16.2137 17.0495ZM16.6472 16.5206C16.9675 16.028 17.0795 15.4098 17.011 14.4523L16.5123 14.488C16.5773 15.3972 16.4627 15.8871 16.2281 16.248L16.6472 16.5206ZM17.011 14.4521C16.9411 13.4879 16.6938 12.2483 16.3535 10.5446L15.8632 10.6425C16.2061 12.3597 16.4452 13.5628 16.5123 14.4882L17.011 14.4521ZM16.3535 10.5445C16.1158 9.3568 15.9435 8.49722 15.7357 7.83852L15.2589 7.98899C15.4566 8.61575 15.6233 9.44379 15.8632 10.6426L16.3535 10.5445ZM15.7358 7.83881C15.5315 7.18875 15.3042 6.77523 14.9816 6.46071L14.6326 6.8187C14.8737 7.05385 15.0679 7.3814 15.2588 7.9887L15.7358 7.83881ZM14.982 6.46104C14.855 6.33679 14.7176 6.22367 14.5713 6.12295L14.2878 6.53481C14.4105 6.61929 14.5258 6.71416 14.6322 6.81837L14.982 6.46104ZM14.5707 6.12251C14.1988 5.86825 13.7478 5.72709 13.0701 5.6536L13.0162 6.15069C13.6503 6.21945 14.0105 6.34522 14.2884 6.53525L14.5707 6.12251ZM13.0698 5.65358C12.3834 5.57981 11.5071 5.57927 10.2957 5.57927V6.07927C11.5182 6.07927 12.3629 6.08048 13.0164 6.15072L13.0698 5.65358ZM10.2957 5.57927H8.80214V6.07927H10.2957V5.57927ZM8.80214 5.57927C7.59068 5.57927 6.71444 5.57981 6.02717 5.65357L6.08053 6.15072C6.73492 6.08048 7.57965 6.07927 8.80214 6.07927V5.57927Z" fill="#603913" mask="url(#path-2-outside-1_6_3252)"/>
</svg>
