<svg width="18" height="20" viewBox="0 0 18 20" fill="none" xmlns="http://www.w3.org/2000/svg">
<path d="M11.157 1V5C11.157 5.26522 11.2756 5.51957 11.4866 5.70711C11.6977 5.89464 11.9839 6 12.2824 6H16.7839" stroke="#603913" stroke-width="2" stroke-linecap="round" stroke-linejoin="round"/>
<path d="M5.52985 15H12.2822M5.52985 11H12.2822M14.5329 19H3.27909C2.68215 19 2.10966 18.7893 1.68755 18.4142C1.26545 18.0391 1.02832 17.5304 1.02832 17V3C1.02832 2.46957 1.26545 1.96086 1.68755 1.58579C2.10966 1.21071 2.68215 1 3.27909 1H11.1568L16.7837 6V17C16.7837 17.5304 16.5466 18.0391 16.1245 18.4142C15.7024 18.7893 15.1299 19 14.5329 19Z" stroke="#603913" stroke-width="2" stroke-linecap="round" stroke-linejoin="round"/>
</svg>
