<svg width="18" height="20" viewBox="0 0 18 20" fill="none" xmlns="http://www.w3.org/2000/svg">
<path d="M11.157 1V5C11.157 5.26522 11.2756 5.51957 11.4866 5.70711C11.6977 5.89464 11.9839 6 12.2824 6H16.7839" stroke="#603913" stroke-width="2" stroke-linecap="round" stroke-linejoin="round"/>
<path d="M3.27909 19H14.5329C15.1299 19 15.7024 18.7893 16.1245 18.4142C16.5466 18.0391 16.7837 17.5304 16.7837 17V6L11.1568 1H3.27909C2.68215 1 2.10966 1.21071 1.68755 1.58579C1.26545 1.96086 1.02832 2.46957 1.02832 3V17C1.02832 17.5304 1.26545 18.0391 1.68755 18.4142C2.10966 18.7893 2.68215 19 3.27909 19Z" stroke="#603913" stroke-width="2" stroke-linecap="round" stroke-linejoin="round"/>
<path d="M13.1231 9.20476C13.2857 9.34137 13.3806 9.52978 13.3869 9.72855C13.3933 9.92733 13.3105 10.1202 13.1568 10.2648L8.37395 14.7648C8.29643 14.8376 8.20328 14.8958 8.1 14.9361C7.99672 14.9764 7.8854 14.9978 7.77262 14.9992C7.65984 15.0006 7.54789 14.9819 7.44339 14.9442C7.33888 14.9065 7.24393 14.8506 7.16416 14.7798L4.63205 12.5298C4.48296 12.3876 4.40179 12.1995 4.40565 12.0052C4.40951 11.8109 4.49809 11.6256 4.65273 11.4881C4.80737 11.3507 5.016 11.272 5.23467 11.2686C5.45333 11.2652 5.66495 11.3373 5.82495 11.4698L7.74373 13.1738L11.9302 9.23476C12.0839 9.09026 12.2959 9.00593 12.5196 9.0003C12.7433 8.99467 12.9604 9.06822 13.1231 9.20476Z" fill="#603913"/>
</svg>
