<svg width="148" height="53" viewBox="0 0 148 53" fill="none" xmlns="http://www.w3.org/2000/svg">
<g clip-path="url(#clip0_126_2902)">
<path d="M27.438 52.5503C27.2704 52.6227 27.0778 52.6979 26.8572 52.7591C26.631 52.8203 26.3657 52.876 26.092 52.9317C25.81 52.9735 25.514 53.0013 25.2096 53.0013C24.5478 53.0013 23.9446 52.9094 23.3917 52.7285C22.8388 52.5364 22.3613 52.2496 21.9564 51.8738C21.5571 51.4924 21.2387 51.0303 21.0098 50.4819C20.7836 49.9279 20.6719 49.3043 20.6719 48.5999C20.6719 47.8956 20.7808 47.2804 21.0098 46.7236C21.2387 46.1752 21.5571 45.713 21.976 45.3316C22.3781 44.953 22.8751 44.6635 23.442 44.4658C24.0144 44.2682 24.64 44.168 25.3325 44.168C25.8798 44.168 26.3796 44.2264 26.8292 44.335C27.2844 44.4519 27.6781 44.5828 28.0272 44.7331C27.9658 44.85 27.9043 45.0087 27.8652 45.2064C27.8261 45.404 27.7898 45.5655 27.7591 45.7019L27.6921 45.7297C27.6111 45.624 27.4883 45.5154 27.3514 45.4012C27.2006 45.2732 27.0219 45.1535 26.8236 45.0365C26.631 44.9196 26.402 44.8222 26.1563 44.7442C25.8993 44.6691 25.6341 44.6301 25.3325 44.6301C24.8438 44.6301 24.3942 44.7108 23.9753 44.8695C23.5565 45.0254 23.1879 45.2593 22.8751 45.585C22.5652 45.9135 22.3278 46.3338 22.1575 46.8266C21.976 47.3277 21.8894 47.9207 21.8894 48.6027C21.8894 49.2848 21.976 49.8833 22.1575 50.3816C22.3278 50.8827 22.5652 51.2948 22.8751 51.6177C23.1879 51.949 23.5565 52.1884 23.9753 52.3443C24.3914 52.5002 24.8438 52.5837 25.3325 52.5837C25.6341 52.5837 25.9077 52.5447 26.1646 52.4696C26.4132 52.3944 26.6449 52.2998 26.86 52.2079C27.0694 52.1021 27.2565 51.9824 27.4268 51.8683C27.6027 51.743 27.7396 51.6428 27.8596 51.5509L27.896 51.601L27.7898 52.3304C27.7116 52.4 27.6027 52.4696 27.438 52.5503Z" fill="url(#paint0_linear_126_2902)"/>
<path d="M27.438 52.5503C27.2704 52.6227 27.0778 52.6979 26.8572 52.7591C26.631 52.8203 26.3657 52.876 26.092 52.9317C25.81 52.9735 25.514 53.0013 25.2096 53.0013C24.5478 53.0013 23.9446 52.9094 23.3917 52.7285C22.8388 52.5364 22.3613 52.2496 21.9564 51.8738C21.5571 51.4924 21.2387 51.0303 21.0098 50.4819C20.7836 49.9279 20.6719 49.3043 20.6719 48.5999C20.6719 47.8956 20.7808 47.2804 21.0098 46.7236C21.2387 46.1752 21.5571 45.713 21.976 45.3316C22.3781 44.953 22.8751 44.6635 23.442 44.4658C24.0144 44.2682 24.64 44.168 25.3325 44.168C25.8798 44.168 26.3796 44.2264 26.8292 44.335C27.2844 44.4519 27.6781 44.5828 28.0272 44.7331C27.9658 44.85 27.9043 45.0087 27.8652 45.2064C27.8261 45.404 27.7898 45.5655 27.7591 45.7019L27.6921 45.7297C27.6111 45.624 27.4883 45.5154 27.3514 45.4012C27.2006 45.2732 27.0219 45.1535 26.8236 45.0365C26.631 44.9196 26.402 44.8222 26.1563 44.7442C25.8993 44.6691 25.6341 44.6301 25.3325 44.6301C24.8438 44.6301 24.3942 44.7108 23.9753 44.8695C23.5565 45.0254 23.1879 45.2593 22.8751 45.585C22.5652 45.9135 22.3278 46.3338 22.1575 46.8266C21.976 47.3277 21.8894 47.9207 21.8894 48.6027C21.8894 49.2848 21.976 49.8833 22.1575 50.3816C22.3278 50.8827 22.5652 51.2948 22.8751 51.6177C23.1879 51.949 23.5565 52.1884 23.9753 52.3443C24.3914 52.5002 24.8438 52.5837 25.3325 52.5837C25.6341 52.5837 25.9077 52.5447 26.1646 52.4696C26.4132 52.3944 26.6449 52.2998 26.86 52.2079C27.0694 52.1021 27.2565 51.9824 27.4268 51.8683C27.6027 51.743 27.7396 51.6428 27.8596 51.5509L27.896 51.601L27.7898 52.3304C27.7116 52.4 27.6027 52.4696 27.438 52.5503Z" fill="url(#paint1_linear_126_2902)"/>
<path d="M38.0693 45.9317C38.0525 45.4083 38.0246 44.8766 37.9939 44.3281C38.1084 44.3476 38.2089 44.3587 38.315 44.3699C38.4156 44.3894 38.5105 44.3894 38.611 44.3894C38.7116 44.3894 38.8065 44.3894 38.9042 44.3699C39.0048 44.3587 39.1109 44.3448 39.217 44.3281C39.1891 44.8766 39.1667 45.4111 39.15 45.9317C39.136 46.4634 39.122 46.9895 39.122 47.5352V49.6732C39.122 50.2133 39.136 50.7506 39.15 51.2851C39.1667 51.8057 39.1919 52.3235 39.217 52.8357C39.0215 52.8218 38.8233 52.8135 38.611 52.8135C38.3988 52.8135 38.1894 52.819 37.9911 52.8357C38.0218 52.3235 38.0497 51.8057 38.0665 51.2851C38.086 50.7506 38.0944 50.2133 38.0944 49.6732V48.5541C37.6476 48.5541 37.2204 48.5402 36.8015 48.5346C36.3854 48.5346 35.9498 48.5263 35.503 48.5263C35.0562 48.5263 34.6234 48.5318 34.2101 48.5346C33.7913 48.5402 33.3556 48.5541 32.9088 48.5541V49.6732C32.9088 50.2133 32.9144 50.7506 32.9423 51.2851C32.9619 51.8057 32.9842 52.3235 33.0122 52.8357C32.8195 52.8218 32.6156 52.8135 32.4006 52.8135C32.1856 52.8135 31.9845 52.819 31.7891 52.8357C31.8226 52.3235 31.8449 51.8057 31.8645 51.2851C31.8812 50.7506 31.8924 50.2133 31.8924 49.6732V47.5352C31.8924 46.9923 31.8812 46.4634 31.8645 45.9317C31.8449 45.4083 31.8198 44.8766 31.7891 44.3281C31.9008 44.3476 32.0069 44.3587 32.1046 44.3699C32.2079 44.3894 32.3057 44.3894 32.4006 44.3894C32.5039 44.3894 32.6017 44.3894 32.6994 44.3699C32.7971 44.3587 32.9033 44.3448 33.0122 44.3281C32.9842 44.8766 32.9619 45.4111 32.9423 45.9317C32.9172 46.4634 32.9088 46.9895 32.9088 47.5352V47.975C33.3556 47.9778 33.7913 47.989 34.2101 48.0001C34.6262 48.0029 35.0618 48.0112 35.503 48.0112C35.9442 48.0112 36.3854 48.0057 36.8015 48.0001C37.2204 47.9917 37.6476 47.9806 38.0944 47.975V47.5352C38.0944 46.9923 38.086 46.4634 38.0665 45.9317" fill="url(#paint2_linear_126_2902)"/>
<path d="M38.0693 45.9317C38.0525 45.4083 38.0246 44.8766 37.9939 44.3281C38.1084 44.3476 38.2089 44.3587 38.315 44.3699C38.4156 44.3894 38.5105 44.3894 38.611 44.3894C38.7116 44.3894 38.8065 44.3894 38.9042 44.3699C39.0048 44.3587 39.1109 44.3448 39.217 44.3281C39.1891 44.8766 39.1667 45.4111 39.15 45.9317C39.136 46.4634 39.122 46.9895 39.122 47.5352V49.6732C39.122 50.2133 39.136 50.7506 39.15 51.2851C39.1667 51.8057 39.1919 52.3235 39.217 52.8357C39.0215 52.8218 38.8233 52.8135 38.611 52.8135C38.3988 52.8135 38.1894 52.819 37.9911 52.8357C38.0218 52.3235 38.0497 51.8057 38.0665 51.2851C38.086 50.7506 38.0944 50.2133 38.0944 49.6732V48.5541C37.6476 48.5541 37.2204 48.5402 36.8015 48.5346C36.3854 48.5346 35.9498 48.5263 35.503 48.5263C35.0562 48.5263 34.6234 48.5318 34.2101 48.5346C33.7913 48.5402 33.3556 48.5541 32.9088 48.5541V49.6732C32.9088 50.2133 32.9144 50.7506 32.9423 51.2851C32.9619 51.8057 32.9842 52.3235 33.0122 52.8357C32.8195 52.8218 32.6156 52.8135 32.4006 52.8135C32.1856 52.8135 31.9845 52.819 31.7891 52.8357C31.8226 52.3235 31.8449 51.8057 31.8645 51.2851C31.8812 50.7506 31.8924 50.2133 31.8924 49.6732V47.5352C31.8924 46.9923 31.8812 46.4634 31.8645 45.9317C31.8449 45.4083 31.8198 44.8766 31.7891 44.3281C31.9008 44.3476 32.0069 44.3587 32.1046 44.3699C32.2079 44.3894 32.3057 44.3894 32.4006 44.3894C32.5039 44.3894 32.6017 44.3894 32.6994 44.3699C32.7971 44.3587 32.9033 44.3448 33.0122 44.3281C32.9842 44.8766 32.9619 45.4111 32.9423 45.9317C32.9172 46.4634 32.9088 46.9895 32.9088 47.5352V47.975C33.3556 47.9778 33.7913 47.989 34.2101 48.0001C34.6262 48.0029 35.0618 48.0112 35.503 48.0112C35.9442 48.0112 36.3854 48.0057 36.8015 48.0001C37.2204 47.9917 37.6476 47.9806 38.0944 47.975V47.5352C38.0944 46.9923 38.086 46.4634 38.0665 45.9317" fill="url(#paint3_linear_126_2902)"/>
<path d="M43.4439 46.7225C43.6589 46.174 43.9773 45.7091 44.385 45.3305C44.7983 44.9463 45.2953 44.6624 45.8594 44.4675C46.4402 44.2671 47.0657 44.1641 47.7359 44.1641C48.4061 44.1641 49.0512 44.2643 49.6236 44.4675C50.2017 44.6596 50.6931 44.9463 51.1008 45.3305C51.5169 45.7063 51.8297 46.1713 52.0531 46.7225C52.2876 47.2765 52.3965 47.9001 52.3965 48.6016C52.3965 49.3032 52.2876 49.9295 52.0531 50.4752C51.8297 51.0292 51.5169 51.4941 51.1008 51.8727C50.6931 52.2457 50.2017 52.5325 49.6236 52.719C49.0512 52.9027 48.4312 52.9974 47.7359 52.9974C47.0406 52.9974 46.4402 52.9055 45.8594 52.719C45.2953 52.5325 44.7983 52.2457 44.385 51.8727C43.9773 51.4913 43.6589 51.0264 43.4439 50.4752C43.2038 49.9323 43.0977 49.3059 43.0977 48.6016C43.0977 47.8973 43.2066 47.2737 43.4439 46.7225ZM50.9249 46.8227C50.7434 46.3299 50.4949 45.9151 50.1877 45.5811C49.8833 45.2554 49.5203 45.0159 49.0986 44.8628C48.6826 44.6986 48.2274 44.629 47.7359 44.629C47.2444 44.629 46.8088 44.6986 46.3955 44.8628C45.9711 45.0159 45.6053 45.2554 45.2981 45.5811C44.9909 45.9151 44.748 46.3299 44.5721 46.8227C44.3878 47.3238 44.3068 47.9168 44.3068 48.6016C44.3068 49.2864 44.3906 49.8794 44.5721 50.3777C44.748 50.8788 44.9909 51.2909 45.2981 51.6138C45.6053 51.9339 45.9711 52.1873 46.3955 52.3432C46.8088 52.4963 47.2668 52.577 47.7359 52.577C48.2274 52.577 48.6826 52.4963 49.0986 52.3432C49.5203 52.1873 49.8861 51.9339 50.1877 51.6138C50.4921 51.2909 50.7434 50.8788 50.9249 50.3777C51.0952 49.8794 51.1762 49.2837 51.1762 48.6016C51.1762 47.9196 51.0952 47.3238 50.9249 46.8227Z" fill="url(#paint4_linear_126_2902)"/>
<path d="M43.4439 46.7225C43.6589 46.174 43.9773 45.7091 44.385 45.3305C44.7983 44.9463 45.2953 44.6624 45.8594 44.4675C46.4402 44.2671 47.0657 44.1641 47.7359 44.1641C48.4061 44.1641 49.0512 44.2643 49.6236 44.4675C50.2017 44.6596 50.6931 44.9463 51.1008 45.3305C51.5169 45.7063 51.8297 46.1713 52.0531 46.7225C52.2876 47.2765 52.3965 47.9001 52.3965 48.6016C52.3965 49.3032 52.2876 49.9295 52.0531 50.4752C51.8297 51.0292 51.5169 51.4941 51.1008 51.8727C50.6931 52.2457 50.2017 52.5325 49.6236 52.719C49.0512 52.9027 48.4312 52.9974 47.7359 52.9974C47.0406 52.9974 46.4402 52.9055 45.8594 52.719C45.2953 52.5325 44.7983 52.2457 44.385 51.8727C43.9773 51.4913 43.6589 51.0264 43.4439 50.4752C43.2038 49.9323 43.0977 49.3059 43.0977 48.6016C43.0977 47.8973 43.2066 47.2737 43.4439 46.7225ZM50.9249 46.8227C50.7434 46.3299 50.4949 45.9151 50.1877 45.5811C49.8833 45.2554 49.5203 45.0159 49.0986 44.8628C48.6826 44.6986 48.2274 44.629 47.7359 44.629C47.2444 44.629 46.8088 44.6986 46.3955 44.8628C45.9711 45.0159 45.6053 45.2554 45.2981 45.5811C44.9909 45.9151 44.748 46.3299 44.5721 46.8227C44.3878 47.3238 44.3068 47.9168 44.3068 48.6016C44.3068 49.2864 44.3906 49.8794 44.5721 50.3777C44.748 50.8788 44.9909 51.2909 45.2981 51.6138C45.6053 51.9339 45.9711 52.1873 46.3955 52.3432C46.8088 52.4963 47.2668 52.577 47.7359 52.577C48.2274 52.577 48.6826 52.4963 49.0986 52.3432C49.5203 52.1873 49.8861 51.9339 50.1877 51.6138C50.4921 51.2909 50.7434 50.8788 50.9249 50.3777C51.0952 49.8794 51.1762 49.2837 51.1762 48.6016C51.1762 47.9196 51.0952 47.3238 50.9249 46.8227Z" fill="url(#paint5_linear_126_2902)"/>
<path d="M62.4388 52.5503C62.2825 52.6227 62.087 52.6979 61.8608 52.7591C61.6262 52.8203 61.3805 52.876 61.0957 52.9317C60.8136 52.9735 60.5176 53.0013 60.2132 53.0013C59.5598 53.0013 58.9511 52.9094 58.3981 52.7285C57.848 52.5364 57.3649 52.2496 56.9572 51.8738C56.5551 51.4924 56.248 51.0303 56.0134 50.4819C55.79 49.9279 55.6699 49.3043 55.6699 48.5999C55.6699 47.8956 55.7872 47.2804 56.0134 46.7236C56.248 46.1752 56.5635 45.713 56.974 45.3316C57.3817 44.953 57.8648 44.6635 58.4484 44.4658C59.0209 44.2682 59.6548 44.168 60.3333 44.168C60.8862 44.168 61.3833 44.2264 61.8357 44.335C62.2797 44.4519 62.6818 44.5828 63.0252 44.7331C62.961 44.85 62.9108 45.0087 62.8717 45.2064C62.8214 45.404 62.7879 45.5655 62.7655 45.7019L62.6929 45.7297C62.612 45.624 62.5003 45.5154 62.3467 45.4012C62.2015 45.2732 62.0228 45.1535 61.8357 45.0365C61.6262 44.9196 61.4028 44.8222 61.1515 44.7442C60.9086 44.6691 60.6349 44.6301 60.3333 44.6301C59.8418 44.6301 59.3895 44.7108 58.9706 44.8695C58.5545 45.0254 58.1915 45.2593 57.8843 45.585C57.5772 45.9135 57.3286 46.3338 57.1583 46.8266C56.988 47.3277 56.8958 47.9207 56.8958 48.6027C56.8958 49.2848 56.988 49.8833 57.1583 50.3816C57.3286 50.8827 57.5744 51.2948 57.8843 51.6177C58.1915 51.949 58.5573 52.1884 58.9706 52.3443C59.3923 52.5002 59.8418 52.5837 60.3333 52.5837C60.6349 52.5837 60.9058 52.5447 61.1543 52.4696C61.4056 52.3944 61.6458 52.2998 61.858 52.2079C62.0702 52.1021 62.2573 51.9824 62.4249 51.8683C62.6036 51.743 62.7432 51.6428 62.8549 51.5509L62.9052 51.601L62.7879 52.3304C62.7181 52.4 62.6092 52.4696 62.436 52.5503" fill="url(#paint6_linear_126_2902)"/>
<path d="M62.4388 52.5503C62.2825 52.6227 62.087 52.6979 61.8608 52.7591C61.6262 52.8203 61.3805 52.876 61.0957 52.9317C60.8136 52.9735 60.5176 53.0013 60.2132 53.0013C59.5598 53.0013 58.9511 52.9094 58.3981 52.7285C57.848 52.5364 57.3649 52.2496 56.9572 51.8738C56.5551 51.4924 56.248 51.0303 56.0134 50.4819C55.79 49.9279 55.6699 49.3043 55.6699 48.5999C55.6699 47.8956 55.7872 47.2804 56.0134 46.7236C56.248 46.1752 56.5635 45.713 56.974 45.3316C57.3817 44.953 57.8648 44.6635 58.4484 44.4658C59.0209 44.2682 59.6548 44.168 60.3333 44.168C60.8862 44.168 61.3833 44.2264 61.8357 44.335C62.2797 44.4519 62.6818 44.5828 63.0252 44.7331C62.961 44.85 62.9108 45.0087 62.8717 45.2064C62.8214 45.404 62.7879 45.5655 62.7655 45.7019L62.6929 45.7297C62.612 45.624 62.5003 45.5154 62.3467 45.4012C62.2015 45.2732 62.0228 45.1535 61.8357 45.0365C61.6262 44.9196 61.4028 44.8222 61.1515 44.7442C60.9086 44.6691 60.6349 44.6301 60.3333 44.6301C59.8418 44.6301 59.3895 44.7108 58.9706 44.8695C58.5545 45.0254 58.1915 45.2593 57.8843 45.585C57.5772 45.9135 57.3286 46.3338 57.1583 46.8266C56.988 47.3277 56.8958 47.9207 56.8958 48.6027C56.8958 49.2848 56.988 49.8833 57.1583 50.3816C57.3286 50.8827 57.5744 51.2948 57.8843 51.6177C58.1915 51.949 58.5573 52.1884 58.9706 52.3443C59.3923 52.5002 59.8418 52.5837 60.3333 52.5837C60.6349 52.5837 60.9058 52.5447 61.1543 52.4696C61.4056 52.3944 61.6458 52.2998 61.858 52.2079C62.0702 52.1021 62.2573 51.9824 62.4249 51.8683C62.6036 51.743 62.7432 51.6428 62.8549 51.5509L62.9052 51.601L62.7879 52.3304C62.7181 52.4 62.6092 52.4696 62.436 52.5503" fill="url(#paint7_linear_126_2902)"/>
<path d="M66.5494 46.7225C66.7728 46.174 67.0883 45.7091 67.4932 45.3305C67.9009 44.9463 68.4008 44.6624 68.9649 44.4675C69.5429 44.2671 70.1712 44.1641 70.8442 44.1641C71.5172 44.1641 72.165 44.2643 72.7319 44.4675C73.3043 44.6596 73.8014 44.9463 74.2007 45.3305C74.6084 45.7063 74.9323 46.1713 75.1613 46.7225C75.3819 47.2765 75.502 47.9001 75.502 48.6016C75.502 49.3032 75.3819 49.9295 75.1613 50.4752C74.9295 51.0292 74.6056 51.4941 74.2007 51.8727C73.7986 52.2457 73.3015 52.5325 72.7319 52.719C72.165 52.9027 71.5283 52.9974 70.8442 52.9974C70.16 52.9974 69.5429 52.9055 68.9649 52.719C68.4008 52.5325 67.9009 52.2457 67.4932 51.8727C67.0883 51.4913 66.7728 51.0264 66.5494 50.4752C66.3176 49.9323 66.2031 49.3059 66.2031 48.6016C66.2031 47.8973 66.3176 47.2737 66.5494 46.7225ZM74.0164 46.8227C73.8489 46.3299 73.6087 45.9151 73.2987 45.5811C72.9944 45.2554 72.6202 45.0159 72.1985 44.8628C71.7852 44.6986 71.3329 44.629 70.8442 44.629C70.3555 44.629 69.9171 44.6986 69.4982 44.8628C69.0849 45.0159 68.7135 45.2554 68.4036 45.5811C68.088 45.9151 67.8479 46.3299 67.6803 46.8227C67.4932 47.3238 67.4123 47.9168 67.4123 48.6016C67.4123 49.2864 67.4932 49.8794 67.6803 50.3777C67.8479 50.8788 68.088 51.2909 68.4036 51.6138C68.7107 51.9339 69.0821 52.1873 69.4982 52.3432C69.9171 52.4963 70.3639 52.577 70.8442 52.577C71.3245 52.577 71.788 52.4963 72.1985 52.3432C72.6202 52.1873 72.9944 51.9339 73.2987 51.6138C73.6087 51.2909 73.8489 50.8788 74.0164 50.3777C74.2035 49.8794 74.2901 49.2837 74.2901 48.6016C74.2901 47.9196 74.2035 47.3238 74.0164 46.8227Z" fill="url(#paint8_linear_126_2902)"/>
<path d="M66.5494 46.7225C66.7728 46.174 67.0883 45.7091 67.4932 45.3305C67.9009 44.9463 68.4008 44.6624 68.9649 44.4675C69.5429 44.2671 70.1712 44.1641 70.8442 44.1641C71.5172 44.1641 72.165 44.2643 72.7319 44.4675C73.3043 44.6596 73.8014 44.9463 74.2007 45.3305C74.6084 45.7063 74.9323 46.1713 75.1613 46.7225C75.3819 47.2765 75.502 47.9001 75.502 48.6016C75.502 49.3032 75.3819 49.9295 75.1613 50.4752C74.9295 51.0292 74.6056 51.4941 74.2007 51.8727C73.7986 52.2457 73.3015 52.5325 72.7319 52.719C72.165 52.9027 71.5283 52.9974 70.8442 52.9974C70.16 52.9974 69.5429 52.9055 68.9649 52.719C68.4008 52.5325 67.9009 52.2457 67.4932 51.8727C67.0883 51.4913 66.7728 51.0264 66.5494 50.4752C66.3176 49.9323 66.2031 49.3059 66.2031 48.6016C66.2031 47.8973 66.3176 47.2737 66.5494 46.7225ZM74.0164 46.8227C73.8489 46.3299 73.6087 45.9151 73.2987 45.5811C72.9944 45.2554 72.6202 45.0159 72.1985 44.8628C71.7852 44.6986 71.3329 44.629 70.8442 44.629C70.3555 44.629 69.9171 44.6986 69.4982 44.8628C69.0849 45.0159 68.7135 45.2554 68.4036 45.5811C68.088 45.9151 67.8479 46.3299 67.6803 46.8227C67.4932 47.3238 67.4123 47.9168 67.4123 48.6016C67.4123 49.2864 67.4932 49.8794 67.6803 50.3777C67.8479 50.8788 68.088 51.2909 68.4036 51.6138C68.7107 51.9339 69.0821 52.1873 69.4982 52.3432C69.9171 52.4963 70.3639 52.577 70.8442 52.577C71.3245 52.577 71.788 52.4963 72.1985 52.3432C72.6202 52.1873 72.9944 51.9339 73.2987 51.6138C73.6087 51.2909 73.8489 50.8788 74.0164 50.3777C74.2035 49.8794 74.2901 49.2837 74.2901 48.6016C74.2901 47.9196 74.2035 47.3238 74.0164 46.8227Z" fill="url(#paint9_linear_126_2902)"/>
<path d="M79.4487 45.9317C79.4236 45.4083 79.404 44.8766 79.3789 44.3281C79.485 44.3476 79.5911 44.3587 79.6889 44.3699C79.795 44.3894 79.8899 44.3894 79.9905 44.3894C80.091 44.3894 80.1859 44.3894 80.2837 44.3699C80.3842 44.3587 80.4875 44.3448 80.5964 44.3281C80.5685 44.8766 80.5517 45.4111 80.535 45.9317C80.5071 46.4634 80.5015 46.9895 80.5015 47.5352C80.5015 48.5764 80.5015 49.4783 80.5071 50.2411C80.5266 51.0067 80.535 51.6888 80.5406 52.2957C81.127 52.2957 81.6911 52.2901 82.2216 52.2762C82.7578 52.2595 83.3414 52.2121 83.9669 52.1286C83.9194 52.2845 83.8971 52.4015 83.8971 52.5045C83.8971 52.5935 83.9194 52.7049 83.9669 52.833C83.5843 52.819 83.1962 52.8107 82.822 52.8107H80.5322C80.1552 52.8107 79.7782 52.8163 79.3789 52.833C79.404 52.3207 79.4236 51.8029 79.4487 51.2823C79.4627 50.7478 79.4766 50.2105 79.4766 49.6704V47.5324C79.4766 46.9895 79.4655 46.4606 79.4487 45.9289" fill="url(#paint10_linear_126_2902)"/>
<path d="M79.4487 45.9317C79.4236 45.4083 79.404 44.8766 79.3789 44.3281C79.485 44.3476 79.5911 44.3587 79.6889 44.3699C79.795 44.3894 79.8899 44.3894 79.9905 44.3894C80.091 44.3894 80.1859 44.3894 80.2837 44.3699C80.3842 44.3587 80.4875 44.3448 80.5964 44.3281C80.5685 44.8766 80.5517 45.4111 80.535 45.9317C80.5071 46.4634 80.5015 46.9895 80.5015 47.5352C80.5015 48.5764 80.5015 49.4783 80.5071 50.2411C80.5266 51.0067 80.535 51.6888 80.5406 52.2957C81.127 52.2957 81.6911 52.2901 82.2216 52.2762C82.7578 52.2595 83.3414 52.2121 83.9669 52.1286C83.9194 52.2845 83.8971 52.4015 83.8971 52.5045C83.8971 52.5935 83.9194 52.7049 83.9669 52.833C83.5843 52.819 83.1962 52.8107 82.822 52.8107H80.5322C80.1552 52.8107 79.7782 52.8163 79.3789 52.833C79.404 52.3207 79.4236 51.8029 79.4487 51.2823C79.4627 50.7478 79.4766 50.2105 79.4766 49.6704V47.5324C79.4766 46.9895 79.4655 46.4606 79.4487 45.9289" fill="url(#paint11_linear_126_2902)"/>
<path d="M94.7812 52.8354C94.6723 52.8215 94.569 52.8103 94.4517 52.8103H93.8011C93.6866 52.8103 93.5833 52.8215 93.466 52.8354C93.4046 52.6517 93.3292 52.4234 93.2258 52.1561C93.1281 51.8805 93.0248 51.6021 92.8991 51.3154C92.7846 51.0203 92.6562 50.7168 92.5361 50.419C92.4105 50.1211 92.2932 49.8399 92.1926 49.5615C91.9218 49.5504 91.6537 49.5448 91.38 49.542C91.1008 49.542 90.8299 49.5365 90.5535 49.5365C90.3049 49.5365 90.0508 49.542 89.7967 49.542C89.5454 49.542 89.2969 49.5504 89.0428 49.5615C88.7719 50.2018 88.5345 50.8171 88.3223 51.3989C88.1073 51.9807 87.9453 52.4679 87.8364 52.8382C87.6912 52.8243 87.5404 52.8131 87.3757 52.8131C87.2109 52.8131 87.0573 52.8243 86.9121 52.8382C87.5907 51.3989 88.2413 49.9596 88.8752 48.5287C89.5175 47.1033 90.1542 45.6529 90.802 44.1719H91.0394C91.2348 44.6479 91.4554 45.1713 91.69 45.7281C91.919 46.2849 92.1591 46.8444 92.3937 47.4207C92.6366 47.983 92.874 48.5565 93.1086 49.1189C93.3515 49.6757 93.5777 50.2018 93.7983 50.6834C94.0049 51.165 94.1976 51.5966 94.3624 51.9752C94.5383 52.351 94.6695 52.6405 94.7785 52.8382M89.2801 48.9908C89.4979 48.9908 89.7185 48.9908 89.9531 49.002C90.1849 49.0075 90.4027 49.0131 90.6205 49.0131C90.8551 49.0131 91.0896 49.0131 91.3186 49.002C91.5532 49.002 91.7766 48.9936 92.0167 48.988L90.6345 45.845L89.2801 48.988V48.9908Z" fill="url(#paint12_linear_126_2902)"/>
<path d="M94.7812 52.8354C94.6723 52.8215 94.569 52.8103 94.4517 52.8103H93.8011C93.6866 52.8103 93.5833 52.8215 93.466 52.8354C93.4046 52.6517 93.3292 52.4234 93.2258 52.1561C93.1281 51.8805 93.0248 51.6021 92.8991 51.3154C92.7846 51.0203 92.6562 50.7168 92.5361 50.419C92.4105 50.1211 92.2932 49.8399 92.1926 49.5615C91.9218 49.5504 91.6537 49.5448 91.38 49.542C91.1008 49.542 90.8299 49.5365 90.5535 49.5365C90.3049 49.5365 90.0508 49.542 89.7967 49.542C89.5454 49.542 89.2969 49.5504 89.0428 49.5615C88.7719 50.2018 88.5345 50.8171 88.3223 51.3989C88.1073 51.9807 87.9453 52.4679 87.8364 52.8382C87.6912 52.8243 87.5404 52.8131 87.3757 52.8131C87.2109 52.8131 87.0573 52.8243 86.9121 52.8382C87.5907 51.3989 88.2413 49.9596 88.8752 48.5287C89.5175 47.1033 90.1542 45.6529 90.802 44.1719H91.0394C91.2348 44.6479 91.4554 45.1713 91.69 45.7281C91.919 46.2849 92.1591 46.8444 92.3937 47.4207C92.6366 47.983 92.874 48.5565 93.1086 49.1189C93.3515 49.6757 93.5777 50.2018 93.7983 50.6834C94.0049 51.165 94.1976 51.5966 94.3624 51.9752C94.5383 52.351 94.6695 52.6405 94.7785 52.8382M89.2801 48.9908C89.4979 48.9908 89.7185 48.9908 89.9531 49.002C90.1849 49.0075 90.4027 49.0131 90.6205 49.0131C90.8551 49.0131 91.0896 49.0131 91.3186 49.002C91.5532 49.002 91.7766 48.9936 92.0167 48.988L90.6345 45.845L89.2801 48.988V48.9908Z" fill="url(#paint13_linear_126_2902)"/>
<path d="M99.2178 44.9729C99.0028 44.9729 98.7794 44.9757 98.5365 44.9757C98.2935 44.9757 98.0674 44.9896 97.83 45.0007C97.5898 45.0118 97.3692 45.0313 97.1514 45.0397C96.9308 45.062 96.7298 45.0842 96.5566 45.1065C96.6013 44.9534 96.6153 44.8225 96.6153 44.7056C96.6153 44.6193 96.6041 44.494 96.5566 44.3242C97.1068 44.3437 97.6345 44.3548 98.1595 44.3743C98.6789 44.3855 99.2179 44.3855 99.7624 44.3855C100.307 44.3855 100.84 44.3855 101.365 44.3743C101.882 44.3548 102.424 44.3437 102.968 44.3242C102.923 44.494 102.904 44.6221 102.904 44.7251C102.904 44.8281 102.923 44.9562 102.968 45.1065C102.798 45.0842 102.597 45.062 102.371 45.0397C102.158 45.0313 101.927 45.0118 101.7 45.0007C101.46 44.9896 101.223 44.9757 100.983 44.9757C100.743 44.9757 100.53 44.9729 100.312 44.9729C100.293 45.822 100.279 46.6738 100.279 47.5313V49.6693C100.279 50.2094 100.285 50.7467 100.304 51.2812C100.324 51.8018 100.346 52.3196 100.366 52.8318C100.187 52.8179 99.9718 52.8096 99.7624 52.8096C99.5529 52.8096 99.3435 52.8151 99.1508 52.8318C99.1704 52.3196 99.2011 51.8018 99.2206 51.2812C99.2402 50.7467 99.2542 50.2094 99.2542 49.6693V47.5313C99.2542 46.6738 99.243 45.822 99.2178 44.9729Z" fill="url(#paint14_linear_126_2902)"/>
<path d="M99.2178 44.9729C99.0028 44.9729 98.7794 44.9757 98.5365 44.9757C98.2935 44.9757 98.0674 44.9896 97.83 45.0007C97.5898 45.0118 97.3692 45.0313 97.1514 45.0397C96.9308 45.062 96.7298 45.0842 96.5566 45.1065C96.6013 44.9534 96.6153 44.8225 96.6153 44.7056C96.6153 44.6193 96.6041 44.494 96.5566 44.3242C97.1068 44.3437 97.6345 44.3548 98.1595 44.3743C98.6789 44.3855 99.2179 44.3855 99.7624 44.3855C100.307 44.3855 100.84 44.3855 101.365 44.3743C101.882 44.3548 102.424 44.3437 102.968 44.3242C102.923 44.494 102.904 44.6221 102.904 44.7251C102.904 44.8281 102.923 44.9562 102.968 45.1065C102.798 45.0842 102.597 45.062 102.371 45.0397C102.158 45.0313 101.927 45.0118 101.7 45.0007C101.46 44.9896 101.223 44.9757 100.983 44.9757C100.743 44.9757 100.53 44.9729 100.312 44.9729C100.293 45.822 100.279 46.6738 100.279 47.5313V49.6693C100.279 50.2094 100.285 50.7467 100.304 51.2812C100.324 51.8018 100.346 52.3196 100.366 52.8318C100.187 52.8179 99.9718 52.8096 99.7624 52.8096C99.5529 52.8096 99.3435 52.8151 99.1508 52.8318C99.1704 52.3196 99.2011 51.8018 99.2206 51.2812C99.2402 50.7467 99.2542 50.2094 99.2542 49.6693V47.5313C99.2542 46.6738 99.243 45.822 99.2178 44.9729Z" fill="url(#paint15_linear_126_2902)"/>
<path d="M106.638 45.9317C106.616 45.4083 106.593 44.8766 106.568 44.3281C106.688 44.3476 106.781 44.3587 106.881 44.3699C106.982 44.3894 107.077 44.3894 107.177 44.3894C107.278 44.3894 107.378 44.3894 107.476 44.3699C107.585 44.3587 107.685 44.3448 107.789 44.3281C107.766 44.8766 107.738 45.4111 107.724 45.9317C107.705 46.4634 107.688 46.9895 107.688 47.5352V49.6732C107.688 50.2133 107.705 50.7506 107.724 51.2851C107.738 51.8057 107.766 52.3235 107.789 52.8357C107.602 52.8218 107.398 52.8135 107.177 52.8135C106.957 52.8135 106.761 52.819 106.568 52.8357C106.593 52.3235 106.616 51.8057 106.638 51.2851C106.658 50.7506 106.68 50.2133 106.68 49.6732V47.5352C106.68 46.9923 106.661 46.4634 106.638 45.9317Z" fill="url(#paint16_linear_126_2902)"/>
<path d="M106.638 45.9317C106.616 45.4083 106.593 44.8766 106.568 44.3281C106.688 44.3476 106.781 44.3587 106.881 44.3699C106.982 44.3894 107.077 44.3894 107.177 44.3894C107.278 44.3894 107.378 44.3894 107.476 44.3699C107.585 44.3587 107.685 44.3448 107.789 44.3281C107.766 44.8766 107.738 45.4111 107.724 45.9317C107.705 46.4634 107.688 46.9895 107.688 47.5352V49.6732C107.688 50.2133 107.705 50.7506 107.724 51.2851C107.738 51.8057 107.766 52.3235 107.789 52.8357C107.602 52.8218 107.398 52.8135 107.177 52.8135C106.957 52.8135 106.761 52.819 106.568 52.8357C106.593 52.3235 106.616 51.8057 106.638 51.2851C106.658 50.7506 106.68 50.2133 106.68 49.6732V47.5352C106.68 46.9923 106.661 46.4634 106.638 45.9317Z" fill="url(#paint17_linear_126_2902)"/>
<path d="M112.327 45.9122C112.304 45.3888 112.282 44.8626 112.259 44.3281C112.636 44.3476 113.013 44.3587 113.374 44.3699C113.739 44.3894 114.114 44.3894 114.488 44.3894C114.862 44.3894 115.219 44.3894 115.588 44.3699C115.957 44.3587 116.32 44.3448 116.691 44.3281C116.663 44.4506 116.655 44.5759 116.655 44.7012C116.655 44.8264 116.663 44.9462 116.691 45.0742C116.426 45.0547 116.197 45.0352 115.968 45.0241C115.753 45.0102 115.513 44.9935 115.27 44.9768C115.027 44.9573 114.756 44.9461 114.471 44.9294C114.183 44.9183 113.834 44.9127 113.421 44.9127C113.416 45.1772 113.413 45.4306 113.402 45.6672C113.379 45.9066 113.379 46.1822 113.379 46.4857V47.4294C113.385 47.7328 113.385 47.9611 113.385 48.1198C113.753 48.1198 114.072 48.1114 114.368 48.1003C114.658 48.0947 114.918 48.0864 115.158 48.0725C115.401 48.0586 115.627 48.0474 115.828 48.0335C116.029 48.0196 116.225 48.0112 116.398 47.9945C116.381 48.117 116.364 48.2451 116.364 48.3787C116.364 48.5012 116.378 48.6265 116.398 48.749C116.191 48.7211 115.934 48.7044 115.652 48.6933C115.362 48.671 115.077 48.6599 114.789 48.6515C114.507 48.6515 114.234 48.646 113.985 48.6404C113.734 48.6348 113.538 48.6348 113.382 48.6348C113.382 48.71 113.382 48.7879 113.376 48.877V51.5969C113.382 51.9003 113.388 52.1314 113.399 52.2929H114.262C114.583 52.2929 114.887 52.2873 115.197 52.2734C115.493 52.2567 115.778 52.2428 116.049 52.2149C116.314 52.201 116.554 52.1648 116.753 52.1231C116.736 52.1815 116.725 52.2483 116.725 52.3151C116.719 52.3875 116.719 52.4488 116.719 52.5128C116.719 52.6437 116.73 52.7522 116.753 52.8302C116.381 52.8163 116.007 52.8051 115.641 52.8051H113.382C113.016 52.8051 112.636 52.8163 112.254 52.8302C112.276 52.3012 112.299 51.7779 112.321 51.2517C112.346 50.7255 112.352 50.191 112.352 49.6482V47.524C112.352 46.9812 112.346 46.4411 112.321 45.9094" fill="url(#paint18_linear_126_2902)"/>
<path d="M112.327 45.9122C112.304 45.3888 112.282 44.8626 112.259 44.3281C112.636 44.3476 113.013 44.3587 113.374 44.3699C113.739 44.3894 114.114 44.3894 114.488 44.3894C114.862 44.3894 115.219 44.3894 115.588 44.3699C115.957 44.3587 116.32 44.3448 116.691 44.3281C116.663 44.4506 116.655 44.5759 116.655 44.7012C116.655 44.8264 116.663 44.9462 116.691 45.0742C116.426 45.0547 116.197 45.0352 115.968 45.0241C115.753 45.0102 115.513 44.9935 115.27 44.9768C115.027 44.9573 114.756 44.9461 114.471 44.9294C114.183 44.9183 113.834 44.9127 113.421 44.9127C113.416 45.1772 113.413 45.4306 113.402 45.6672C113.379 45.9066 113.379 46.1822 113.379 46.4857V47.4294C113.385 47.7328 113.385 47.9611 113.385 48.1198C113.753 48.1198 114.072 48.1114 114.368 48.1003C114.658 48.0947 114.918 48.0864 115.158 48.0725C115.401 48.0586 115.627 48.0474 115.828 48.0335C116.029 48.0196 116.225 48.0112 116.398 47.9945C116.381 48.117 116.364 48.2451 116.364 48.3787C116.364 48.5012 116.378 48.6265 116.398 48.749C116.191 48.7211 115.934 48.7044 115.652 48.6933C115.362 48.671 115.077 48.6599 114.789 48.6515C114.507 48.6515 114.234 48.646 113.985 48.6404C113.734 48.6348 113.538 48.6348 113.382 48.6348C113.382 48.71 113.382 48.7879 113.376 48.877V51.5969C113.382 51.9003 113.388 52.1314 113.399 52.2929H114.262C114.583 52.2929 114.887 52.2873 115.197 52.2734C115.493 52.2567 115.778 52.2428 116.049 52.2149C116.314 52.201 116.554 52.1648 116.753 52.1231C116.736 52.1815 116.725 52.2483 116.725 52.3151C116.719 52.3875 116.719 52.4488 116.719 52.5128C116.719 52.6437 116.73 52.7522 116.753 52.8302C116.381 52.8163 116.007 52.8051 115.641 52.8051H113.382C113.016 52.8051 112.636 52.8163 112.254 52.8302C112.276 52.3012 112.299 51.7779 112.321 51.2517C112.346 50.7255 112.352 50.191 112.352 49.6482V47.524C112.352 46.9812 112.346 46.4411 112.321 45.9094" fill="url(#paint19_linear_126_2902)"/>
<path d="M120.78 45.9317C120.758 45.4111 120.736 44.8766 120.708 44.3281C120.948 44.3476 121.177 44.3587 121.411 44.3699C121.643 44.3894 121.883 44.3894 122.121 44.3894C122.358 44.3894 122.598 44.3782 122.833 44.3587C123.064 44.3393 123.293 44.3281 123.542 44.3281C123.883 44.3281 124.221 44.3643 124.539 44.4311C124.846 44.4979 125.122 44.6009 125.351 44.7568C125.592 44.9127 125.779 45.1104 125.916 45.3582C126.055 45.6087 126.125 45.915 126.125 46.2852C126.125 46.6805 126.036 47.0285 125.851 47.3069C125.675 47.5964 125.458 47.8303 125.206 48.014C124.944 48.2005 124.673 48.3453 124.374 48.4511C124.078 48.5485 123.813 48.6181 123.573 48.6543C123.673 48.7768 123.804 48.955 123.986 49.1721C124.156 49.3948 124.346 49.6315 124.57 49.9126C124.782 50.1771 125.002 50.4611 125.231 50.7534C125.469 51.0401 125.684 51.3269 125.907 51.5913C126.122 51.8642 126.329 52.1064 126.519 52.3263C126.703 52.5518 126.857 52.7188 126.974 52.833C126.851 52.8218 126.725 52.8079 126.605 52.8079H125.868C125.748 52.8079 125.628 52.8218 125.511 52.833C125.388 52.6659 125.195 52.4014 124.944 52.0507C124.692 51.711 124.419 51.3408 124.106 50.9455C123.802 50.5474 123.489 50.1521 123.165 49.7595C122.849 49.3642 122.562 49.0329 122.285 48.7601H121.816V49.6677C121.816 50.2105 121.83 50.7478 121.853 51.2823C121.878 51.8085 121.894 52.3263 121.922 52.833C121.727 52.8218 121.526 52.8079 121.311 52.8079C121.096 52.8079 120.884 52.8218 120.699 52.833C120.727 52.3263 120.749 51.8057 120.772 51.2823C120.791 50.7478 120.8 50.2105 120.8 49.6677V47.5352C120.8 46.9951 120.794 46.4634 120.772 45.9317M122.204 48.2952C122.333 48.3035 122.486 48.3035 122.66 48.3035C122.914 48.3035 123.176 48.2701 123.461 48.22C123.74 48.1616 123.989 48.0586 124.229 47.9166C124.458 47.7718 124.645 47.5714 124.804 47.3292C124.958 47.087 125.025 46.7752 125.025 46.4133C125.025 46.0903 124.972 45.8147 124.852 45.6115C124.729 45.4027 124.575 45.2301 124.388 45.1076C124.195 44.9823 123.992 44.9016 123.768 44.8515C123.545 44.8181 123.327 44.7847 123.115 44.7847C122.816 44.7847 122.579 44.7986 122.397 44.8042C122.199 44.8181 122.037 44.8348 121.906 44.8459C121.892 45.2997 121.872 45.7535 121.864 46.1989C121.841 46.6471 121.827 47.087 121.827 47.5352V48.2423C121.945 48.2674 122.07 48.2841 122.21 48.2952" fill="url(#paint20_linear_126_2902)"/>
<path d="M120.78 45.9317C120.758 45.4111 120.736 44.8766 120.708 44.3281C120.948 44.3476 121.177 44.3587 121.411 44.3699C121.643 44.3894 121.883 44.3894 122.121 44.3894C122.358 44.3894 122.598 44.3782 122.833 44.3587C123.064 44.3393 123.293 44.3281 123.542 44.3281C123.883 44.3281 124.221 44.3643 124.539 44.4311C124.846 44.4979 125.122 44.6009 125.351 44.7568C125.592 44.9127 125.779 45.1104 125.916 45.3582C126.055 45.6087 126.125 45.915 126.125 46.2852C126.125 46.6805 126.036 47.0285 125.851 47.3069C125.675 47.5964 125.458 47.8303 125.206 48.014C124.944 48.2005 124.673 48.3453 124.374 48.4511C124.078 48.5485 123.813 48.6181 123.573 48.6543C123.673 48.7768 123.804 48.955 123.986 49.1721C124.156 49.3948 124.346 49.6315 124.57 49.9126C124.782 50.1771 125.002 50.4611 125.231 50.7534C125.469 51.0401 125.684 51.3269 125.907 51.5913C126.122 51.8642 126.329 52.1064 126.519 52.3263C126.703 52.5518 126.857 52.7188 126.974 52.833C126.851 52.8218 126.725 52.8079 126.605 52.8079H125.868C125.748 52.8079 125.628 52.8218 125.511 52.833C125.388 52.6659 125.195 52.4014 124.944 52.0507C124.692 51.711 124.419 51.3408 124.106 50.9455C123.802 50.5474 123.489 50.1521 123.165 49.7595C122.849 49.3642 122.562 49.0329 122.285 48.7601H121.816V49.6677C121.816 50.2105 121.83 50.7478 121.853 51.2823C121.878 51.8085 121.894 52.3263 121.922 52.833C121.727 52.8218 121.526 52.8079 121.311 52.8079C121.096 52.8079 120.884 52.8218 120.699 52.833C120.727 52.3263 120.749 51.8057 120.772 51.2823C120.791 50.7478 120.8 50.2105 120.8 49.6677V47.5352C120.8 46.9951 120.794 46.4634 120.772 45.9317M122.204 48.2952C122.333 48.3035 122.486 48.3035 122.66 48.3035C122.914 48.3035 123.176 48.2701 123.461 48.22C123.74 48.1616 123.989 48.0586 124.229 47.9166C124.458 47.7718 124.645 47.5714 124.804 47.3292C124.958 47.087 125.025 46.7752 125.025 46.4133C125.025 46.0903 124.972 45.8147 124.852 45.6115C124.729 45.4027 124.575 45.2301 124.388 45.1076C124.195 44.9823 123.992 44.9016 123.768 44.8515C123.545 44.8181 123.327 44.7847 123.115 44.7847C122.816 44.7847 122.579 44.7986 122.397 44.8042C122.199 44.8181 122.037 44.8348 121.906 44.8459C121.892 45.2997 121.872 45.7535 121.864 46.1989C121.841 46.6471 121.827 47.087 121.827 47.5352V48.2423C121.945 48.2674 122.07 48.2841 122.21 48.2952" fill="url(#paint21_linear_126_2902)"/>
<path d="M132.496 27.9804C132.496 29.339 132.574 30.4553 132.727 31.3156C132.903 32.1758 133.163 32.8495 133.532 33.3144C133.897 33.7905 134.408 34.1023 135.037 34.2916C135.679 34.4669 136.475 34.5588 137.438 34.5421V28.5511C137.433 28.3674 137.433 28.1753 137.438 27.9804V16.4662H137.388C137.282 15.1049 137.03 13.9356 136.64 12.9585C136.115 11.6779 135.408 10.6701 134.523 9.95744C133.646 9.22806 132.641 8.71303 131.541 8.42351C130.44 8.1312 129.298 7.992 128.117 8.00035C127.02 8.00592 126.017 8.15069 125.109 8.39567C124.199 8.66571 123.409 9.00534 122.714 9.41736C122.021 9.83495 121.44 10.2637 120.991 10.7314H120.714C120.454 10.0465 119.938 9.51201 119.206 9.12505C118.466 8.74644 117.422 8.55157 116.051 8.546V14.5787C116.056 14.7402 116.056 14.9156 116.051 15.091V28.1029C116.056 29.4058 116.137 30.4693 116.28 31.3072C116.453 32.1674 116.71 32.8411 117.092 33.3061C117.45 33.7821 117.966 34.0939 118.592 34.2832C119.24 34.4586 120.036 34.5505 120.991 34.5338V13.3622C121.44 12.8471 121.957 12.3739 122.535 11.9312C123.099 11.4969 123.727 11.1322 124.375 10.8789C125.048 10.6089 125.743 10.478 126.478 10.4613C127.232 10.4502 127.975 10.5783 128.687 10.8483C129.41 11.11 130.047 11.5359 130.625 12.1066C131.194 12.6801 131.644 13.4485 131.985 14.3811C132.32 15.3304 132.493 16.4801 132.496 17.8415V27.9777V27.9804Z" fill="url(#paint22_linear_126_2902)"/>
<path d="M79.6377 11.0458H85.0746C85.7168 11.0207 86.2586 10.9818 86.7082 10.9038C87.3588 10.7952 87.8698 10.6199 88.2245 10.3637C88.5763 10.1187 88.8137 9.77354 88.9589 9.35317C89.1041 8.93002 89.1627 8.97456 89.1516 8.34262V8.31478H85.2756C85.2142 8.31478 85.1556 8.32034 85.083 8.32591L85.0718 8.31478H79.6349V6.2519C79.6042 5.39446 79.5455 4.66508 79.4534 4.0554C79.2914 3.19239 79.0596 2.50198 78.719 2.02872C78.3922 1.5471 77.9287 1.22417 77.3535 1.04321C76.7866 0.853909 76.0605 0.77596 75.1893 0.781527H75.1502V5.97351C75.1614 6.05703 75.1698 6.14333 75.1698 6.2352L75.1502 6.24912V8.31199C74.0276 8.6572 72.8939 8.6739 72.4499 9.99626C72.327 10.4278 72.2516 10.3749 72.2628 11.0124V11.0458H74.0695C74.1338 11.0374 74.2008 11.0347 74.265 11.0291L74.2734 11.0458H75.153V29.3082H75.1586V29.4279L75.1614 29.4669V29.581L75.1698 29.62V29.7397L75.1781 29.7759V29.8121H75.1837V29.9569L75.1893 29.9931V30.1378L75.2033 30.174V30.3104L75.2116 30.3522L75.2172 30.3856V30.419L75.2228 30.4524V30.5248L75.2256 30.5498L75.2368 30.5888V30.6918L75.2424 30.7252L75.2479 30.7531V30.8199L75.2563 30.8477L75.2619 30.8839V30.9145L75.2675 30.9479V31.0509L75.287 31.0649V31.1623L75.2982 31.1929H75.301V31.2263L75.3066 31.2542V31.282L75.3122 31.3182L75.3233 31.346V31.3739L75.3289 31.4017V31.4379L75.3401 31.4657V31.5019L75.3457 31.5381L75.3568 31.5882V31.6244L75.368 31.6662L75.3848 31.6996V31.7358V31.7803L75.3987 31.8137L75.4099 31.8527L75.4155 31.8861L75.4239 31.9279L75.435 31.9641L75.449 32.003L75.4602 32.0392V32.0754L75.4685 32.1144L75.4797 32.1478L75.4909 32.184L75.5021 32.2202L75.5076 32.2564L75.5188 32.2898L75.53 32.3315L75.5356 32.3594L75.5467 32.3956L75.5663 32.4262V32.4624L75.5858 32.4958V32.5236L75.6026 32.557L75.6165 32.5904L75.6221 32.6266L75.6361 32.6545L75.6417 32.6851L75.6612 32.7129L75.6668 32.7491L75.678 32.7742H75.6836L75.6891 32.802L75.7059 32.8382L75.7143 32.866L75.7254 32.8939L75.7366 32.9217L75.7478 32.9523L75.7673 32.9858L75.7813 33.0136L75.7925 33.0359L75.7981 33.0637L75.8176 33.1027L75.8288 33.1249L75.8399 33.15L75.8623 33.1723L75.8679 33.1973L75.8874 33.228L75.9014 33.2474L75.9125 33.2808L75.9265 33.3003L75.9377 33.3254L75.96 33.3504L75.9712 33.3727L75.9796 33.4006L75.9991 33.4256L76.0187 33.4423L76.0298 33.4618L76.0522 33.498H76.055L76.0661 33.5175L76.0857 33.537L76.0969 33.5648L76.1108 33.5843L76.122 33.5982H76.1332L76.1499 33.6205L76.1611 33.64L76.175 33.6595L76.189 33.6873L76.2113 33.7068L76.2253 33.7207L76.2449 33.7458L76.2616 33.7625L76.2895 33.7819L76.2979 33.807L76.3174 33.8237L76.337 33.8376L76.3482 33.8599L76.3705 33.871L76.3928 33.8961L76.4096 33.9156L76.4292 33.9295L76.4487 33.949L76.4682 33.9657L76.4822 33.9824L76.5101 33.9991L76.5269 34.0186L76.5492 34.0353L76.5632 34.0492L76.5799 34.0603L76.6079 34.0743L76.633 34.091L76.6525 34.1104L76.6721 34.1244L76.7 34.1383L76.7252 34.1522L76.7419 34.1661L76.767 34.18L76.7894 34.1912L76.8117 34.2162L76.8313 34.2274L76.8564 34.2413L76.8787 34.2469L76.8983 34.2663L76.9234 34.2719L76.9569 34.2831L76.9737 34.2998L77.0016 34.3109L77.0212 34.322L77.0491 34.3332L77.0742 34.3443L77.0993 34.3582L77.1189 34.3694H77.1245L77.144 34.3805L77.1719 34.3916L77.1915 34.4028L77.2194 34.4111L77.2501 34.4222L77.2725 34.4334L77.3032 34.4473H77.3311L77.3562 34.4612L77.3842 34.4668L77.4121 34.4779L77.4428 34.4835L77.4679 34.4946L77.4959 34.5058L77.5182 34.5113L77.5489 34.5252L77.5796 34.5308H77.6048L77.6132 34.5336L77.6299 34.5392L77.655 34.5503H77.6913L77.7193 34.5614H77.7304L77.7528 34.567L77.7779 34.5781L77.8058 34.5837L77.8449 34.5893L77.8673 34.5976L77.9064 34.6032L77.9371 34.6088L77.9566 34.6199H77.9929L78.0292 34.6255L78.0544 34.631H78.0879L78.1158 34.6366L78.1521 34.645H78.1884H78.2275L78.2526 34.6561H78.2861L78.3196 34.6617L78.3559 34.6672L78.3867 34.6728H78.4202L78.4509 34.6784L78.49 34.6839H78.5598L78.5933 34.6895H78.6268L78.6659 34.6923L78.6938 34.7034H78.7692L78.8027 34.709H78.8753L78.9172 34.7173H79.0261L79.0708 34.7201H82.8322L82.8741 34.7257H83.1422C80.7965 33.8488 79.9951 32.6934 79.7354 30.7197C79.5818 29.5421 79.6181 28.0527 79.6181 26.1596V11.0291L79.6377 11.0458Z" fill="url(#paint23_linear_126_2902)"/>
<path d="M94.3538 34.4613C95.4624 34.7536 96.5989 34.8872 97.7746 34.8844C98.872 34.8761 99.8829 34.7397 100.776 34.4836C101.681 34.2191 102.48 33.8795 103.184 33.4702C103.879 33.0499 104.449 32.6156 104.906 32.1479H105.183C105.429 32.8049 105.898 33.3143 106.585 33.6957C106.833 33.8628 107.121 33.9908 107.442 34.0799C108.087 34.2581 108.883 34.3472 109.841 34.3388V16.2518H109.785C109.684 14.8904 109.433 13.7295 109.037 12.7552C108.514 11.4634 107.813 10.4668 106.928 9.74856C106.046 9.01918 105.041 8.50972 103.937 8.22298C102.837 7.9251 101.692 7.79147 100.517 7.79704C99.4193 7.80539 98.414 7.9418 97.5149 8.20349C96.6045 8.46518 95.8115 8.79925 95.1106 9.20848C94.4515 9.6038 93.9126 10.0186 93.463 10.4473V13.0725C93.9042 12.5826 94.3901 12.1344 94.929 11.7251C95.4903 11.2908 96.113 10.9262 96.7804 10.67C97.4395 10.4083 98.132 10.2664 98.8692 10.2552C99.6343 10.2497 100.366 10.3749 101.081 10.6394C101.804 10.9067 102.452 11.3298 103.022 11.8977C103.591 12.4712 104.046 13.2368 104.387 14.1861C104.722 15.1159 104.895 16.2768 104.904 17.6437V20.4248C104.446 19.9599 103.876 19.5173 103.181 19.1025C102.477 18.6877 101.681 18.3564 100.774 18.0947C99.8801 17.8414 98.8692 17.6994 97.7718 17.6938C96.5961 17.6799 95.4596 17.8163 94.351 18.1114C93.2508 18.4009 92.2511 18.9187 91.3659 19.6426C87.2442 22.9916 87.2358 29.5839 91.3659 32.9385C92.2511 33.6623 93.2536 34.1746 94.351 34.4641M97.2105 20.5334C97.9198 20.2745 98.6625 20.1409 99.4193 20.1464C100.157 20.1604 100.846 20.294 101.516 20.5613C102.178 20.8229 102.798 21.1765 103.359 21.6136C103.937 22.0562 104.449 22.5239 104.904 23.0445V29.5171C104.446 30.0432 103.937 30.5165 103.359 30.9536C102.798 31.3906 102.175 31.7498 101.516 32.0087C100.846 32.2759 100.157 32.4123 99.4193 32.4207C98.6653 32.4263 97.9225 32.301 97.2105 32.0365C91.8015 30.0655 91.8015 22.51 97.2105 20.5334Z" fill="url(#paint24_linear_126_2902)"/>
<path d="M147.082 9.3259C146.755 8.83872 146.297 8.52692 145.73 8.3404C145.146 8.15109 144.42 8.07036 143.549 8.07871H143.516V13.2679C143.521 13.357 143.53 13.4405 143.53 13.5352L143.516 13.5547V28.9942C143.535 29.8489 143.608 30.5755 143.697 31.1796C143.859 32.0565 144.096 32.7441 144.426 33.2118C144.761 33.699 145.225 34.0191 145.797 34.2085C146.372 34.3894 147.084 34.4674 147.961 34.4618H147.998V29.2642C147.992 29.1863 147.984 29.1 147.978 29.0109L147.998 28.9942V13.5547C147.972 12.6944 147.908 11.965 147.805 11.3498C147.662 10.4812 147.419 9.80195 147.079 9.32868" fill="url(#paint25_linear_126_2902)"/>
<path d="M143.613 5.74045C144.085 6.05781 144.596 6.21928 145.166 6.23598C145.942 6.22206 146.554 6.00492 147 5.58176C147.45 5.14469 147.673 4.54615 147.687 3.76109C147.673 3.13471 147.548 2.55844 147.266 2.02672C146.992 1.50612 146.626 1.0774 146.168 0.757254C145.702 0.434321 145.191 0.27007 144.621 0.261719C143.839 0.27007 143.225 0.489999 142.778 0.913153C142.331 1.34744 142.111 1.95155 142.1 2.72826C142.114 3.35464 142.25 3.93369 142.518 4.46263C142.795 4.98879 143.161 5.40916 143.613 5.74323" fill="url(#paint26_linear_126_2902)"/>
<path d="M33.6802 9.4451C32.3091 10.1884 31.1334 11.1739 30.1477 12.3738C29.1117 13.6321 28.3466 15.0686 27.7965 16.6025C27.2128 18.2367 26.9336 19.9293 26.9336 21.6637C26.9336 23.2588 27.1458 24.8429 27.6038 26.3768C28.0143 27.8161 28.6454 29.1802 29.5362 30.3996C30.3851 31.5772 31.449 32.5209 32.7028 33.228C34.0376 33.9797 35.4897 34.3026 37.0088 34.3026C38.5279 34.3026 39.9995 33.924 41.3454 33.1974C42.7193 32.4569 43.9089 31.4797 44.9002 30.2854C45.9558 29.0354 46.7433 27.5989 47.3073 26.0678C47.9021 24.4364 48.1897 22.741 48.1897 21.0122C48.1897 19.4421 47.9719 17.8887 47.5559 16.3742C47.1398 14.9294 46.5199 13.5625 45.6458 12.3237C44.8025 11.1433 43.7525 10.1773 42.4904 9.45623C41.1472 8.67396 39.6532 8.35938 38.1062 8.35938C36.5592 8.35938 35.0652 8.72128 33.6802 9.45067M40.9657 12.9389C41.4879 13.4038 41.9263 13.9383 42.3033 14.5202C42.711 15.1549 43.046 15.8286 43.3225 16.5357C43.599 17.2874 43.8168 18.0669 43.9592 18.8575C44.1183 19.6815 44.191 20.5 44.191 21.3352C44.191 22.7605 44.0625 24.2165 43.6855 25.589C43.3783 26.6524 42.9483 27.7103 42.2809 28.6012C41.7252 29.3361 41.0411 29.9597 40.2061 30.3662C39.3712 30.781 38.4916 30.9619 37.5617 30.9619C36.6318 30.9619 35.8443 30.703 35.0792 30.2186C34.2359 29.6702 33.535 28.9491 32.9653 28.114C32.3007 27.148 31.8176 26.0622 31.4741 24.9459C31.1027 23.7015 30.924 22.4125 30.924 21.1013C30.924 19.7901 31.058 18.3898 31.3987 17.0814C31.6836 16.0151 32.0996 14.9795 32.7335 14.0692C33.2753 13.2897 33.951 12.6605 34.7943 12.2067C35.6544 11.7446 36.5927 11.5553 37.5617 11.5553C38.1872 11.5553 38.7959 11.675 39.3712 11.92C39.9604 12.1733 40.4937 12.5213 40.9685 12.9361" fill="url(#paint27_linear_126_2902)"/>
<path d="M7.68483 0.00186756H0V6.63313C0.0111698 9.13029 0.0111698 11.6469 0.0195472 14.1497L0 14.1552V17.1841C0.0195472 17.173 0.0502642 17.1563 0.0753962 17.1424C0.086566 19.9903 0.0418868 23.5287 0.0502642 26.3822C0.0642264 37.8435 23.9313 37.1308 23.5543 24.9206C23.5823 21.179 21.5745 18.487 18.5056 17.1535C17.5031 16.7192 16.4978 16.5021 15.4534 16.2877L13.7445 16.7582C17.9387 17.5572 19.8515 21.1818 19.5891 24.7202C19.3405 28.0664 17.0591 31.3459 11.6473 31.7941C8.10928 32.0919 4.66619 30.0179 4.69132 25.92C4.69411 22.7185 4.74158 19.6117 4.65502 16.4102C5.83343 16.5216 6.93645 16.8111 8.09253 16.8111C14.1857 16.786 19.5332 14.957 19.8236 8.22274C19.9995 4.29187 16.8552 0.469564 10.5946 0.11044C9.56415 0.0297066 8.59517 -0.00926807 7.68483 0.00186756ZM16.2353 8.57908C15.8332 14.8763 7.84679 15.0238 4.62989 14.1469V2.30694C4.98732 2.22621 5.38106 2.13434 5.81109 2.06196C10.0863 1.28525 16.6486 2.2457 16.2353 8.57908Z" fill="url(#paint28_linear_126_2902)"/>
<path d="M59.9645 31.9942C59.2608 32.2224 58.5404 32.3282 57.7948 32.3199C57.0687 32.3199 56.3818 32.2002 55.72 31.9747C55.0721 31.752 54.4466 31.4457 53.8686 31.0671C53.3185 30.7275 52.8298 30.3377 52.3858 29.9257L52.4584 32.1556C52.9024 32.5287 53.4693 32.8767 54.1311 33.2163C54.8236 33.5615 55.6139 33.8538 56.5186 34.0765C57.4122 34.2909 58.4091 34.4162 59.487 34.4217C60.6459 34.4273 61.7656 34.3132 62.8491 34.0654C63.9214 33.8176 64.8848 33.3833 65.7365 32.7597C69.7018 29.9007 69.5091 24.2855 65.3484 21.4237C62.0588 19.1437 56.5075 20.4131 56.4348 15.1432C56.4097 13.2529 57.5993 11.3766 60.0511 10.5915C61.344 10.1711 62.7905 10.1823 64.0694 10.6138C64.9658 10.9228 66.0074 11.4768 66.7111 12.1393L67.7164 10.984C64.6056 8.40892 61.2742 7.71851 57.3173 8.6372C56.3036 8.87383 55.3961 9.28028 54.589 9.86768C50.836 12.5764 51.0203 17.8909 54.9493 20.5941C57.4653 22.3368 60.6738 21.6909 62.6788 24.1881C63.5333 25.246 63.8935 26.5294 63.7567 27.7543C63.5584 29.5499 62.299 31.2425 59.9645 31.9914" fill="url(#paint29_linear_126_2902)"/>
</g>
<defs>
<linearGradient id="paint0_linear_126_2902" x1="-22.304" y1="-194.889" x2="57.861" y2="223.25" gradientUnits="userSpaceOnUse">
<stop stop-color="#C69B50"/>
<stop offset="0.28" stop-color="#F7D287"/>
<stop offset="0.53" stop-color="#C69B50"/>
<stop offset="1" stop-color="#8B6D35"/>
</linearGradient>
<linearGradient id="paint1_linear_126_2902" x1="-22.304" y1="-194.889" x2="57.861" y2="223.25" gradientUnits="userSpaceOnUse">
<stop stop-color="#C69B50"/>
<stop offset="0.28" stop-color="#F7D287"/>
<stop offset="0.53" stop-color="#C69B50"/>
<stop offset="1" stop-color="#8B6D35"/>
</linearGradient>
<linearGradient id="paint2_linear_126_2902" x1="-11.8486" y1="-196.894" x2="68.3164" y2="221.245" gradientUnits="userSpaceOnUse">
<stop stop-color="#C69B50"/>
<stop offset="0.28" stop-color="#F7D287"/>
<stop offset="0.53" stop-color="#C69B50"/>
<stop offset="1" stop-color="#8B6D35"/>
</linearGradient>
<linearGradient id="paint3_linear_126_2902" x1="-11.8486" y1="-196.894" x2="68.3164" y2="221.245" gradientUnits="userSpaceOnUse">
<stop stop-color="#C69B50"/>
<stop offset="0.28" stop-color="#F7D287"/>
<stop offset="0.53" stop-color="#C69B50"/>
<stop offset="1" stop-color="#8B6D35"/>
</linearGradient>
<linearGradient id="paint4_linear_126_2902" x1="-0.0457455" y1="-199.158" x2="80.1193" y2="218.982" gradientUnits="userSpaceOnUse">
<stop stop-color="#C69B50"/>
<stop offset="0.28" stop-color="#F7D287"/>
<stop offset="0.53" stop-color="#C69B50"/>
<stop offset="1" stop-color="#8B6D35"/>
</linearGradient>
<linearGradient id="paint5_linear_126_2902" x1="-0.0457455" y1="-199.158" x2="80.1193" y2="218.982" gradientUnits="userSpaceOnUse">
<stop stop-color="#C69B50"/>
<stop offset="0.28" stop-color="#F7D287"/>
<stop offset="0.53" stop-color="#C69B50"/>
<stop offset="1" stop-color="#8B6D35"/>
</linearGradient>
<linearGradient id="paint6_linear_126_2902" x1="11.4542" y1="-201.361" x2="91.6193" y2="216.778" gradientUnits="userSpaceOnUse">
<stop stop-color="#C69B50"/>
<stop offset="0.28" stop-color="#F7D287"/>
<stop offset="0.53" stop-color="#C69B50"/>
<stop offset="1" stop-color="#8B6D35"/>
</linearGradient>
<linearGradient id="paint7_linear_126_2902" x1="11.4542" y1="-201.361" x2="91.6193" y2="216.778" gradientUnits="userSpaceOnUse">
<stop stop-color="#C69B50"/>
<stop offset="0.28" stop-color="#F7D287"/>
<stop offset="0.53" stop-color="#C69B50"/>
<stop offset="1" stop-color="#8B6D35"/>
</linearGradient>
<linearGradient id="paint8_linear_126_2902" x1="22.2359" y1="-203.428" x2="102.401" y2="214.708" gradientUnits="userSpaceOnUse">
<stop stop-color="#C69B50"/>
<stop offset="0.28" stop-color="#F7D287"/>
<stop offset="0.53" stop-color="#C69B50"/>
<stop offset="1" stop-color="#8B6D35"/>
</linearGradient>
<linearGradient id="paint9_linear_126_2902" x1="22.2359" y1="-203.428" x2="102.401" y2="214.708" gradientUnits="userSpaceOnUse">
<stop stop-color="#C69B50"/>
<stop offset="0.28" stop-color="#F7D287"/>
<stop offset="0.53" stop-color="#C69B50"/>
<stop offset="1" stop-color="#8B6D35"/>
</linearGradient>
<linearGradient id="paint10_linear_126_2902" x1="31.949" y1="-205.291" x2="112.114" y2="212.846" gradientUnits="userSpaceOnUse">
<stop stop-color="#C69B50"/>
<stop offset="0.28" stop-color="#F7D287"/>
<stop offset="0.53" stop-color="#C69B50"/>
<stop offset="1" stop-color="#8B6D35"/>
</linearGradient>
<linearGradient id="paint11_linear_126_2902" x1="31.949" y1="-205.291" x2="112.114" y2="212.846" gradientUnits="userSpaceOnUse">
<stop stop-color="#C69B50"/>
<stop offset="0.28" stop-color="#F7D287"/>
<stop offset="0.53" stop-color="#C69B50"/>
<stop offset="1" stop-color="#8B6D35"/>
</linearGradient>
<linearGradient id="paint12_linear_126_2902" x1="40.7305" y1="-206.973" x2="120.896" y2="211.167" gradientUnits="userSpaceOnUse">
<stop stop-color="#C69B50"/>
<stop offset="0.28" stop-color="#F7D287"/>
<stop offset="0.53" stop-color="#C69B50"/>
<stop offset="1" stop-color="#8B6D35"/>
</linearGradient>
<linearGradient id="paint13_linear_126_2902" x1="40.7305" y1="-206.973" x2="120.896" y2="211.167" gradientUnits="userSpaceOnUse">
<stop stop-color="#C69B50"/>
<stop offset="0.28" stop-color="#F7D287"/>
<stop offset="0.53" stop-color="#C69B50"/>
<stop offset="1" stop-color="#8B6D35"/>
</linearGradient>
<linearGradient id="paint14_linear_126_2902" x1="50.8386" y1="-208.914" x2="131.004" y2="209.223" gradientUnits="userSpaceOnUse">
<stop stop-color="#C69B50"/>
<stop offset="0.28" stop-color="#F7D287"/>
<stop offset="0.53" stop-color="#C69B50"/>
<stop offset="1" stop-color="#8B6D35"/>
</linearGradient>
<linearGradient id="paint15_linear_126_2902" x1="50.8386" y1="-208.914" x2="131.004" y2="209.223" gradientUnits="userSpaceOnUse">
<stop stop-color="#C69B50"/>
<stop offset="0.28" stop-color="#F7D287"/>
<stop offset="0.53" stop-color="#C69B50"/>
<stop offset="1" stop-color="#8B6D35"/>
</linearGradient>
<linearGradient id="paint16_linear_126_2902" x1="57.2704" y1="-210.146" x2="137.436" y2="207.993" gradientUnits="userSpaceOnUse">
<stop stop-color="#C69B50"/>
<stop offset="0.28" stop-color="#F7D287"/>
<stop offset="0.53" stop-color="#C69B50"/>
<stop offset="1" stop-color="#8B6D35"/>
</linearGradient>
<linearGradient id="paint17_linear_126_2902" x1="57.2704" y1="-210.146" x2="137.436" y2="207.993" gradientUnits="userSpaceOnUse">
<stop stop-color="#C69B50"/>
<stop offset="0.28" stop-color="#F7D287"/>
<stop offset="0.53" stop-color="#C69B50"/>
<stop offset="1" stop-color="#8B6D35"/>
</linearGradient>
<linearGradient id="paint18_linear_126_2902" x1="64.3074" y1="-211.496" x2="144.472" y2="206.643" gradientUnits="userSpaceOnUse">
<stop stop-color="#C69B50"/>
<stop offset="0.28" stop-color="#F7D287"/>
<stop offset="0.53" stop-color="#C69B50"/>
<stop offset="1" stop-color="#8B6D35"/>
</linearGradient>
<linearGradient id="paint19_linear_126_2902" x1="64.3074" y1="-211.496" x2="144.472" y2="206.643" gradientUnits="userSpaceOnUse">
<stop stop-color="#C69B50"/>
<stop offset="0.28" stop-color="#F7D287"/>
<stop offset="0.53" stop-color="#C69B50"/>
<stop offset="1" stop-color="#8B6D35"/>
</linearGradient>
<linearGradient id="paint20_linear_126_2902" x1="72.7696" y1="-213.119" x2="152.935" y2="205.02" gradientUnits="userSpaceOnUse">
<stop stop-color="#C69B50"/>
<stop offset="0.28" stop-color="#F7D287"/>
<stop offset="0.53" stop-color="#C69B50"/>
<stop offset="1" stop-color="#8B6D35"/>
</linearGradient>
<linearGradient id="paint21_linear_126_2902" x1="72.7696" y1="-213.119" x2="152.935" y2="205.02" gradientUnits="userSpaceOnUse">
<stop stop-color="#C69B50"/>
<stop offset="0.28" stop-color="#F7D287"/>
<stop offset="0.53" stop-color="#C69B50"/>
<stop offset="1" stop-color="#8B6D35"/>
</linearGradient>
<linearGradient id="paint22_linear_126_2902" x1="80.8659" y1="-214.662" x2="161.031" y2="203.474" gradientUnits="userSpaceOnUse">
<stop stop-color="#C69B50"/>
<stop offset="0.28" stop-color="#F7D287"/>
<stop offset="0.53" stop-color="#C69B50"/>
<stop offset="1" stop-color="#8B6D35"/>
</linearGradient>
<linearGradient id="paint23_linear_126_2902" x1="38.5607" y1="-206.555" x2="118.726" y2="211.584" gradientUnits="userSpaceOnUse">
<stop stop-color="#C69B50"/>
<stop offset="0.28" stop-color="#F7D287"/>
<stop offset="0.53" stop-color="#C69B50"/>
<stop offset="1" stop-color="#8B6D35"/>
</linearGradient>
<linearGradient id="paint24_linear_126_2902" x1="54.4636" y1="-209.606" x2="134.629" y2="208.533" gradientUnits="userSpaceOnUse">
<stop stop-color="#C69B50"/>
<stop offset="0.28" stop-color="#F7D287"/>
<stop offset="0.53" stop-color="#C69B50"/>
<stop offset="1" stop-color="#8B6D35"/>
</linearGradient>
<linearGradient id="paint25_linear_126_2902" x1="99.5541" y1="-218.25" x2="179.719" y2="199.889" gradientUnits="userSpaceOnUse">
<stop stop-color="#C69B50"/>
<stop offset="0.28" stop-color="#F7D287"/>
<stop offset="0.53" stop-color="#C69B50"/>
<stop offset="1" stop-color="#8B6D35"/>
</linearGradient>
<linearGradient id="paint26_linear_126_2902" x1="102.075" y1="-218.734" x2="182.24" y2="199.405" gradientUnits="userSpaceOnUse">
<stop stop-color="#C69B50"/>
<stop offset="0.28" stop-color="#F7D287"/>
<stop offset="0.53" stop-color="#C69B50"/>
<stop offset="1" stop-color="#8B6D35"/>
</linearGradient>
<linearGradient id="paint27_linear_126_2902" x1="-4.79427" y1="-198.243" x2="75.3708" y2="219.897" gradientUnits="userSpaceOnUse">
<stop stop-color="#C69B50"/>
<stop offset="0.28" stop-color="#F7D287"/>
<stop offset="0.53" stop-color="#C69B50"/>
<stop offset="1" stop-color="#8B6D35"/>
</linearGradient>
<linearGradient id="paint28_linear_126_2902" x1="-30.4126" y1="-193.332" x2="49.7524" y2="224.807" gradientUnits="userSpaceOnUse">
<stop stop-color="#C69B50"/>
<stop offset="0.28" stop-color="#F7D287"/>
<stop offset="0.53" stop-color="#C69B50"/>
<stop offset="1" stop-color="#8B6D35"/>
</linearGradient>
<linearGradient id="paint29_linear_126_2902" x1="16.8853" y1="-202.397" x2="97.0504" y2="215.742" gradientUnits="userSpaceOnUse">
<stop stop-color="#C69B50"/>
<stop offset="0.28" stop-color="#F7D287"/>
<stop offset="0.53" stop-color="#C69B50"/>
<stop offset="1" stop-color="#8B6D35"/>
</linearGradient>
<clipPath id="clip0_126_2902">
<rect width="148" height="53" fill="white"/>
</clipPath>
</defs>
</svg>
