<svg width="36" height="28" viewBox="0 0 36 28" fill="none" xmlns="http://www.w3.org/2000/svg">
<mask id="mask0_384_2263" style="mask-type:luminance" maskUnits="userSpaceOnUse" x="0" y="0" width="36" height="28">
<path d="M0.0976562 0.75H35.4275V27.25H0.0976562V0.75Z" fill="white"/>
</mask>
<g mask="url(#mask0_384_2263)">
<path fill-rule="evenodd" clip-rule="evenodd" d="M-2.1123 0.75H37.6377V27.25H-2.1123V0.75Z" fill="#165D31"/>
<path fill-rule="evenodd" clip-rule="evenodd" d="M7.90221 8.26015C7.86081 8.88124 7.7987 9.96815 8.3318 10.082C8.96843 10.1441 8.61647 9.00546 8.84938 8.79843C8.89079 8.69491 8.96842 8.69491 8.9736 8.82431V9.79218C8.9736 10.1027 9.18063 10.1959 9.33591 10.258C9.50153 10.2476 9.6154 10.258 9.67751 10.4133L9.76032 12.085C9.76032 12.085 10.1433 12.1989 10.164 11.1482C10.1796 10.5271 10.0398 10.0147 10.1226 9.89569C10.1226 9.77665 10.2779 9.77147 10.3814 9.82841C10.547 9.94227 10.6195 10.0872 10.8783 10.0354C11.2716 9.92157 11.5097 9.73007 11.5149 9.42987C11.5071 9.13486 11.4458 8.84373 11.3338 8.57069C11.3545 8.51893 11.2613 8.37919 11.282 8.32743C11.3493 8.4413 11.458 8.43095 11.4787 8.32743C11.4114 8.11005 11.3079 7.89784 11.1423 7.80985C11.0025 7.68563 10.7955 7.70634 10.7282 7.96513C10.6868 8.26014 10.8317 8.60692 11.0439 8.89677C11.0905 9.00546 11.1526 9.19179 11.1267 9.35741C11.0129 9.4247 10.899 9.39364 10.8007 9.2953C10.8007 9.2953 10.4901 9.06239 10.4901 9.00546C10.5729 8.47753 10.5056 8.41542 10.4591 8.26532C10.428 8.06347 10.3297 7.99618 10.252 7.86161C10.1744 7.7788 10.0709 7.7788 10.0191 7.86161C9.87936 8.0997 9.94665 8.6121 10.045 8.84501C10.1174 9.05722 10.2261 9.19179 10.1744 9.19179C10.133 9.31083 10.045 9.27977 9.9777 9.14003C9.90196 8.84593 9.86541 8.54311 9.86901 8.23944C9.84313 8.00136 9.81208 7.49413 9.65163 7.35956C9.55846 7.23534 9.41872 7.29745 9.36696 7.41132C9.35329 7.64254 9.35849 7.87449 9.38249 8.10487C9.486 8.48788 9.52223 8.82948 9.57399 9.21766C9.58952 9.74042 9.2738 9.4454 9.28932 9.18143C9.35722 8.84959 9.35192 8.50692 9.2738 8.17733C9.22204 8.04276 9.1651 8.01171 9.03571 8.03241C8.93737 8.03241 8.68376 8.30673 8.6113 8.77255C8.6113 8.77255 8.54919 9.01063 8.52331 9.22284C8.48708 9.46093 8.3318 9.6369 8.21794 9.19179C8.12477 8.86571 8.06266 8.07382 7.90739 8.26015H7.90221Z" fill="white"/>
<path fill-rule="evenodd" clip-rule="evenodd" d="M9.63672 10.8013L7.98047 11.5984C7.996 11.2206 8.76201 10.5425 9.28994 10.5374C9.62637 10.5425 9.54355 10.6667 9.63154 10.8013H9.63672Z" fill="white"/>
<path fill-rule="evenodd" clip-rule="evenodd" d="M9.3416 11.3189C8.47207 13.5703 11.386 13.8861 11.7121 11.412C11.7432 11.3085 11.8674 11.2102 11.8881 11.3758C11.8208 13.6169 9.63145 13.767 9.25879 13.0631C9.17112 12.8209 9.12731 12.565 9.1294 12.3074C9.07764 11.8675 8.84473 12.0383 8.8085 12.4731C8.77227 12.7163 8.78262 12.7836 8.78262 13.0165C8.89649 14.7866 11.7173 14.0258 12.1779 12.5662C12.4212 11.7588 12.1365 11.1636 12.2659 11.1636C12.5454 11.4638 12.9388 11.205 13.0268 11.1015C13.063 11.0497 13.1562 11.0135 13.2183 11.0808C13.4356 11.2361 13.8187 11.1636 13.9015 10.8893C13.948 10.615 13.9843 10.3355 13.9946 10.0508C13.8135 10.1026 13.6841 10.1388 13.6686 10.2164L13.6323 10.4545C13.6168 10.5322 13.4667 10.5322 13.4563 10.4338C13.3891 10.1233 13.1096 10.087 12.9388 10.5632C12.8301 10.6564 12.623 10.6771 12.6023 10.5373C12.6282 10.2164 12.4988 10.175 12.24 10.3251L11.9916 8.45149C12.0951 8.45149 12.1986 8.52913 12.297 8.40491C12.1935 8.06848 11.9605 7.38528 11.8312 7.33352C11.7742 7.26106 11.7225 7.30764 11.6396 7.32835C11.5051 7.36975 11.3809 7.48362 11.4223 7.71136C11.5775 8.6844 11.6811 9.42454 11.8415 10.4028C11.8674 10.5115 11.7742 10.6616 11.65 10.646C11.443 10.5063 11.3912 10.2216 11.0289 10.232C10.7701 10.232 10.4803 10.5166 10.444 10.7858C10.3975 11.0032 10.3819 11.2361 10.444 11.4224C10.6252 11.6398 10.8426 11.6191 11.0341 11.5725C11.1894 11.5052 11.3188 11.3499 11.3757 11.3862C11.4119 11.4327 11.3809 11.9503 10.6355 12.3437C10.1853 12.5507 9.82295 12.5921 9.63145 12.2246C9.5124 11.9917 9.6418 11.117 9.3416 11.3189Z" fill="white"/>
<path fill-rule="evenodd" clip-rule="evenodd" d="M13.0528 9.03128C13.2236 8.96917 14.0517 8.01683 14.0517 8.01683L13.9275 7.91331C13.8809 7.87708 13.8861 7.83568 13.9275 7.79944C14.1345 7.67523 14.0672 7.41644 13.9637 7.29222C13.8934 7.25796 13.8161 7.24059 13.738 7.24149C13.6598 7.24239 13.5829 7.26153 13.5134 7.29739C13.3685 7.43714 13.3374 7.6597 13.4513 7.79427C13.56 7.84603 13.6687 7.95989 13.5962 8.022C13.2546 8.38431 12.3282 9.01058 12.4369 9.03128C12.4576 9.06234 13.0321 9.06234 13.0476 9.03128H13.0528ZM8.03227 12.3955C7.72172 12.8924 7.69584 13.6325 7.86664 13.8551C7.95981 13.9586 8.10991 14.0052 8.2186 13.969C8.41528 13.8862 8.50326 13.4876 8.45668 13.3479C8.3894 13.2444 8.33764 13.2288 8.27035 13.3117C8.13578 13.5911 8.07885 13.3996 8.06332 13.2444C8.04849 12.9814 8.06237 12.7176 8.10473 12.4576C8.14096 12.2403 8.10473 12.3024 8.03227 12.3955ZM21.3392 11.6036C21.039 10.9515 20.6198 10.3097 20.4904 10.0664C20.087 9.4288 19.6588 8.80723 19.2068 8.20316C18.8859 7.82015 19.7347 8.36361 19.1033 7.59759L18.6426 7.20941C18.5391 7.13695 18.2907 7.00237 18.2493 7.21976C18.2286 7.41644 18.2389 7.51995 18.27 7.6804C18.2958 7.78392 18.4511 7.96507 18.5288 8.06859C19.5899 9.47405 20.5218 10.9725 21.3133 12.5456C21.4479 12.4784 21.4168 11.7123 21.3392 11.6036Z" fill="white"/>
<path fill-rule="evenodd" clip-rule="evenodd" d="M20.0189 13.7671C19.9568 13.8344 20.1638 14.1191 20.433 14.1191C20.8781 14.0673 21.2714 13.8189 21.6337 13.1564C21.781 12.936 21.8749 12.6844 21.9081 12.4214C21.9519 11.1649 21.8512 9.9076 21.6079 8.67414C21.5923 8.57062 21.6079 8.4464 21.6182 8.41535C21.6493 8.37912 21.7476 8.41535 21.7994 8.32736C21.877 8.24972 21.5923 7.60275 21.4371 7.35949C21.3853 7.24562 21.3594 7.17316 21.2663 7.36984C21.1538 7.58686 21.1003 7.82957 21.111 8.07375C21.3232 9.54884 21.3905 10.8376 21.5251 12.3127C21.5406 12.4576 21.5199 12.6647 21.4215 12.7475C21.031 13.1823 20.553 13.5298 20.0189 13.7671ZM26.0487 13.7619C25.7278 13.9483 25.7278 14.1605 25.9866 14.1656C26.4317 14.1139 26.9596 14.0777 27.3219 13.529C27.4499 13.2706 27.5239 12.9888 27.5393 12.7009C27.6045 11.4638 27.5228 10.2233 27.2961 9.00539C27.2857 8.90187 27.2391 8.65861 27.2546 8.62755C27.2857 8.55509 27.4306 8.63273 27.4824 8.54992C27.5548 8.47228 27.1045 7.89259 26.9441 7.64416C26.8923 7.53029 26.8716 7.45783 26.7733 7.65451C26.6691 7.87352 26.6365 8.11982 26.6801 8.35841C26.9182 9.96291 27.0942 11.1637 27.1304 12.5819C27.1097 12.7164 27.1045 12.7889 27.0424 12.9597C26.9027 13.1357 26.7474 13.3634 26.6025 13.4721C26.4576 13.5756 26.147 13.6791 26.0487 13.7619Z" fill="white"/>
<path fill-rule="evenodd" clip-rule="evenodd" d="M26.2875 12.3283C26.2875 11.9505 26.2927 11.6296 26.2823 11.3449C26.279 11.1038 26.2261 10.866 26.127 10.6462C26.0339 10.434 26.0908 10.2632 26.0442 10.0354C26.0028 9.80771 26.0132 9.46611 25.9511 9.20214C25.9304 9.09863 25.8786 8.7622 25.8941 8.72597C25.92 8.65351 26.0184 8.72597 26.0701 8.64316C26.1426 8.56552 25.8113 7.71152 25.6457 7.46826C25.5888 7.35957 25.4749 7.3958 25.3455 7.57177C25.2161 7.69082 25.2627 7.95478 25.3144 8.20839C25.6302 9.88017 25.8734 11.3967 25.8217 12.9856C25.801 13.1202 26.2875 12.5819 26.2875 12.3283ZM23.9222 10.258C23.7203 10.2477 23.3011 9.85947 23.1769 9.63691C23.1565 9.58252 23.1479 9.52445 23.1514 9.46649C23.155 9.40854 23.1707 9.35197 23.1976 9.30048C23.2752 9.24873 23.3891 9.19697 23.477 9.24873C23.477 9.24873 23.565 9.37294 23.5495 9.38847C23.653 9.44023 23.7048 9.41435 23.7151 9.36777C23.7203 9.29013 23.6841 9.24355 23.6841 9.16074C23.7307 8.92265 23.9946 8.88642 24.0981 9.03652C24.1706 9.12968 24.2017 9.32119 24.2068 9.45058C24.2068 9.51787 24.1033 9.44023 24.036 9.45058C23.9791 9.47128 23.9636 9.54375 23.9584 9.60586C23.948 9.77666 23.9273 10.051 23.9222 10.2528V10.258ZM20.206 12.7424C20.2577 12.2352 20.1852 11.3294 20.1801 11.0292C20.1524 10.2572 20.0885 9.48684 19.9886 8.7208C19.9265 8.28603 20.1645 8.76738 20.1335 8.51376C20.0559 8.08418 19.8178 7.78916 19.5331 7.40097C19.4451 7.27158 19.4451 7.2457 19.3054 7.43203C19.1501 7.7788 19.2847 8.02207 19.3261 8.29638C19.5279 9.18662 19.647 10.0044 19.7039 10.817C19.7635 11.6611 19.7704 12.5081 19.7246 13.3531C19.8799 13.3583 20.118 13.1099 20.206 12.7424Z" fill="white"/>
<path fill-rule="evenodd" clip-rule="evenodd" d="M26.9763 11.9295C26.6192 11.3291 26.0861 10.6873 25.9411 10.444C25.4612 9.77381 24.9571 9.12123 24.4298 8.48759C23.9899 8.02177 24.6368 8.40995 24.347 8.04765C24.1037 7.78368 24.0365 7.6957 23.8242 7.53525C23.7207 7.46796 23.6586 7.33857 23.6172 7.56113C23.6007 7.7539 23.5973 7.94757 23.6069 8.14081C23.6069 8.2288 23.7 8.3996 23.7828 8.50312C24.8542 9.82294 26.0291 11.1686 26.9711 12.8611C27.1057 12.7938 27.0591 12.033 26.9711 11.9295H26.9763Z" fill="white"/>
<path fill-rule="evenodd" clip-rule="evenodd" d="M10.8576 10.8274C10.8317 10.874 10.7748 10.9309 10.7955 10.9878C10.8317 11.0396 10.8679 11.0551 10.93 11.0551C10.987 11.0551 11.0698 11.0706 11.0853 11.0396C11.1164 11.0034 11.1371 10.9361 11.1164 10.8688C11.0542 10.7135 10.8886 10.7756 10.8576 10.8274Z" fill="#165D31"/>
<path fill-rule="evenodd" clip-rule="evenodd" d="M22.8451 19.5122C23.3213 19.5329 23.6318 19.5381 24.0511 19.5846L24.5479 19.5329C25.0966 19.4811 25.1173 20.3144 25.1173 20.3144C25.1173 20.8061 24.9258 20.832 24.6825 20.8838C24.5428 20.9045 24.4755 20.8009 24.3979 20.6974C24.2808 20.735 24.1561 20.7421 24.0355 20.7181C23.8337 20.7078 23.637 20.7078 23.4403 20.6923C23.2333 20.6767 23.1194 20.7181 22.9072 20.6974C22.8658 20.7647 22.8037 20.8579 22.6795 20.832C22.576 20.8165 22.4466 20.5215 22.4828 20.2885C22.5604 20.1229 22.5346 20.1799 22.5346 20.1074C20.5885 20.0556 18.6269 19.9676 16.7222 19.9935C15.2315 19.9987 13.7616 20.0608 12.2865 20.1229C11.4998 20.1126 10.8994 19.9883 10.4854 19.3828C10.5268 19.3828 12.4936 19.4915 13.0681 19.4552C14.1291 19.4449 15.1021 19.3569 16.1839 19.3258C18.3163 19.3621 20.4332 19.3621 22.5656 19.5122C22.3586 19.3724 22.3586 19.0464 22.6691 18.9635C22.695 18.9428 22.7105 19.124 22.7571 19.1188C23.0107 19.1033 22.8969 19.4449 22.8451 19.5122ZM14.274 7.7528C13.9531 8.67409 14.4604 9.68854 14.8123 9.5902C15.0711 9.69372 15.2264 9.2072 15.3299 8.67927C15.4075 8.52917 15.4593 8.51364 15.4955 8.59128C15.4852 9.29518 15.5473 9.45563 15.7284 9.66784C16.1321 9.97839 16.4686 9.70925 16.4944 9.68337L16.805 9.36765C16.8774 9.29001 16.9706 9.29001 17.0689 9.35212C17.1673 9.44011 17.1518 9.5902 17.3588 9.69372C17.5348 9.76618 17.9022 9.71442 17.9902 9.56433C18.1041 9.36247 18.1352 9.29518 18.1869 9.22272C18.2697 9.11403 18.4095 9.16061 18.4095 9.19684C18.3939 9.25895 18.3111 9.31589 18.3681 9.42975C18.4716 9.50222 18.4923 9.45563 18.5492 9.44011C18.7562 9.33659 18.9115 8.89147 18.9115 8.89147C18.9167 8.72585 18.8235 8.7362 18.7614 8.77761L18.601 8.8863C18.4975 8.90182 18.306 8.96911 18.2076 8.81901C18.1093 8.64304 18.1093 8.38942 18.0368 8.20827C18.0368 8.19792 17.9022 7.9236 18.0265 7.90808C18.0886 7.91843 18.218 7.95466 18.2387 7.84597C18.3008 7.73727 18.1041 7.4319 17.9644 7.27663C17.8453 7.14723 17.6797 7.13171 17.5192 7.26628C17.4054 7.36979 17.4209 7.48366 17.4002 7.59235C17.3806 7.67024 17.3797 7.75168 17.3977 7.82997C17.4157 7.90826 17.452 7.98115 17.5037 8.04264C17.6176 8.26003 17.8194 8.5447 17.7521 8.94841C17.7521 8.94841 17.6331 9.13474 17.4261 9.10886C17.3381 9.09333 17.1983 9.0571 17.1259 8.49811C17.0689 8.08405 17.1362 7.49401 16.9603 7.2197C16.893 7.0489 16.8464 6.88845 16.6911 7.17311C16.6497 7.28698 16.4686 7.45778 16.5979 7.80456C16.7204 8.11705 16.7562 8.45682 16.7015 8.78796C16.6238 8.90183 16.6083 8.93806 16.51 9.04675C16.3754 9.20202 16.2253 9.16061 16.1114 9.10368C16.0079 9.0364 15.9251 9.00016 15.8733 8.76725C15.8837 8.40495 15.9044 7.80974 15.8371 7.68552C15.7388 7.48884 15.5783 7.5613 15.511 7.62341C15.2031 7.96544 14.997 8.38673 14.9158 8.83972C14.8227 9.13991 14.7243 9.05192 14.657 8.93288C14.4914 8.77761 14.4759 7.55095 14.274 7.7528Z" fill="white"/>
<path fill-rule="evenodd" clip-rule="evenodd" d="M15.2473 9.76116C15.3974 9.65765 15.3302 9.58519 15.5475 9.80257C15.8281 10.299 15.991 10.8533 16.0237 11.4226C16.0134 11.5572 16.1065 11.64 16.1531 11.6089C16.1738 11.2984 16.9346 10.8636 17.6334 10.8015C17.7369 10.7756 17.6851 10.5738 17.7007 10.4702C17.6593 10.0821 17.918 9.73011 18.2803 9.70423C18.7772 9.77669 18.9428 10.0407 18.9532 10.4392C18.8963 11.2156 18.0888 11.345 17.6386 11.4071C17.5713 11.4329 17.5402 11.464 17.6386 11.5002L19.5329 11.5106L19.6312 11.5623C19.6416 11.6141 19.6002 11.5727 19.5277 11.6969C19.4235 11.88 19.3583 12.0826 19.3362 12.2921C18.772 12.4784 18.1872 12.5509 17.5971 12.6285C17.3901 12.7321 17.2866 12.8718 17.328 13.0271C17.4005 13.1979 17.8559 13.3739 17.8559 13.379C17.9439 13.4308 18.0423 13.5602 17.8301 13.8242C16.9088 13.7827 16.1893 13.3894 15.9409 12.8356C15.8684 12.7786 15.7856 12.8356 15.7339 12.908C15.3716 13.3739 15.0196 13.7879 14.4037 14.0157C14.0414 14.1088 13.6636 13.9587 13.4876 13.7206C13.3685 13.5809 13.3737 13.4308 13.3323 13.3997C13.1304 13.4877 11.4224 14.2123 11.6398 13.8707C12.0539 13.4308 12.7785 13.0995 13.4099 12.6648C13.4565 12.5147 13.5393 12.0178 13.7878 11.8574C13.8033 11.8574 13.7515 12.1472 13.7567 12.2714C13.7567 12.3749 13.7464 12.4112 13.7671 12.3853C13.8137 12.3594 14.5797 11.7538 14.647 11.5675C14.7194 11.464 14.6625 11.1949 14.6625 11.1845C14.5176 10.8118 14.3157 10.7808 14.2432 10.5945C14.176 10.3512 14.207 10.0717 14.3468 9.9889C14.471 9.8802 14.6159 9.89056 14.7556 10.0148C14.9109 10.1545 15.0455 10.4288 15.0869 10.6307C15.061 10.7083 14.8799 10.5789 14.8281 10.6152C14.9277 10.7296 14.994 10.8693 15.0196 11.0189C15.1231 11.4433 15.0921 11.6089 14.9886 11.8832C14.647 12.6027 14.2122 12.8149 13.8292 13.084C13.8188 13.084 13.8137 13.2652 13.9534 13.3635C14.0052 13.4153 14.207 13.4411 14.4399 13.3635C14.9375 13.0872 15.3399 12.6668 15.5941 12.1575C15.6381 11.7701 15.5957 11.3777 15.4699 11.0085C15.3198 10.6617 15.1438 10.17 15.1438 10.1597C15.1387 9.94231 15.1542 9.86985 15.2473 9.76116ZM10.2889 7.76331C10.5063 7.86683 10.9204 7.82024 10.8997 7.46829L10.8893 7.30784C10.8479 7.20433 10.7237 7.2302 10.6978 7.33372C10.6875 7.36995 10.7134 7.42688 10.6823 7.44241C10.6616 7.46312 10.5943 7.45276 10.5943 7.35442C10.5943 7.32337 10.5736 7.29231 10.5581 7.27161C10.5477 7.26126 10.5374 7.26126 10.5115 7.26126C10.4804 7.26126 10.4804 7.26644 10.4649 7.29231C10.4597 7.31819 10.4494 7.34407 10.4494 7.37513C10.4494 7.41136 10.4287 7.42171 10.408 7.42688C10.3769 7.42688 10.3821 7.42688 10.3562 7.41653C10.3459 7.40101 10.3304 7.39583 10.3304 7.36478L10.3148 7.28196C10.3045 7.26644 10.2838 7.25608 10.2631 7.25091C10.144 7.25091 10.1337 7.39065 10.144 7.44241C10.1337 7.45276 10.1285 7.69603 10.2889 7.76331Z" fill="white"/>
<path fill-rule="evenodd" clip-rule="evenodd" d="M16.6812 10.4649C16.8986 10.5684 17.4213 10.5115 17.2919 10.1751L17.2816 10.0094C17.235 9.90591 17.116 9.93179 17.0901 10.0405C17.0797 10.0715 17.1056 10.1285 17.0694 10.144C17.0539 10.1647 16.9814 10.1543 16.9866 10.0612C16.9866 10.0301 16.9659 9.9939 16.9503 9.9732C16.9348 9.96802 16.9296 9.96285 16.8986 9.96285C16.8727 9.96285 16.8727 9.9732 16.8572 9.99908C16.8468 10.025 16.8416 10.0508 16.8416 10.0819C16.8365 10.1129 16.8209 10.1233 16.7951 10.1336C16.7692 10.1336 16.7744 10.1336 16.7537 10.1181C16.7381 10.1026 16.7226 10.0974 16.7226 10.0715L16.7071 9.98873C16.6967 9.9732 16.676 9.96285 16.6553 9.95767C16.5363 9.95767 16.5259 10.0922 16.5311 10.144C16.5259 10.1544 16.5207 10.4028 16.6864 10.4649H16.6812ZM20.4078 9.34693C20.6251 9.45044 21.034 9.40386 21.0185 9.05708L21.0082 8.89146C20.9616 8.78794 20.8425 8.81382 20.8166 8.91734C20.8063 8.95357 20.8322 9.0105 20.7959 9.03121C20.7804 9.04673 20.708 9.03638 20.7131 8.93804C20.7131 8.90699 20.6924 8.87593 20.6769 8.85523C20.6614 8.84488 20.6562 8.84488 20.6251 8.84488C20.5993 8.84488 20.5993 8.85523 20.5837 8.88111L20.5682 8.95875C20.563 8.99498 20.5475 9.0105 20.5216 9.0105C20.4957 9.0105 20.5009 9.0105 20.4802 9.00015C20.4647 8.98462 20.4492 8.97945 20.4492 8.95357C20.4492 8.92769 20.444 8.88628 20.4336 8.86558C20.4233 8.85005 20.4026 8.84488 20.3819 8.8397C20.2628 8.8397 20.2525 8.97427 20.2577 9.02603C20.2525 9.03638 20.2473 9.27964 20.4129 9.34693H20.4078ZM22.3383 12.1574C21.9605 12.587 22.1261 13.296 22.2141 13.4513C22.3383 13.6998 22.4367 13.8602 22.6799 13.9844C22.9025 14.1449 23.0785 14.0465 23.1716 13.9327C23.3942 13.6998 23.3994 13.1045 23.5029 12.9907C23.5753 12.7733 23.7617 12.8095 23.8497 12.9079C23.932 13.0247 24.0423 13.119 24.1706 13.1822C24.3776 13.3633 24.626 13.3996 24.8745 13.2339C25.0401 13.1356 25.1488 13.0166 25.2471 12.7733C25.3506 12.4835 25.2989 11.1377 25.273 10.3407L25.0556 9.22789C25.0556 9.21753 25.0297 8.69996 25.0039 8.58091C25.0039 8.52916 24.9883 8.51363 25.0401 8.5188C25.097 8.57056 25.1022 8.57056 25.1436 8.58609C25.1954 8.59644 25.2471 8.4981 25.2109 8.41529L24.6933 7.45259C24.6519 7.41119 24.595 7.36978 24.5277 7.46294C24.488 7.49888 24.4564 7.54285 24.435 7.59192C24.4136 7.641 24.4028 7.69407 24.4035 7.74761C24.419 7.97535 24.4552 8.20826 24.4707 8.43599L24.6778 9.60572C24.7451 10.4338 24.7606 11.117 24.8279 11.9503C24.8175 12.3023 24.7088 12.6077 24.6053 12.6543C24.6053 12.6543 24.45 12.7422 24.3465 12.6439C24.2689 12.6128 23.9635 12.1315 23.9635 12.1315C23.8082 11.9918 23.7047 12.028 23.596 12.1315C23.2855 12.4317 23.1509 12.9803 22.9387 13.3633C22.887 13.4513 22.7317 13.5186 22.5661 13.3582C22.1416 12.7733 22.3901 11.9452 22.3383 12.1574ZM20.5061 7.30767C20.7028 7.38531 20.8373 7.78384 20.7959 7.98052C20.7545 8.21343 20.651 8.47222 20.5786 8.44117C20.4957 8.41011 20.6303 8.20308 20.5527 7.9857C20.5113 7.84078 20.2421 7.58199 20.2732 7.50953C20.2214 7.34908 20.3871 7.27662 20.5061 7.30249V7.30767Z" fill="white"/>
<path fill-rule="evenodd" clip-rule="evenodd" d="M22.9688 12.3955C23.005 11.9193 22.9377 11.6294 22.9274 11.3499C22.917 11.0705 22.6116 8.93803 22.5495 8.731C22.4719 8.32729 22.8446 8.67924 22.8031 8.44115C22.6738 8.15131 22.358 7.72172 22.2597 7.46811C22.1976 7.36459 22.2235 7.26108 22.0889 7.44223C21.973 7.75984 21.9323 8.09998 21.9698 8.43598C22.2907 10.1078 22.6168 11.4949 22.5651 13.0838C22.7203 13.0838 22.8911 12.7371 22.9688 12.3955ZM26.302 7.98051C26.4831 8.0685 26.5866 8.56537 26.5659 8.70512C26.5297 8.96391 26.4365 9.2434 26.3693 9.20717C26.2916 9.17611 26.3848 8.82416 26.3486 8.71547C26.3072 8.5602 26.0639 8.2807 26.0898 8.19789C26.038 8.02191 26.1933 7.94945 26.302 7.98051ZM13.0675 11.4949C13.2383 11.5621 13.3418 11.9245 13.3263 12.028C13.2849 12.2195 13.1969 12.4265 13.1296 12.3955C13.0623 12.3747 13.1451 12.116 13.1141 12.0331C13.0986 11.8416 12.8605 11.7381 12.8656 11.6553C12.8242 11.5 12.9692 11.4742 13.0727 11.4949H13.0675Z" fill="white"/>
<path fill-rule="evenodd" clip-rule="evenodd" d="M17.1885 12.0436C17.4059 12.054 17.5146 12.2299 17.3127 12.3024C17.1057 12.3697 16.9142 12.4266 16.909 12.7165C16.9866 13.1305 16.8055 12.9856 16.702 12.9338C16.5778 12.8407 16.2258 12.6233 16.174 12.1575C16.1689 12.0488 16.2569 11.9504 16.3966 11.9504C16.6036 12.0074 16.9142 12.0125 17.1885 12.0436Z" fill="#165D31"/>
<path fill-rule="evenodd" clip-rule="evenodd" d="M8.51821 7.18886C8.76665 7.26132 8.78218 7.63397 8.76665 7.74266C8.73042 7.93934 8.64243 8.15155 8.58032 8.12567C8.50786 8.09979 8.58032 7.83065 8.54409 7.74784C8.50786 7.63397 8.29566 7.41659 8.31636 7.35448C8.26978 7.22509 8.41987 7.16298 8.51821 7.18886ZM13.4818 8.92792C13.2851 9.03143 13.2126 9.34198 13.3317 9.52831C13.4456 9.68358 13.6215 9.62665 13.6422 9.62665C13.8337 9.64735 13.9476 9.26952 13.9476 9.26952C13.9476 9.26952 13.9528 9.166 13.7302 9.36786C13.6319 9.38339 13.6267 9.34716 13.6008 9.2954C13.5771 9.19686 13.5862 9.09329 13.6267 9.00038C13.6629 8.90722 13.5905 8.86581 13.4818 8.92792ZM14.931 7.04393C14.8275 7.11122 14.636 7.31307 14.6308 7.54081C14.6256 7.6702 14.5998 7.6702 14.6826 7.74784C14.7499 7.841 14.8068 7.83583 14.931 7.76854C14.962 7.74906 14.9885 7.72335 15.009 7.69306C15.0295 7.66277 15.0435 7.62855 15.0501 7.59257C15.0811 7.44764 14.8948 7.66503 14.8741 7.4994C14.8327 7.34413 14.9517 7.28202 15.0656 7.1371C15.0656 7.03358 15.0656 6.9663 14.9258 7.04393H14.931ZM16.0904 7.25097C16.0448 7.43943 16.017 7.63179 16.0076 7.82548C15.9765 7.9704 16.1628 8.03251 16.2405 7.84618C16.3647 7.50975 16.3647 7.36483 16.375 7.22509C16.3388 7.00253 16.1887 7.0077 16.0904 7.25097ZM23.44 10.9931C23.4607 10.9672 24.4751 10.2477 24.4751 10.2477C24.5787 10.2115 24.5528 10.6204 24.5062 10.6152C24.1916 10.9184 23.8297 11.1684 23.4348 11.3554C23.3831 11.3916 23.3365 11.081 23.4348 10.9931H23.44ZM24.3561 10.9827C24.5373 11.0707 24.6097 11.5934 24.589 11.7332C24.589 12.0127 24.4182 12.2301 24.3458 12.199C24.2733 12.1628 24.3561 11.8522 24.3199 11.7435C24.2785 11.5883 24.1284 11.3036 24.1542 11.2208C24.1025 11.0448 24.2474 10.9516 24.3613 10.9827H24.3561ZM18.3522 13.229C18.4362 13.131 18.5338 13.0456 18.642 12.9754C18.7456 12.9236 18.8387 13.0168 18.8335 13.0116C18.8491 13.1151 18.7714 13.2031 18.7973 13.3377C18.818 13.3894 18.8335 13.4516 18.9319 13.4308C19.0923 13.3015 19.2424 13.2911 19.3977 13.2859C19.5271 13.2911 19.5323 13.5033 19.4495 13.5033C19.1544 13.5654 19.025 13.6482 18.8128 13.7259C18.7093 13.788 18.6265 13.7103 18.6265 13.7052C18.6265 13.7 18.5696 13.6482 18.6058 13.5137C18.6162 13.4101 18.5748 13.348 18.4816 13.3584C18.4195 13.3998 18.3574 13.4205 18.3263 13.3429C18.3108 13.2911 18.3056 13.26 18.3522 13.229ZM25.4223 13.5085C25.4637 13.5602 25.4948 13.612 25.4171 13.7052L25.2256 13.8708C25.1946 13.9225 25.1739 14.0157 25.2774 14.0416C25.4637 14.0933 25.8985 13.8087 25.8985 13.8035C25.9709 13.7517 25.9502 13.6482 25.9399 13.6482C25.8985 13.6016 25.8053 13.6327 25.7432 13.6224C25.7122 13.6224 25.6138 13.612 25.6604 13.5188C25.6952 13.4731 25.7231 13.4225 25.7432 13.3687C25.7691 13.3066 25.7432 13.2652 25.6397 13.229C25.531 13.2083 25.4844 13.2186 25.3654 13.229C25.3033 13.2393 25.2826 13.2704 25.267 13.348C25.2722 13.4671 25.3447 13.4619 25.4223 13.5033V13.5085Z" fill="white"/>
<path fill-rule="evenodd" clip-rule="evenodd" d="M18.389 10.5684C18.3631 10.6202 18.2699 10.6202 18.1819 10.5684C18.094 10.5167 18.0422 10.4339 18.0733 10.3873C18.1043 10.3407 18.1923 10.3407 18.2803 10.3873C18.3683 10.4339 18.4149 10.5219 18.389 10.5684ZM13.7825 7.79423C13.7308 7.80976 13.6583 7.76317 13.6273 7.69071C13.5962 7.61825 13.6117 7.55614 13.6635 7.54061C13.7153 7.52509 13.7825 7.57685 13.8188 7.64413C13.855 7.71142 13.8343 7.78388 13.7774 7.7994L13.7825 7.79423ZM22.8971 20.1592C23.3836 20.1799 23.8391 20.1592 24.3204 20.185C24.4084 20.2627 24.3463 20.4438 24.2894 20.4335L23.8857 20.418C23.8805 20.2627 23.4871 20.2886 23.4975 20.4231C23.2853 20.449 23.0938 20.418 22.8764 20.4076C22.8143 20.33 22.8246 20.1902 22.8971 20.1592Z" fill="#165D31"/>
</g>
</svg>
