<svg width="39" height="38" viewBox="0 0 39 38" fill="none" xmlns="http://www.w3.org/2000/svg">
<ellipse cx="19.5" cy="19" rx="19.5" ry="19" fill="#D9D9D9"/>
<path d="M24.0259 12C22.2074 12 20.5934 12.7137 19.5 13.9404C18.4066 12.7137 16.7926 12 14.9741 12C13.3903 12.0019 11.8719 12.6283 10.7519 13.7418C9.63195 14.8554 9.00192 16.3651 9 17.9399C9 24.4503 18.5776 29.6522 18.985 29.8709C19.1432 29.9556 19.3202 30 19.5 30C19.6798 30 19.8568 29.9556 20.015 29.8709C20.4224 29.6522 30 24.4503 30 17.9399C29.9981 16.3651 29.3681 14.8554 28.2481 13.7418C27.1281 12.6283 25.6097 12.0019 24.0259 12ZM23.5289 24.8121C22.2683 25.8757 20.9206 26.833 19.5 27.674C18.0794 26.833 16.7317 25.8757 15.4711 24.8121C13.5096 23.139 11.1724 20.5876 11.1724 17.9399C11.1724 16.9374 11.573 15.9759 12.2859 15.2671C12.9989 14.5582 13.9659 14.1599 14.9741 14.1599C16.5853 14.1599 17.9341 15.0059 18.4944 16.3685C18.5759 16.5671 18.7151 16.7371 18.8942 16.8568C19.0733 16.9764 19.2842 17.0403 19.5 17.0403C19.7158 17.0403 19.9267 16.9764 20.1058 16.8568C20.2849 16.7371 20.4241 16.5671 20.5056 16.3685C21.0659 15.0059 22.4147 14.1599 24.0259 14.1599C25.0341 14.1599 26.0011 14.5582 26.7141 15.2671C27.427 15.9759 27.8276 16.9374 27.8276 17.9399C27.8276 20.5876 25.4904 23.139 23.5289 24.8121Z" fill="#603913"/>
</svg>
