<svg width="151" height="182" viewBox="0 0 151 182" fill="none" xmlns="http://www.w3.org/2000/svg">
<g clip-path="url(#clip0_2001_825)">
<path d="M25.8052 146.168C25.8052 150.422 23.2072 152.681 20.0399 152.681C16.8726 152.681 14.457 150.147 14.457 146.407C14.457 142.479 16.9091 139.916 20.2223 139.916C23.5356 139.916 25.8052 142.501 25.8052 146.175V146.168ZM16.172 146.371C16.172 149.014 17.6097 151.381 20.1348 151.381C22.6598 151.381 24.1121 149.05 24.1121 146.24C24.1121 143.779 22.8204 141.216 20.1494 141.216C17.4783 141.216 16.172 143.655 16.172 146.371Z" fill="#603913"/>
<path d="M28.1775 146.008C28.1775 145.093 28.1629 144.338 28.1045 143.605H29.5422L29.637 145.071H29.6735C30.1187 144.229 31.1477 143.401 32.6219 143.401C33.8552 143.401 35.7745 144.135 35.7745 147.184V152.485H34.1544V147.366C34.1544 145.935 33.6217 144.745 32.0891 144.745C31.0236 144.745 30.1917 145.5 29.9144 146.393C29.8414 146.596 29.8049 146.872 29.8049 147.148V152.485H28.1848V146.008H28.1775Z" fill="#603913"/>
<path d="M45.0714 148.594L43.7797 152.485H42.123L46.3412 140.12H48.2751L52.5079 152.485H50.7929L49.4647 148.594H45.0641H45.0714ZM49.1436 147.345L47.9248 143.787C47.6475 142.981 47.4651 142.248 47.2826 141.529H47.2461C47.0637 142.262 46.8594 143.017 46.6185 143.765L45.3998 147.345H49.1363H49.1436Z" fill="#603913"/>
<path d="M54.5732 139.459H56.1934V152.485H54.5732V139.459Z" fill="#603913"/>
<path d="M59.2734 139.459H60.8936V152.485H59.2734V139.459Z" fill="#603913"/>
<path d="M68.2788 140.265C69.0524 140.134 70.0668 140.025 71.3512 140.025C72.9348 140.025 74.0952 140.388 74.8323 141.056C75.511 141.645 75.9196 142.545 75.9196 143.641C75.9196 144.738 75.5912 145.638 74.9636 146.284C74.1171 147.185 72.7378 147.642 71.1687 147.642C70.6871 147.642 70.2492 147.62 69.877 147.533V152.485H68.2715V140.265H68.2788ZM69.8843 146.226C70.2346 146.321 70.6798 146.357 71.2125 146.357C73.1465 146.357 74.3287 145.42 74.3287 143.714C74.3287 142.008 73.1683 141.289 71.4023 141.289C70.7017 141.289 70.1689 141.347 69.8916 141.419V146.226H69.8843Z" fill="#603913"/>
<path d="M78.0798 146.371C78.0798 145.326 78.0579 144.425 78.0068 143.598H79.4226L79.481 145.34H79.554C79.9627 144.149 80.9333 143.394 82.0207 143.394C82.2031 143.394 82.3345 143.416 82.4804 143.452V144.977C82.3126 144.941 82.152 144.919 81.9258 144.919C80.7873 144.919 79.97 145.783 79.751 146.988C79.7145 147.206 79.678 147.468 79.678 147.744V152.478H78.0725V146.371H78.0798Z" fill="#603913"/>
<path d="M92.3328 147.968C92.3328 151.25 90.0486 152.681 87.8957 152.681C85.4801 152.681 83.6191 150.916 83.6191 148.114C83.6191 145.144 85.575 143.401 88.0416 143.401C90.5083 143.401 92.3328 145.253 92.3328 147.968ZM85.2612 148.063C85.2612 150.009 86.385 151.475 87.9687 151.475C89.5523 151.475 90.6762 150.023 90.6762 148.027C90.6762 146.524 89.9245 144.614 88.0051 144.614C86.0858 144.614 85.2612 146.378 85.2612 148.063Z" fill="#603913"/>
<path d="M102.433 139.459V150.19C102.433 150.982 102.448 151.875 102.506 152.485H101.054L100.981 150.946H100.944C100.448 151.94 99.3606 152.688 97.9083 152.688C95.7554 152.688 94.0988 150.873 94.0988 148.172C94.0769 145.217 95.9233 143.402 98.098 143.402C99.4627 143.402 100.382 144.041 100.791 144.759H100.827V139.459H102.448H102.433ZM100.806 147.214C100.806 147.01 100.784 146.734 100.733 146.531C100.492 145.507 99.6087 144.658 98.39 144.658C96.7115 144.658 95.719 146.124 95.719 148.092C95.719 149.893 96.602 151.374 98.3535 151.374C99.4409 151.374 100.433 150.655 100.733 149.45C100.791 149.232 100.806 149.007 100.806 148.753V147.214Z" fill="#603913"/>
<path d="M112.927 150.06C112.927 150.975 112.942 151.788 113 152.485H111.562L111.467 151.033H111.431C111.008 151.752 110.066 152.681 108.483 152.681C107.081 152.681 105.41 151.911 105.41 148.789V143.598H107.03V148.513C107.03 150.205 107.548 151.338 109.023 151.338C110.11 151.338 110.862 150.583 111.161 149.871C111.256 149.631 111.307 149.341 111.307 149.043V143.598H112.927V150.053V150.06Z" fill="#603913"/>
<path d="M122.319 152.151C121.896 152.369 120.954 152.667 119.757 152.667C117.065 152.667 115.32 150.852 115.32 148.136C115.32 145.421 117.196 143.424 120.108 143.424C121.064 143.424 121.91 143.663 122.355 143.881L121.991 145.13C121.604 144.912 120.998 144.709 120.115 144.709C118.072 144.709 116.962 146.212 116.962 148.063C116.962 150.118 118.291 151.382 120.057 151.382C120.976 151.382 121.582 151.142 122.049 150.939L122.326 152.151H122.319Z" fill="#603913"/>
<path d="M126.764 141.049V143.597H129.084V144.824H126.764V149.617C126.764 150.72 127.078 151.345 127.982 151.345C128.406 151.345 128.72 151.287 128.924 151.236L128.997 152.448C128.683 152.579 128.187 152.666 127.559 152.666C126.8 152.666 126.194 152.427 125.808 151.984C125.348 151.504 125.18 150.72 125.18 149.675V144.832H123.801V143.605H125.18V141.477L126.764 141.056V141.049Z" fill="#603913"/>
<path d="M131.033 150.83C131.514 151.142 132.361 151.469 133.171 151.469C134.353 151.469 134.901 150.88 134.901 150.147C134.901 149.377 134.441 148.956 133.244 148.513C131.638 147.947 130.887 147.061 130.887 146.001C130.887 144.571 132.047 143.395 133.959 143.395C134.864 143.395 135.652 143.649 136.148 143.946L135.74 145.123C135.39 144.905 134.747 144.607 133.915 144.607C132.959 144.607 132.427 145.159 132.427 145.82C132.427 146.553 132.959 146.887 134.12 147.323C135.667 147.911 136.462 148.68 136.462 150.002C136.462 151.563 135.244 152.659 133.127 152.659C132.149 152.659 131.252 152.42 130.624 152.057L131.033 150.83Z" fill="#603913"/>
<path d="M16.8954 182C16.2313 182 15.6693 181.906 15.195 181.724C14.7279 181.535 14.363 181.238 14.1222 180.824C13.8741 180.41 13.75 179.858 13.75 179.161V173.142H14.9687V179.197C14.9687 179.815 15.1366 180.257 15.4796 180.533C15.8153 180.809 16.2897 180.947 16.8881 180.947C17.523 180.947 18.0119 180.809 18.3477 180.533C18.6834 180.257 18.8585 179.815 18.8585 179.197V173.142H20.0772V179.161C20.0772 179.836 19.9532 180.388 19.7124 180.809C19.4642 181.23 19.1066 181.535 18.6323 181.724C18.1579 181.906 17.5741 182 16.8881 182H16.8954Z" fill="#603913"/>
<path d="M24.7408 182C24.4708 182 24.157 181.985 23.8067 181.949C23.4564 181.913 23.1061 181.877 22.7704 181.826C22.4347 181.775 22.1355 181.731 21.88 181.702L21.9822 180.715C22.2303 180.744 22.5149 180.773 22.8506 180.809C23.1863 180.845 23.5147 180.882 23.8359 180.904C24.157 180.933 24.4343 180.94 24.6605 180.94C25.0473 180.94 25.3757 180.882 25.6238 180.766C25.8793 180.649 26.069 180.482 26.1931 180.25C26.3171 180.025 26.3828 179.727 26.3828 179.364C26.3828 179.067 26.3244 178.834 26.2077 178.66C26.0909 178.486 25.9011 178.348 25.6311 178.239C25.3611 178.13 24.9962 178.036 24.5364 177.956C24.0694 177.861 23.6607 177.752 23.3177 177.629C22.9674 177.505 22.6828 177.353 22.4493 177.164C22.223 176.975 22.0552 176.743 21.9457 176.46C21.8362 176.177 21.7852 175.828 21.7852 175.414C21.7852 174.826 21.9019 174.347 22.1355 173.999C22.369 173.643 22.7047 173.389 23.1426 173.229C23.5804 173.069 24.0913 172.989 24.6751 172.989C24.9378 172.989 25.237 173.004 25.5727 173.033C25.9084 173.062 26.2369 173.098 26.5653 173.142C26.8937 173.185 27.171 173.229 27.4118 173.265L27.3242 174.267C27.0761 174.231 26.7915 174.202 26.4631 174.173C26.1347 174.144 25.8209 174.115 25.5144 174.093C25.2079 174.071 24.9597 174.057 24.7773 174.057C24.3905 174.057 24.0621 174.1 23.8067 174.195C23.5512 174.289 23.3542 174.427 23.2228 174.616C23.0915 174.804 23.0258 175.044 23.0258 175.335C23.0258 175.669 23.0915 175.93 23.2155 176.104C23.3396 176.278 23.5512 176.424 23.8505 176.525C24.1497 176.627 24.5364 176.736 25.0181 176.852C25.4779 176.954 25.8647 177.063 26.1931 177.179C26.5215 177.295 26.7915 177.447 27.0031 177.622C27.2148 177.796 27.368 178.021 27.4702 178.282C27.5651 178.544 27.6161 178.871 27.6161 179.27C27.6161 179.923 27.4994 180.446 27.2658 180.838C27.0323 181.238 26.6966 181.528 26.266 181.71C25.8355 181.891 25.3246 181.985 24.7262 181.985L24.7408 182Z" fill="#603913"/>
<path d="M29.3672 181.877V173.149H30.5859V181.877H29.3672Z" fill="#603913"/>
<path d="M32.79 181.877V173.149H34.797L37.9496 180.519H38.205V173.149H39.4238V181.877H37.4534L34.2496 174.493H34.0088V181.877H32.79Z" fill="#603913"/>
<path d="M44.7657 182C44.0724 182 43.4959 181.906 43.0507 181.71C42.5983 181.513 42.248 181.223 41.9852 180.838C41.7298 180.453 41.5474 179.981 41.4379 179.422C41.3284 178.863 41.2773 178.232 41.2773 177.52C41.2773 176.808 41.3357 176.126 41.4452 175.56C41.5547 175.001 41.7444 174.529 42.0144 174.144C42.2844 173.766 42.6347 173.476 43.0799 173.28C43.5251 173.084 44.0724 172.989 44.7438 172.989C45.0722 172.989 45.4225 173.004 45.7874 173.04C46.1523 173.076 46.5026 173.12 46.831 173.178C47.1594 173.236 47.444 173.294 47.6703 173.345L47.6338 174.318C47.4148 174.274 47.1375 174.238 46.8164 174.202C46.488 174.166 46.1596 174.136 45.8166 174.107C45.4809 174.078 45.1671 174.064 44.8898 174.064C44.4081 174.064 44.014 174.129 43.7075 174.267C43.401 174.405 43.1675 174.608 42.9923 174.892C42.8245 175.175 42.7077 175.531 42.642 175.959C42.5764 176.387 42.5472 176.903 42.5472 177.505C42.5472 178.275 42.6056 178.914 42.7223 179.415C42.8391 179.923 43.0653 180.301 43.3937 180.541C43.7221 180.787 44.2111 180.911 44.846 180.911C45.0211 180.911 45.2182 180.911 45.4152 180.889C45.6123 180.867 45.8166 180.86 46.0064 180.831C46.1961 180.802 46.3567 180.787 46.4807 180.766V178.319H45.1744V177.302H47.6703V181.644C47.517 181.673 47.32 181.702 47.0718 181.739C46.8237 181.775 46.5683 181.811 46.2983 181.847C46.0282 181.884 45.7582 181.906 45.4809 181.927C45.2036 181.949 44.9701 181.956 44.7657 181.956V182Z" fill="#603913"/>
<path d="M55.6034 182C54.9393 182 54.3993 181.906 53.9687 181.724C53.5381 181.535 53.2097 181.259 52.9689 180.882C52.7281 180.504 52.5675 180.04 52.4726 179.473C52.3778 178.907 52.334 178.261 52.334 177.527C52.334 176.794 52.3778 176.119 52.4726 175.552C52.5675 174.986 52.7354 174.514 52.9762 174.137C53.217 173.759 53.5527 173.476 53.976 173.287C54.3993 173.098 54.9466 173.004 55.618 173.004C55.9172 173.004 56.2164 173.018 56.523 173.047C56.8295 173.077 57.1141 173.113 57.3841 173.164C57.6541 173.207 57.8804 173.251 58.0774 173.294L58.0263 174.296C57.8512 174.26 57.6249 174.231 57.3549 174.202C57.0849 174.173 56.8149 174.144 56.5376 174.122C56.2602 174.1 56.0121 174.086 55.7786 174.086C55.3188 174.086 54.9466 174.151 54.662 174.289C54.3701 174.427 54.1512 174.63 53.9979 174.906C53.8373 175.182 53.7352 175.538 53.6768 175.974C53.6184 176.402 53.5965 176.925 53.5965 177.535C53.5965 178.145 53.6257 178.638 53.6768 179.067C53.7352 179.495 53.8373 179.851 53.9906 180.127C54.1439 180.403 54.3628 180.606 54.6547 180.737C54.9466 180.867 55.3261 180.933 55.7932 180.933C56.1508 180.933 56.5376 180.911 56.9535 180.867C57.3695 180.824 57.7344 180.78 58.0263 180.729L58.0628 181.746C57.8585 181.79 57.6176 181.833 57.3476 181.869C57.0703 181.913 56.7857 181.942 56.4865 181.971C56.1873 182 55.888 182.007 55.6034 182.007V182Z" fill="#603913"/>
<path d="M62.8505 182C61.9236 182 61.2084 181.833 60.6976 181.499C60.1867 181.165 59.8219 180.664 59.6175 180.003C59.4132 179.343 59.3037 178.522 59.3037 177.549C59.3037 176.576 59.4132 175.741 59.6248 175.073C59.8365 174.405 60.2013 173.89 60.7122 173.534C61.223 173.178 61.9382 173.004 62.8578 173.004C63.7773 173.004 64.4779 173.178 64.9887 173.527C65.4996 173.875 65.8645 174.391 66.0761 175.066C66.2878 175.741 66.3972 176.569 66.3972 177.549C66.3972 178.529 66.2951 179.379 66.0834 180.04C65.8718 180.7 65.5142 181.194 65.0033 181.514C64.4925 181.833 63.7773 181.993 62.8578 181.993L62.8505 182ZM62.8505 180.955C63.4781 180.955 63.9524 180.831 64.2809 180.584C64.6093 180.337 64.8282 179.967 64.945 179.466C65.0617 178.965 65.1201 178.326 65.1201 177.556C65.1201 176.787 65.0617 176.17 64.945 175.654C64.8282 175.131 64.602 174.739 64.2736 174.471C63.9451 174.202 63.4708 174.064 62.8505 174.064C62.2302 174.064 61.7485 174.202 61.4201 174.471C61.0917 174.739 60.8654 175.131 60.7487 175.647C60.6246 176.162 60.5662 176.801 60.5662 177.556C60.5662 178.312 60.6246 178.921 60.7414 179.43C60.8582 179.938 61.0844 180.316 61.4055 180.57C61.7266 180.824 62.2156 180.947 62.8505 180.947V180.955Z" fill="#603913"/>
<path d="M68.2354 181.877V173.149H71.4245C72.074 173.149 72.6214 173.251 73.0592 173.454C73.4971 173.658 73.8401 173.941 74.0955 174.318C74.351 174.689 74.5334 175.132 74.6356 175.654C74.745 176.17 74.7961 176.751 74.7961 177.382C74.7961 178.014 74.745 178.617 74.6429 179.161C74.5407 179.706 74.3656 180.185 74.1101 180.592C73.8547 180.998 73.5117 181.318 73.0811 181.543C72.6506 181.768 72.1032 181.877 71.4391 181.877H68.2354ZM69.4614 180.824H71.4172C71.8551 180.824 72.2127 180.73 72.49 180.548C72.7673 180.359 72.979 180.113 73.1322 179.786C73.2855 179.466 73.3876 179.103 73.4533 178.689C73.5117 178.283 73.5409 177.84 73.5409 177.375C73.5409 176.911 73.5117 176.497 73.4533 176.112C73.3949 175.727 73.2855 175.393 73.1322 175.103C72.979 174.819 72.7673 174.594 72.49 174.435C72.2127 174.282 71.8551 174.202 71.4172 174.202H69.4614V180.817V180.824Z" fill="#603913"/>
<path d="M76.6426 181.877V173.149H82.1379V174.202H77.8686V176.94H81.3789V177.963H77.8686V180.824H82.1379V181.877H76.6426Z" fill="#603913"/>
<path d="M86.2612 180.845V165.241H92.3841C93.6393 165.241 94.6902 165.401 95.5368 165.72C96.3833 166.04 97.0182 166.57 97.4415 167.318C97.8648 168.066 98.0691 169.075 98.0691 170.353C98.0691 171.478 97.8648 172.429 97.4634 173.199C97.0547 173.969 96.4417 174.535 95.6171 174.898L98.0691 180.837H94.7413L92.676 175.61H89.4212V180.837H86.2539L86.2612 180.845ZM89.4212 173.032H92.4498C93.0336 173.032 93.4934 172.923 93.851 172.698C94.2013 172.48 94.4567 172.168 94.61 171.761C94.7632 171.355 94.8362 170.897 94.8362 170.382C94.8362 169.532 94.6391 168.886 94.2378 168.465C93.8437 168.037 93.2234 167.826 92.3841 167.826H89.4285V173.032H89.4212Z" fill="#E32C3F"/>
<path d="M102.535 180.845V165.241H107.622L110.789 175.653L113.883 165.241H119.043V180.845H115.876V169.285H115.555L112.278 180.431H109.3L106.024 169.285H105.702V180.845H102.535Z" fill="#E32C3F"/>
<path d="M123.998 180.845V178.376L127.458 174.833C128.114 174.165 128.684 173.569 129.151 173.061C129.625 172.553 129.99 172.066 130.238 171.609C130.494 171.152 130.618 170.665 130.618 170.15C130.618 169.387 130.406 168.872 129.975 168.61C129.545 168.342 128.859 168.211 127.91 168.211C127.531 168.211 127.107 168.233 126.648 168.276C126.188 168.32 125.75 168.378 125.327 168.436C124.903 168.494 124.546 168.559 124.239 168.618L124.079 166.2C124.414 166.105 124.83 166.011 125.327 165.902C125.823 165.793 126.363 165.699 126.954 165.619C127.545 165.539 128.122 165.495 128.684 165.495C130.333 165.495 131.596 165.844 132.464 166.534C133.332 167.223 133.77 168.298 133.77 169.743C133.77 170.534 133.661 171.239 133.435 171.841C133.216 172.451 132.873 173.032 132.406 173.591C131.939 174.15 131.325 174.753 130.559 175.406L127.531 178.282H133.975V180.838H123.977L123.998 180.845Z" fill="#E32C3F"/>
<path d="M145.162 180.844V178.332H138.28V176.045L141.718 165.764H145.25L141.418 175.696H145.155L145.337 171.812L148.271 171.768V175.696H149.672V178.325H148.271V180.837H145.155L145.162 180.844Z" fill="#E32C3F"/>
<path d="M22.7335 169.155C22.1862 169.845 21.3104 170.404 20.0917 170.404C18.6686 170.404 18.0337 169.634 17.5447 169.054C17.1726 169.591 16.5157 170.375 15.3773 170.375C15.2386 170.266 15.0343 170.099 14.8153 169.896C14.4432 169.591 13.9542 169.032 13.8447 168.974C14.0637 169.032 14.954 169.344 15.2532 169.344C16.4063 169.344 16.7858 168.219 17.158 167.021C17.6104 165.539 18.1067 163.913 20.4201 163.898H20.4858C22.3759 163.898 23.3903 165.779 23.3903 167.209C23.3903 167.623 23.3246 168.023 23.1568 168.458C23.4049 169.184 23.9523 169.816 24.6529 169.816H25.3243V170.382H24.9813C23.9012 170.382 23.2517 170.012 22.7335 169.17V169.155ZM20.2231 164.399C19.2232 164.399 18.9094 165.51 18.5956 166.694C18.4424 167.246 18.2964 167.848 17.9899 168.429L18.2526 168.734C18.7051 169.213 19.2816 169.874 20.1428 169.874C21.1426 169.874 21.9818 168.676 21.9818 167.26C21.9818 165.844 21.4053 164.428 20.2668 164.399H20.2231Z" fill="#603913"/>
<path d="M25.0473 169.801H25.4049C26.2661 169.801 26.6237 169.235 26.6237 168.32V165.626C26.6237 165.285 26.6237 165.227 25.9231 164.995L27.9811 164.624V167.427C29.1998 165.336 30.8418 163.949 31.8052 163.949C34.177 163.949 35.6146 166.229 35.7679 169.794H37.7967V170.361H25.04V169.794L25.0473 169.801ZM34.3229 169.801C34.2937 166.324 33.1334 164.443 31.8708 164.443C30.2142 164.443 28.0759 168.32 27.784 169.801H34.3229Z" fill="#603913"/>
<path d="M48.7138 169.802C49.5385 169.802 49.8815 169.214 49.8815 168.321V161.583C49.8815 161.227 49.8669 161.118 49.1809 160.907L51.2389 160.522V168.371C51.2389 169.664 50.3048 170.368 48.9766 170.368H37.4824V169.802H44.6489C44.6051 166.324 43.3718 164.494 42.102 164.494C40.7154 164.494 39.8104 165.852 39.3215 167.435L38.6793 166.28C38.9128 166.157 39.0734 166.033 39.3069 165.678C39.8542 164.799 40.584 163.957 42.1458 163.957C44.627 163.957 46.145 166.956 46.1888 169.802H48.6992H48.7138ZM43.0142 161.662C43.0142 162.127 42.642 162.461 42.2041 162.461C41.7663 162.461 41.3941 162.12 41.3941 161.662C41.3941 161.205 41.7663 160.864 42.2041 160.864C42.642 160.864 43.0142 161.205 43.0142 161.662Z" fill="#603913"/>
<path d="M53.4722 161.604C53.4722 161.248 53.4576 161.139 52.8008 160.929L54.8442 160.544V170.375H53.4722V161.604Z" fill="#603913"/>
<path d="M63.9811 163.528C65.9004 163.557 66.2945 167.362 66.2945 169.976V170.375H60.7043L60.2227 169.809H64.7692V167.914C64.7692 165.264 64.5649 164.022 63.7694 164.022C63.2075 164.022 62.3974 165.039 61.4779 166.346L61.1933 165.147C61.5874 165.133 61.8647 165.039 62.5361 164.283C62.8645 163.913 63.3315 163.528 63.9592 163.528H63.9884H63.9811Z" fill="#603913"/>
<path d="M69.2135 173.068C70.3374 172.822 71.7751 172.328 72.3516 170.375H70.5563C69.5127 170.375 68.1699 169.453 68.1699 167.971C68.1699 165.292 70.0747 163.571 72.7311 163.571H73.9206V167.34C73.9206 168.327 73.8914 169.14 73.8112 169.801H75.8254V170.367H73.6725C73.0157 172.829 71.3956 173.199 70.1257 173.199C69.9068 173.199 69.4106 173.17 68.8486 173.119L69.2208 173.061L69.2135 173.068ZM72.534 164.051H72.3589C70.9869 164.051 69.52 165.59 69.52 167.884C69.52 168.792 70.0017 169.808 70.892 169.808H72.4975C72.5121 169.656 72.5267 169.532 72.5267 169.329V164.051H72.534Z" fill="#603913"/>
<path d="M82.1383 161.589C82.058 162.388 79.8103 163.572 78.285 164.022C80.0657 164.24 81.5472 165.655 81.5472 167.158V169.809H81.7369L82.131 170.375H75.541V169.809H80.0876V167.209C80.0876 166.069 79.4454 164.443 77.6647 164.443H76.227L76.5846 163.906H76.9568C77.9566 163.906 80.9706 161.844 81.0947 160.195L82.1383 161.597V161.589Z" fill="#603913"/>
<path d="M89.3844 116.776C89.2603 116.776 89.1363 116.747 89.0195 116.682C88.6546 116.478 88.5306 116.021 88.7349 115.658L122.035 56.3658C122.239 56.0028 122.699 55.8721 123.057 56.0754C123.422 56.2787 123.546 56.7361 123.341 57.0992L90.0412 116.391C89.9026 116.638 89.6471 116.776 89.3844 116.776Z" fill="#E32C3F"/>
<path d="M110.752 55.5017C107.767 55.5017 104.782 57.9341 104.782 61.4846C104.782 65.2457 107.512 67.2134 110.752 67.2134C113.992 67.2134 116.933 64.6721 116.933 61.4483C116.933 57.2588 113.985 55.5017 110.752 55.5017ZM110.854 66.8576C108.694 66.8576 107.906 64.3164 107.906 61.3394C107.906 58.3625 108.73 55.8212 110.781 55.8212C112.832 55.8212 113.729 58.1882 113.729 61.5137C113.729 64.6286 112.576 66.8504 110.854 66.8504V66.8576Z" fill="#E32C3F"/>
<path d="M125.034 66.4949C122.086 66.4949 119.064 68.9999 119.064 72.4778C119.064 76.2389 121.794 78.2066 125.034 78.2066C128.274 78.2066 131.215 75.7016 131.215 72.4415C131.215 68.252 128.231 66.4949 125.034 66.4949ZM125.173 77.8871C122.983 77.8871 122.188 75.3095 122.188 72.3398C122.188 69.3702 123.013 66.8216 125.1 66.8216C127.187 66.8216 128.012 69.2903 128.012 72.5141C128.012 75.5564 126.793 77.8871 125.173 77.8871Z" fill="#E32C3F"/>
<path d="M109.826 79.1432C108.096 67.3662 101.842 57.0994 87.7349 57.0994C71.8402 57.0994 65.0312 71.9768 65.0312 86.68C65.0312 101.383 71.2344 116.696 87.6473 116.696C88.0487 116.696 88.4428 116.682 88.8369 116.66L89.6761 115.164C89.0996 115.375 88.4866 115.484 87.8225 115.484C80.7508 115.484 78.6564 103.133 78.6564 86.7744C78.6564 71.8969 80.7508 58.4136 87.7349 58.4136C94.7189 58.4136 96.8134 69.8131 96.8134 86.8615C96.8134 93.7012 96.4777 99.8221 95.5655 104.629L109.818 79.1505L109.826 79.1432Z" fill="#E32C3F"/>
<path d="M41.2772 107.387C52.7494 107.387 53.8733 105.659 57.5222 99.2479C57.9601 98.5582 58.2155 97.9483 58.9161 98.0354L59.6094 98.1225C57.7849 104.178 56.1356 110.241 54.3987 116.209H13.9102L13.6475 115.519C26.3311 97.4327 42.1456 91.7185 42.1456 73.6245C42.1456 65.8336 37.7158 60.2936 31.4615 60.2936C29.6371 60.2936 26.9442 60.7292 24.514 62.4573C26.7763 63.9313 28.0753 66.8719 28.0753 69.5584C28.0753 72.2449 26.2509 75.6139 22.4268 75.6139C18.6027 75.6139 17.041 72.8476 17.041 70.161C17.041 66.8719 20.9526 58.0427 35.2856 58.0427C49.6186 58.0427 55.4423 65.6593 55.4423 72.6733C55.4423 87.0425 31.031 96.3 22.3392 107.126C22.4268 107.213 22.5144 107.3 22.5144 107.387H41.2845H41.2772Z" fill="#E32C3F"/>
<g opacity="0.82">
<path d="M95.9814 109.602C96.5799 109.515 97.3024 109.442 98.0832 109.442C99.5063 109.442 100.513 109.769 101.185 110.393C101.864 111.018 102.265 111.896 102.265 113.131C102.265 114.365 101.878 115.396 101.163 116.093C100.448 116.805 99.2655 117.189 97.7767 117.189C97.0761 117.189 96.485 117.153 95.9814 117.102V109.602ZM96.974 116.347C97.2221 116.391 97.587 116.405 97.9738 116.405C100.083 116.405 101.236 115.229 101.236 113.167C101.25 111.366 100.221 110.226 98.1343 110.226C97.6235 110.226 97.2367 110.27 96.974 110.328V116.347Z" fill="#E32C3F"/>
<path d="M104.622 110.117C104.637 110.459 104.382 110.727 103.988 110.727C103.637 110.727 103.382 110.459 103.382 110.117C103.382 109.776 103.645 109.493 104.009 109.493C104.374 109.493 104.622 109.762 104.622 110.117ZM103.513 117.124V111.649H104.513V117.124H103.513Z" fill="#E32C3F"/>
<path d="M106.03 116.107C106.322 116.296 106.848 116.507 107.351 116.507C108.081 116.507 108.417 116.144 108.417 115.693C108.417 115.221 108.132 114.96 107.395 114.684C106.41 114.336 105.943 113.791 105.943 113.138C105.943 112.252 106.658 111.533 107.84 111.533C108.395 111.533 108.884 111.693 109.19 111.874L108.942 112.6C108.723 112.462 108.329 112.281 107.818 112.281C107.227 112.281 106.899 112.622 106.899 113.029C106.899 113.479 107.227 113.682 107.942 113.958C108.898 114.321 109.387 114.793 109.387 115.606C109.387 116.565 108.636 117.247 107.329 117.247C106.731 117.247 106.169 117.102 105.782 116.877L106.03 116.122V116.107Z" fill="#E32C3F"/>
<path d="M114.584 116.921C114.321 117.059 113.744 117.241 113.007 117.241C111.351 117.241 110.271 116.122 110.271 114.445C110.271 112.768 111.431 111.541 113.226 111.541C113.817 111.541 114.335 111.686 114.613 111.824L114.386 112.594C114.146 112.456 113.773 112.332 113.226 112.332C111.964 112.332 111.285 113.262 111.285 114.402C111.285 115.672 112.102 116.449 113.19 116.449C113.759 116.449 114.131 116.304 114.416 116.18L114.584 116.928V116.921Z" fill="#E32C3F"/>
<path d="M120.655 114.343C120.655 116.369 119.247 117.248 117.919 117.248C116.43 117.248 115.284 116.159 115.284 114.43C115.284 112.601 116.488 111.526 118.014 111.526C119.539 111.526 120.663 112.666 120.663 114.343H120.655ZM116.291 114.401C116.291 115.599 116.985 116.507 117.962 116.507C118.94 116.507 119.634 115.614 119.634 114.38C119.634 113.45 119.167 112.274 117.984 112.274C116.802 112.274 116.291 113.363 116.291 114.401Z" fill="#E32C3F"/>
<path d="M126.516 115.635C126.516 116.202 126.531 116.695 126.56 117.131H125.677L125.618 116.238H125.596C125.334 116.681 124.757 117.255 123.779 117.255C122.918 117.255 121.882 116.783 121.882 114.858V111.656H122.882V114.684C122.882 115.722 123.203 116.427 124.108 116.427C124.779 116.427 125.246 115.962 125.429 115.519C125.487 115.374 125.516 115.192 125.516 115.011V111.649H126.516V115.628V115.635Z" fill="#E32C3F"/>
<path d="M128.173 113.138C128.173 112.571 128.158 112.107 128.129 111.656H129.012L129.07 112.564H129.092C129.362 112.041 130.004 111.533 130.909 111.533C131.668 111.533 132.851 111.983 132.851 113.864V117.131H131.851V113.973C131.851 113.094 131.522 112.353 130.581 112.353C129.924 112.353 129.413 112.818 129.238 113.37C129.194 113.493 129.172 113.66 129.172 113.835V117.124H128.173V113.13V113.138Z" fill="#E32C3F"/>
<path d="M135.631 110.081V111.656H137.061V112.412H135.631V115.367C135.631 116.042 135.82 116.427 136.382 116.427C136.645 116.427 136.835 116.39 136.959 116.361L137.003 117.109C136.813 117.189 136.499 117.247 136.12 117.247C135.652 117.247 135.28 117.102 135.039 116.826C134.755 116.528 134.653 116.042 134.653 115.403V112.419H133.799V111.664H134.653V110.349L135.631 110.088V110.081Z" fill="#E32C3F"/>
</g>
<path d="M149.541 157.008V1.45215H1.45996V172.27H11.7062" stroke="#E32C3F" stroke-width="4" stroke-miterlimit="10"/>
<g opacity="0.82">
<path d="M110.329 105.42C109.723 106.19 108.753 106.807 107.395 106.807C105.812 106.807 105.104 105.95 104.564 105.304C104.148 105.906 103.418 106.778 102.148 106.778C101.995 106.654 101.769 106.473 101.521 106.248C101.105 105.906 100.564 105.289 100.44 105.217C100.681 105.282 101.674 105.63 102.002 105.63C103.287 105.63 103.703 104.382 104.119 103.046C104.622 101.405 105.177 99.5894 107.746 99.5676H107.819C109.92 99.5676 111.044 101.659 111.044 103.249C111.044 103.714 110.971 104.156 110.781 104.636C111.059 105.442 111.665 106.146 112.445 106.146H113.19V106.778H112.81C111.613 106.778 110.884 106.364 110.307 105.427L110.329 105.42ZM107.534 100.127C106.425 100.127 106.074 101.361 105.731 102.675C105.556 103.292 105.403 103.96 105.053 104.607L105.345 104.948C105.848 105.478 106.49 106.219 107.446 106.219C108.556 106.219 109.497 104.883 109.497 103.307C109.497 101.731 108.855 100.156 107.585 100.119H107.534V100.127Z" fill="#E32C3F"/>
<path d="M112.897 106.139H113.299C114.255 106.139 114.656 105.507 114.656 104.498V101.506C114.656 101.129 114.656 101.063 113.875 100.802L116.167 100.388V103.503C117.524 101.172 119.341 99.6328 120.422 99.6328C123.063 99.6328 124.654 102.167 124.829 106.139H127.084V106.77H112.897V106.139ZM123.209 106.139C123.173 102.268 121.888 100.185 120.487 100.185C118.648 100.185 116.269 104.498 115.941 106.139H123.217H123.209Z" fill="#E32C3F"/>
<path d="M137.061 106.139L136.66 106.77H126.728V106.139H134.697C134.646 102.269 133.274 100.236 131.865 100.236C130.318 100.236 129.311 101.746 128.778 103.503L128.063 102.218C128.326 102.08 128.494 101.942 128.756 101.55C129.362 100.577 130.179 99.6329 131.916 99.6329C134.675 99.6329 136.361 102.973 136.412 106.139H137.054H137.061ZM132.683 97.2368C132.683 97.7523 132.267 98.1299 131.778 98.1299C131.289 98.1299 130.873 97.7523 130.873 97.2368C130.873 96.7213 131.289 96.3438 131.778 96.3438C132.267 96.3438 132.683 96.7358 132.683 97.2368Z" fill="#E32C3F"/>
</g>
<path d="M17.1135 134.463C15.7926 134.463 14.7709 133.999 14.7709 132.525V129.671C14.7709 129.301 14.5519 129.178 13.6543 129.178V128.648L16.1575 128.539V132.59C16.1575 133.411 16.5515 133.846 17.2157 133.897H20.9449C21.7622 133.897 22.1125 133.309 22.1125 132.409V128.633C22.1125 128.263 22.0979 128.154 21.4046 127.936L23.4991 127.551V132.452C23.4991 133.759 22.7109 134.471 21.3389 134.471H17.1208L17.1135 134.463ZM17.8068 125.213C17.3178 125.213 17.004 125.569 17.004 126.005C17.004 126.44 17.3178 126.796 17.8068 126.796C18.2665 126.796 18.5949 126.44 18.5949 126.005C18.5949 125.569 18.2665 125.213 17.8068 125.213ZM20.0764 125.213C19.6021 125.213 19.2736 125.569 19.2736 126.005C19.2736 126.44 19.6021 126.796 20.0764 126.796C20.5508 126.796 20.8792 126.44 20.8792 126.005C20.8792 125.569 20.5508 125.213 20.0764 125.213Z" fill="#603913"/>
<path d="M26.0609 125.714C26.0609 125.344 25.8273 125.199 24.9297 125.199V124.683L27.4474 124.574V132.583C27.4474 133.403 27.8269 133.839 28.4837 133.89H29.2719V134.463H28.3889C27.0534 134.463 26.0609 133.999 26.0609 132.525V125.714Z" fill="#603913"/>
<path d="M39.7882 133.89V134.464H29.002V133.89H36.2122C36.183 130.383 34.9351 128.531 33.658 128.531C32.2568 128.531 31.3446 129.896 30.8556 131.494L30.1915 130.332C30.4469 130.209 30.6002 130.085 30.8337 129.729C31.3884 128.844 32.1254 127.994 33.7018 127.994C36.2049 127.994 37.7302 131.022 37.7667 133.89H39.7809H39.7882ZM34.5629 136.671C34.5629 137.136 34.1834 137.477 33.7456 137.477C33.3077 137.477 32.9282 137.136 32.9282 136.671C32.9282 136.206 33.3077 135.879 33.7456 135.879C34.1834 135.879 34.5629 136.221 34.5629 136.671Z" fill="#603913"/>
<path d="M45.2542 134.463C44.4514 134.463 43.7727 133.984 43.2691 133.251C42.8897 134.18 41.9336 134.463 40.9411 134.463H39.5107V133.89H40.6784C41.4958 133.89 41.8607 133.345 41.8607 132.445V128.546C41.8607 128.205 41.795 128.139 41.1528 127.921L43.2472 127.537V131.494C43.2472 132.474 43.9114 133.883 44.9987 133.883H45.8964V134.456H45.2688L45.2542 134.463ZM41.8461 125.133C41.8461 125.569 41.5031 125.925 41.0433 125.925C40.5543 125.925 40.2405 125.569 40.2405 125.133C40.2405 124.698 40.5543 124.342 41.0433 124.342C41.5031 124.342 41.8461 124.683 41.8461 125.133ZM44.1157 125.133C44.1157 125.569 43.7873 125.925 43.3129 125.925C42.8386 125.925 42.5102 125.569 42.5102 125.133C42.5102 124.698 42.8386 124.342 43.3129 124.342C43.7873 124.342 44.1157 124.683 44.1157 125.133Z" fill="#603913"/>
<path d="M50.9022 134.463C50.0995 134.463 49.4208 133.984 48.9318 133.251C48.5523 134.18 47.5744 134.463 46.6038 134.463H45.5967V133.89H46.3192C47.1511 133.89 47.5014 133.345 47.5014 132.445V128.546C47.5014 128.205 47.4357 128.139 46.8081 127.921L48.888 127.537V131.494C48.888 132.474 49.5521 133.883 50.6541 133.883H51.092V134.456H50.9022V134.463ZM48.7494 125.133C48.7494 125.569 48.4064 125.925 47.9466 125.925C47.4868 125.925 47.1438 125.569 47.1438 125.133C47.1438 124.698 47.4722 124.342 47.9466 124.342C48.4209 124.342 48.7494 124.683 48.7494 125.133Z" fill="#603913"/>
<path d="M58.6168 133.425C58.157 134.369 57.1864 135.132 55.6539 135.132C54.2235 135.132 53.5594 134.406 53.085 133.81C52.7201 134.195 52.2677 134.464 51.4284 134.464H50.8008V133.89H51.443C51.5817 133.861 51.8517 133.81 52.0414 133.658C52.5158 133.208 52.7639 132.278 52.9682 131.501C53.3477 130.056 53.7418 128.626 56.0552 128.626C57.96 128.626 58.9817 130.521 58.9817 131.951C58.9817 132.155 58.9671 132.336 58.9379 132.51C59.2079 133.237 59.7553 133.89 60.4631 133.89H61.6746C62.492 133.89 62.8568 133.302 62.8568 132.402V125.605C62.8568 125.25 62.8422 125.141 62.1344 124.923L64.2288 124.538V132.452C64.2288 133.759 63.2655 134.471 61.93 134.471H60.777C59.7407 134.471 59.1422 134.115 58.6022 133.433L58.6168 133.425ZM55.7852 129.127C54.7781 129.127 54.4643 130.245 54.1505 131.458L54.1213 131.552C53.9827 132.082 53.8367 132.656 53.5375 133.215C53.5667 133.229 53.6032 133.273 53.6178 133.309C54.0264 133.803 54.7343 134.594 55.7122 134.594C56.6902 134.594 57.5513 133.447 57.5513 132.031C57.5513 130.615 56.9967 129.178 55.8509 129.127H55.7852Z" fill="#603913"/>
<path d="M66.3379 125.62C66.3379 125.264 66.3233 125.155 65.6592 124.938L67.7245 124.553V134.471H66.3379V125.62Z" fill="#603913"/>
<path d="M74.0148 133.89C74.1753 133.89 75.1459 133.81 75.54 133.563C75.1168 133.047 74.5183 132.104 73.7885 130.521C73.5185 129.962 72.7668 128.952 72.5771 128.858C73.7739 128.023 75.2408 127.66 76.3282 127.66C78.2621 127.66 79.6633 128.669 79.6633 130.405C79.6633 131.922 78.1016 132.888 76.7223 133.614C76.9266 133.788 77.1602 133.875 77.6491 133.875H81.714V134.449H77.8753C76.7077 134.449 76.3355 134.216 76.1093 134.064C76.1093 134.064 76.0947 134.064 76.0947 134.049C75.6057 134.296 75.2262 134.456 74.3943 134.456H73.2631C73.8761 136.053 75.343 136.598 76.6347 136.598H76.9631L76.4304 137.128C74.1169 137.128 72.6209 135.669 72.0225 133.882H74.0221L74.0148 133.89ZM73.8323 129.032C74.1607 129.388 74.4453 129.853 74.7008 130.288L75.1386 131.189C75.4816 131.915 75.8465 132.677 76.2917 133.156C77.3937 132.459 78.1308 131.944 78.1308 130.346C78.1308 129.09 77.5177 128.313 76.3501 128.313C75.4962 128.313 74.6643 128.575 73.8323 129.025V129.032Z" fill="#603913"/>
<path d="M82.6339 136.67C82.6339 137.106 82.2836 137.462 81.8311 137.462C81.3421 137.462 81.0283 137.106 81.0283 136.67C81.0283 136.235 81.3421 135.893 81.8311 135.893C82.2908 135.893 82.6339 136.235 82.6339 136.67ZM86.7425 134.463C85.9398 134.463 85.2611 133.984 84.7721 133.25C84.3926 134.18 83.4147 134.463 82.4441 134.463H81.437V133.889H82.1595C82.9914 133.889 83.3417 133.345 83.3417 132.444V128.545C83.3417 128.204 83.2761 128.139 82.6484 127.921L84.7283 127.536V131.493C84.7283 132.474 85.3924 133.882 86.4944 133.882H87.3775V134.456H86.7498L86.7425 134.463ZM84.8962 136.67C84.8962 137.106 84.5678 137.462 84.0934 137.462C83.6191 137.462 83.2907 137.106 83.2907 136.67C83.2907 136.235 83.6191 135.893 84.0934 135.893C84.5678 135.893 84.8962 136.235 84.8962 136.67Z" fill="#603913"/>
<path d="M94.8941 133.425C94.4344 134.369 93.4638 135.132 91.9312 135.132C90.5008 135.132 89.8367 134.406 89.3624 133.81C88.9975 134.195 88.545 134.464 87.7057 134.464H87.0781V133.89H87.7203C87.859 133.861 88.129 133.81 88.3188 133.658C88.7931 133.208 89.0412 132.278 89.2456 131.501C89.6251 130.056 90.0192 128.626 92.3326 128.626C94.2373 128.626 95.259 130.521 95.259 131.951C95.259 132.155 95.2444 132.336 95.2152 132.511C95.4853 133.237 96.0326 133.89 96.7405 133.89H97.4046V134.464H97.0616C96.0253 134.464 95.4269 134.108 94.8868 133.425H94.8941ZM92.0626 129.127C91.0555 129.127 90.7417 130.245 90.4278 131.458L90.3987 131.552C90.26 132.082 90.114 132.656 89.8148 133.215C89.844 133.229 89.8805 133.273 89.8951 133.309C90.3038 133.803 91.0117 134.594 91.9896 134.594C92.9675 134.594 93.8286 133.447 93.8286 132.031C93.8286 130.615 93.274 129.178 92.1282 129.127H92.0626Z" fill="#603913"/>
<path d="M106.497 133.89L106.133 134.464H97.127V133.89H104.352C104.308 130.383 103.06 128.531 101.783 128.531C100.382 128.531 99.4696 129.896 98.9806 131.494L98.3384 130.332C98.5719 130.209 98.7325 130.085 98.966 129.729C99.5207 128.844 100.258 127.994 101.834 127.994C104.337 127.994 105.862 131.022 105.914 133.89H106.497ZM102.52 136.656C102.52 137.106 102.141 137.448 101.703 137.448C101.265 137.448 100.885 137.106 100.885 136.656C100.885 136.206 101.265 135.85 101.703 135.85C102.141 135.85 102.52 136.192 102.52 136.656Z" fill="#603913"/>
<path d="M119.962 133.084C119.487 131.966 119.035 131 118.75 130.354C118.641 130.121 118.561 129.933 118.48 129.78C117.838 128.386 117.553 128.088 117.094 128.088C116.838 128.088 116.751 128.306 116.751 128.553C116.751 128.814 116.86 129.083 116.926 129.25C117.006 129.453 117.05 129.591 117.159 129.824C117.393 130.354 117.838 131.421 119.093 134.463H113.255C111.92 134.463 110.912 133.999 110.912 132.525V129.671C110.912 129.301 110.679 129.178 109.781 129.178V128.647L112.299 128.539V132.59C112.299 133.411 112.679 133.846 113.357 133.897H117.48C116.678 131.712 115.386 129.599 115.386 128.415C115.386 127.9 115.656 127.529 116.284 127.529H116.838C117.751 127.529 118.429 127.718 119.071 129.236C119.261 129.686 119.641 130.506 119.969 131.298C120.443 132.35 120.838 133.81 122.034 133.89H122.713V134.463H122.334C121.151 134.463 120.378 134.028 119.969 133.084H119.962Z" fill="#603913"/>
<path d="M127.903 134.463C127.1 134.463 126.407 133.984 125.918 133.25C125.538 134.18 124.582 134.463 123.59 134.463H122.422V133.889H123.305C124.137 133.889 124.487 133.345 124.487 132.444V125.525C124.487 125.184 124.421 125.118 123.794 124.9L125.859 124.516V131.501C125.859 132.481 126.552 133.889 127.64 133.889H128.253V134.463H127.91H127.903Z" fill="#603913"/>
<path d="M127.946 133.889H130.719C129.778 133.265 129.18 132.212 129.18 130.927C129.18 128.865 130.895 127.369 132.85 127.369C134.033 127.369 135.12 128.081 135.12 129.126C135.12 129.605 134.777 130.041 134.208 130.041C133.639 130.041 133.31 129.7 133.31 129.264C133.31 128.829 133.58 128.582 134.047 128.582C134.157 128.582 134.252 128.596 134.361 128.611C134.142 128.19 133.697 127.863 132.894 127.863C131.493 127.863 130.756 128.843 130.756 130.753C130.756 132.553 131.435 133.889 132.989 133.889C133.668 133.889 134.186 133.686 134.595 133.33L134.989 133.592C134.405 134.151 133.682 134.463 132.704 134.463H127.946V133.889Z" fill="#603913"/>
<path d="M17.6172 32.3252C18.6973 32.1437 20.1131 31.9912 21.9156 31.9912C24.1269 31.9912 25.747 32.5067 26.776 33.4289C27.7247 34.2493 28.294 35.5055 28.294 37.0447C28.294 38.584 27.8342 39.8402 26.9584 40.7332C25.7762 41.9894 23.8496 42.6283 21.6602 42.6283C20.9888 42.6283 20.3758 42.5993 19.8576 42.4758V49.3954H17.6172V32.3252ZM19.8576 40.6534C20.3466 40.7841 20.9669 40.8349 21.7113 40.8349C24.4115 40.8349 26.0608 39.528 26.0608 37.1464C26.0608 34.7648 24.4407 33.7629 21.974 33.7629C20.9961 33.7629 20.2517 33.8427 19.8649 33.9444V40.6606L19.8576 40.6534Z" fill="#603913"/>
<path d="M31.3004 40.8573C31.3004 39.3979 31.2712 38.1417 31.1982 36.9873H33.176L33.2562 39.4197H33.3584C33.9276 37.7569 35.285 36.7041 36.803 36.7041C37.0584 36.7041 37.2409 36.7331 37.4452 36.784V38.9114C37.2117 38.8606 36.9854 38.8315 36.6716 38.8315C35.0734 38.8315 33.9422 40.0368 33.6357 41.7286C33.5846 42.0336 33.5336 42.3966 33.5336 42.7814V49.396H31.2931V40.8646L31.3004 40.8573Z" fill="#603913"/>
<path d="M41.2041 43.6015C41.2552 46.651 43.211 47.9071 45.4734 47.9071C47.0935 47.9071 48.0714 47.624 48.9179 47.2682L49.3047 48.8801C48.5093 49.2359 47.1446 49.6497 45.1668 49.6497C41.3355 49.6497 39.0439 47.1375 39.0439 43.3982C39.0439 39.6588 41.2552 36.7109 44.8822 36.7109C48.9471 36.7109 50.0272 40.276 50.0272 42.5559C50.0272 43.0206 49.9761 43.3764 49.9469 43.6087H41.2041V43.6015ZM47.8379 41.9896C47.8671 40.5519 47.2467 38.3228 44.6998 38.3228C42.4083 38.3228 41.4085 40.4212 41.226 41.9896H47.8379Z" fill="#603913"/>
<path d="M64.5058 41.6267V43.2894H58.1494V41.6267H64.5058Z" fill="#603913"/>
<path d="M88.4794 40.5815C88.4794 46.5281 84.8524 49.6793 80.4299 49.6793C76.0074 49.6793 72.6357 46.1433 72.6357 40.9155C72.6357 35.4335 76.0584 31.8467 80.6853 31.8467C85.3121 31.8467 88.4794 35.4626 88.4794 40.5887V40.5815ZM75.0294 40.8574C75.0294 44.5459 77.0364 47.8568 80.5612 47.8568C84.0861 47.8568 86.1149 44.604 86.1149 40.6831C86.1149 37.2487 84.3123 33.6619 80.5831 33.6619C76.8539 33.6619 75.0294 37.0672 75.0294 40.8646V40.8574Z" fill="#603913"/>
<path d="M91.7926 40.8571C91.7926 39.3976 91.7634 38.1415 91.6904 36.987H93.6682L93.7484 39.4194H93.8506C94.4198 37.7567 95.7772 36.7039 97.2952 36.7039C97.5506 36.7039 97.7331 36.7329 97.9374 36.7837V38.9112C97.7039 38.8603 97.4776 38.8313 97.1638 38.8313C95.5656 38.8313 94.4344 40.0366 94.1279 41.7284C94.0768 42.0333 94.0257 42.3963 94.0257 42.7812V49.3958H91.7853V40.8643L91.7926 40.8571Z" fill="#603913"/>
<path d="M111.19 31.2002V46.1938C111.19 47.2975 111.219 48.5536 111.292 49.3958H109.263L109.161 47.2466H109.11C108.417 48.6334 106.899 49.679 104.863 49.679C101.856 49.679 99.5354 47.145 99.5354 43.3766C99.5062 39.2525 102.082 36.7112 105.118 36.7112C107.023 36.7112 108.307 37.6115 108.877 38.6062H108.928V31.2002H111.19ZM108.928 42.0406C108.928 41.7574 108.899 41.3726 108.826 41.0894C108.49 39.6518 107.257 38.4755 105.556 38.4755C103.214 38.4755 101.827 40.5231 101.827 43.2677C101.827 45.7799 103.06 47.8565 105.505 47.8565C107.023 47.8565 108.41 46.8545 108.826 45.1628C108.906 44.8578 108.928 44.5456 108.928 44.1898V42.0406Z" fill="#603913"/>
<path d="M116.693 43.6015C116.744 46.651 118.7 47.9071 120.963 47.9071C122.583 47.9071 123.561 47.624 124.407 47.2682L124.794 48.8801C123.999 49.2359 122.634 49.6497 120.656 49.6497C116.825 49.6497 114.533 47.1375 114.533 43.3982C114.533 39.6588 116.744 36.7109 120.371 36.7109C124.436 36.7109 125.516 40.276 125.516 42.5559C125.516 43.0206 125.465 43.3764 125.436 43.6087H116.693V43.6015ZM123.327 41.9896C123.356 40.5519 122.736 38.3228 120.189 38.3228C117.898 38.3228 116.898 40.4212 116.715 41.9896H123.327Z" fill="#603913"/>
<path d="M128.807 40.8571C128.807 39.3976 128.778 38.1415 128.705 36.987H130.683L130.763 39.4194H130.865C131.434 37.7567 132.792 36.7039 134.31 36.7039C134.565 36.7039 134.748 36.7329 134.952 36.7837V38.9112C134.719 38.8603 134.492 38.8313 134.178 38.8313C132.58 38.8313 131.449 40.0366 131.143 41.7284C131.091 42.0333 131.04 42.3963 131.04 42.7812V49.3958H128.8V40.8643L128.807 40.8571Z" fill="#603913"/>
<path d="M18.6246 7.01367C18.7486 7.01367 18.7705 7.13711 18.7705 7.20971C18.7705 7.47837 18.4494 7.91401 18.4494 7.91401L14.3845 8.66914L13.7715 8.40049L18.6246 7.01367ZM18.6246 8.61832C18.7486 8.61832 18.7705 8.74175 18.7705 8.81436C18.7705 9.08301 18.4494 9.51866 18.4494 9.51866L14.3845 10.2738L13.7715 10.0051L18.6246 8.61832ZM16.406 13.0619C16.406 12.4811 16.0338 12.2633 14.6326 12.2633V11.4646L18.5808 11.2976V23.837C18.5808 25.1222 19.1719 25.8047 20.2082 25.8773H21.4415V26.7777H20.0622C17.9678 26.7777 16.4133 26.0516 16.4133 23.7426V13.0692L16.406 13.0619Z" fill="#603913"/>
<path d="M25.4332 26.7699H20.9961V25.8696H24.9661C25.8273 25.8696 26.3454 25.8696 26.9147 25.5283C24.8421 24.1923 23.2876 22.3408 23.2876 20.0609C23.2876 17.781 25.6083 15.9513 28.564 15.9513C31.5707 15.9731 33.6944 17.8681 33.6944 20.1553C33.6944 22.8273 31.3299 24.3376 29.1551 25.4993C29.4543 25.6953 29.7681 25.8623 30.5344 25.8623H36.8179V26.7627H30.8774C29.1259 26.7627 28.3596 26.4432 27.9218 26.1818C27.4766 26.4214 26.7395 26.7627 25.4332 26.7627V26.7699ZM27.7247 12.2846C27.7247 12.9671 27.1847 13.5262 26.4695 13.5262C25.7032 13.5262 25.2143 12.9671 25.2143 12.2846C25.2143 11.6021 25.7105 11.043 26.4695 11.043C27.1847 11.043 27.7247 11.6021 27.7247 12.2846ZM28.221 24.8531C30.0965 23.6841 31.2788 22.9798 31.2788 20.0391C31.2788 18.1223 30.2644 16.779 28.418 16.779C26.5717 16.779 25.6083 17.9916 25.4624 19.4292C25.4405 19.6253 25.4113 19.8939 25.4113 20.0609C25.4113 22.0794 26.6446 23.8075 28.221 24.8531ZM31.2788 12.2846C31.2788 12.9671 30.7606 13.5262 30.0235 13.5262C29.2865 13.5262 28.7683 12.9671 28.7683 12.2846C28.7683 11.6021 29.2865 11.043 30.0235 11.043C30.7606 11.043 31.2788 11.6021 31.2788 12.2846Z" fill="#603913"/>
<path d="M44.6702 26.7701C43.415 26.7701 42.3495 26.015 41.5905 24.875C40.9994 26.3345 39.4668 26.7701 37.9416 26.7701H36.3652V25.8698H37.4964C38.8027 25.8698 39.3428 25.0202 39.3428 23.6116V17.5125C39.3428 16.9752 39.2406 16.8809 38.2554 16.5396L41.5102 15.9297V22.1304C41.5102 23.6625 42.5465 25.877 44.2688 25.877H44.9621V26.7774H44.6629L44.6702 26.7701ZM40.941 29.9794C40.941 30.7055 40.3499 31.2428 39.6566 31.2428C38.9633 31.2428 38.3721 30.7055 38.3721 29.9794C38.3721 29.2533 38.9633 28.716 39.6566 28.716C40.3499 28.716 40.941 29.2751 40.941 29.9794Z" fill="#603913"/>
<path d="M62.5209 24.7079C62.0758 26.0439 60.7986 26.799 59.0909 26.799C57.4854 26.799 56.2594 25.8986 55.7412 24.7296C55.4201 25.8986 53.8657 26.799 52.3404 26.799C50.6911 26.799 49.7497 26.2399 48.9104 25.1217C48.3412 26.2181 47.137 26.7772 45.5826 26.7772H44.5244V25.8769H45.0936C46.4511 25.8769 47.013 24.9765 47.013 23.5461V19.2913C47.013 18.754 47.013 18.6596 45.9037 18.2965L49.1586 17.7157V22.624C49.3337 24.1052 50.2459 25.9785 51.7712 25.9785C53.1797 25.9785 53.7416 25.0782 53.7416 23.6478V18.42C53.7416 17.9117 53.7197 17.8101 52.6323 17.447L55.9091 16.8371V22.1375C55.9091 23.6913 56.8724 25.9785 58.5728 25.9785C59.9521 25.9785 60.5213 25.0782 60.5213 23.6478V17.6431C60.5213 17.084 60.5213 16.917 59.4631 16.5757L62.6669 15.9658V23.0379C62.9661 24.4465 63.9732 25.9059 65.3817 25.9059H66.075V26.8062H65.7758C64.5205 26.8062 63.1121 25.9785 62.5209 24.7151V24.7079Z" fill="#603913"/>
<path d="M65.7031 25.8778H66.6154C69.4542 25.8778 70.0162 23.9319 70.5854 21.9424C71.1254 19.9021 71.9136 17.6658 75.4458 17.6367C78.4525 17.6367 80.058 20.5991 80.058 22.8355C80.058 25.1952 78.3357 27.8164 74.8327 27.8164C72.5631 27.8164 71.556 26.6474 70.7678 25.7471C70.1767 26.357 69.2864 26.7708 68.0093 26.7708H65.7177V25.8705L65.7031 25.8778ZM75.0225 18.4136C73.4462 18.4136 72.9499 20.1635 72.4609 22.0586C72.1909 22.9371 71.9939 23.881 71.4976 24.8032L71.7166 25.0936C72.3588 25.8197 73.3659 26.9669 74.8984 26.9669C76.431 26.9669 77.7811 25.1662 77.7811 22.9589C77.7811 20.7516 76.8907 18.4862 75.1174 18.4136H75.0152H75.0225Z" fill="#603913"/>
<path d="M100.492 24.6064V24.5846C100.149 26.015 98.9887 26.7701 97.2154 26.7701H90.6108C88.5382 26.7701 86.9619 26.044 86.9619 23.7351V19.2624C86.9619 18.6815 86.5897 18.4855 85.1885 18.4855V17.6578L89.1366 17.4908V23.8367C89.1366 25.1219 89.7496 25.8044 90.7859 25.877H96.6023C97.8867 25.877 98.4268 24.9549 98.4268 23.5463V17.636C98.4268 17.0551 98.4049 16.8809 97.3175 16.5396L100.594 15.9297V22.1304C100.594 23.6625 101.682 25.877 103.382 25.877H104.097V26.7774H103.798C102.543 26.7774 101.061 25.877 100.492 24.6136V24.6064ZM95.1938 29.8124C95.1938 30.5167 94.6027 31.0758 93.9094 31.0758C93.2161 31.0758 92.625 30.5167 92.625 29.8124C92.625 29.1081 93.238 28.549 93.9094 28.549C94.5808 28.549 95.1938 29.0863 95.1938 29.8124Z" fill="#603913"/>
<path d="M112.235 26.7702C110.979 26.7702 109.892 26.0151 109.126 24.8751C108.535 26.3346 107.031 26.7702 105.477 26.7702H103.652V25.8699H105.032C106.338 25.8699 106.878 25.0204 106.878 23.6118V12.7713C106.878 12.234 106.776 12.1396 105.791 11.7984L109.024 11.1885V22.1233C109.024 23.6553 110.111 25.8699 111.811 25.8699H112.775V26.7702H112.235Z" fill="#603913"/>
<path d="M112.308 25.8768H113.519C115.168 25.8768 115.913 24.9765 115.913 23.5461V14.2595C115.913 13.6786 115.767 13.4608 114.358 13.4608V12.6621L118.277 12.4951L117.861 21.7091C119.737 18.282 122.05 16.6556 123.459 16.6556C127.378 16.6556 129.72 20.6418 129.742 26.7917H112.315V25.8914L112.308 25.8768ZM127.4 25.8768C127.349 20.3804 125.553 17.418 123.554 17.418C120.919 17.418 117.562 23.5461 117.095 25.8768H127.4Z" fill="#603913"/>
<path d="M133.026 12.9168C133.026 12.3577 133.004 12.1907 131.968 11.8494L135.201 11.2395V26.7704H133.033V12.9168H133.026Z" fill="#603913"/>
</g>
<defs>
<clipPath id="clip0_2001_825">
<rect width="151" height="182" fill="white"/>
</clipPath>
</defs>
</svg>
