<svg width="33" height="35" viewBox="0 0 33 35" fill="none" xmlns="http://www.w3.org/2000/svg">
<path d="M11.5391 32.8686V27.5016C11.5391 26.1416 12.6367 25.0367 13.9962 25.0281H18.9882C20.3538 25.0281 21.4609 26.1356 21.4609 27.5016V32.8531C21.4609 34.0327 22.4123 34.9913 23.5914 34.9999H26.9972C28.5878 35.004 30.1147 34.3748 31.2409 33.2512C32.3671 32.1275 33 30.6018 33 29.0106V13.7652C33 12.4799 32.4304 11.2607 31.4449 10.4361L19.8746 1.17997C17.8522 -0.439035 14.9635 -0.386735 13.0009 1.30442L1.67955 10.4361C0.647392 11.2364 0.0304856 12.4592 0 13.7652V28.9951C0 32.3114 2.68756 34.9999 6.00283 34.9999H9.33082C9.89856 35.004 10.4445 34.7813 10.8474 34.3812C11.2503 33.981 11.4769 33.4366 11.4769 32.8686H11.5391Z" fill="#603913"/>
</svg>
