<svg width="17" height="19" viewBox="0 0 17 19" fill="none" xmlns="http://www.w3.org/2000/svg">
<path d="M8.60002 10.35C10.0083 10.35 11.15 9.20833 11.15 7.8C11.15 6.39167 10.0083 5.25 8.60002 5.25C7.19169 5.25 6.05002 6.39167 6.05002 7.8C6.05002 9.20833 7.19169 10.35 8.60002 10.35Z" stroke="#603913" stroke-width="2" stroke-linecap="round" stroke-linejoin="round"/>
<path d="M8.60002 1C6.79655 1 5.06694 1.71643 3.79169 2.99167C2.51644 4.26692 1.80002 5.99653 1.80002 7.8C1.80002 9.4082 2.14172 10.4605 3.07502 11.625L8.60002 18L14.125 11.625C15.0583 10.4605 15.4 9.4082 15.4 7.8C15.4 5.99653 14.6836 4.26692 13.4083 2.99167C12.1331 1.71643 10.4035 1 8.60002 1Z" stroke="#603913" stroke-width="2" stroke-linecap="round" stroke-linejoin="round"/>
</svg>
