<svg width="18" height="15" viewBox="0 0 18 15" fill="none" xmlns="http://www.w3.org/2000/svg">
<mask id="mask0_614_1901" style="mask-type:luminance" maskUnits="userSpaceOnUse" x="0" y="0" width="18" height="15">
<path d="M0 0.625244H17.9922V14.1207H0V0.625244Z" fill="white"/>
</mask>
<g mask="url(#mask0_614_1901)">
<path fill-rule="evenodd" clip-rule="evenodd" d="M-1.1255 0.625244H19.1177V14.1207H-1.1255V0.625244Z" fill="#165D31"/>
<path fill-rule="evenodd" clip-rule="evenodd" d="M3.97483 4.44984C3.95375 4.76614 3.92212 5.31966 4.19361 5.37765C4.51781 5.40928 4.33858 4.8294 4.45719 4.72396C4.47828 4.67125 4.51781 4.67125 4.52045 4.73714V5.23004C4.52045 5.38819 4.62588 5.43564 4.70496 5.46727C4.78931 5.462 4.84729 5.46727 4.87892 5.54634L4.9211 6.39772C4.9211 6.39772 5.11615 6.45571 5.12669 5.92063C5.1346 5.60433 5.06343 5.34338 5.10561 5.28276C5.10561 5.22214 5.18468 5.2195 5.2374 5.24849C5.32174 5.30648 5.35865 5.38029 5.49044 5.35393C5.69076 5.29594 5.81201 5.19841 5.81464 5.04554C5.81069 4.8953 5.77943 4.74703 5.72239 4.60799C5.73293 4.58163 5.68549 4.51046 5.69603 4.4841C5.7303 4.54209 5.78565 4.53682 5.79619 4.4841C5.76193 4.3734 5.70921 4.26533 5.62486 4.22052C5.5537 4.15726 5.44826 4.1678 5.414 4.2996C5.39291 4.44984 5.46671 4.62644 5.57478 4.77405C5.59851 4.8294 5.63014 4.92429 5.61696 5.00863C5.55897 5.0429 5.50098 5.02709 5.4509 4.977C5.4509 4.977 5.29275 4.85839 5.29275 4.8294C5.33492 4.56054 5.30066 4.52891 5.27693 4.45247C5.26112 4.34968 5.21104 4.31541 5.1715 4.24688C5.13196 4.20471 5.07925 4.20471 5.05289 4.24688C4.98172 4.36813 5.01599 4.62907 5.06607 4.74769C5.10297 4.85576 5.15832 4.92429 5.13196 4.92429C5.11088 4.98491 5.06607 4.9691 5.0318 4.89793C4.99323 4.74816 4.97462 4.59394 4.97645 4.43929C4.96327 4.31805 4.94746 4.05973 4.86574 3.9912C4.8183 3.92794 4.74713 3.95957 4.72077 4.01756C4.71381 4.13531 4.71646 4.25344 4.72868 4.37076C4.7814 4.56581 4.79985 4.73978 4.82621 4.93747C4.83411 5.20369 4.67333 5.05344 4.68124 4.91902C4.71582 4.75002 4.71312 4.57551 4.67333 4.40766C4.64697 4.33913 4.61798 4.32332 4.55208 4.33386C4.502 4.33386 4.37284 4.47356 4.33594 4.71079C4.33594 4.71079 4.30431 4.83203 4.29113 4.9401C4.27268 5.06135 4.19361 5.15097 4.13562 4.92429C4.08817 4.75823 4.05654 4.35495 3.97747 4.44984H3.97483Z" fill="white"/>
<path fill-rule="evenodd" clip-rule="evenodd" d="M4.85784 5.74405L4.01437 6.14996C4.02228 5.95755 4.41238 5.61225 4.68124 5.60962C4.85257 5.61225 4.8104 5.67551 4.8552 5.74405H4.85784Z" fill="white"/>
<path fill-rule="evenodd" clip-rule="evenodd" d="M4.70759 6.00763C4.26477 7.15421 5.74875 7.315 5.9148 6.05507C5.93062 6.00236 5.99388 5.95227 6.00442 6.03662C5.97016 7.17794 4.8552 7.25438 4.66542 6.8959C4.62077 6.77256 4.59846 6.64224 4.59952 6.51107C4.57317 6.28703 4.45455 6.37401 4.4361 6.59542C4.41765 6.7193 4.42292 6.75357 4.42292 6.87218C4.48091 7.77363 5.91744 7.38617 6.15203 6.64286C6.27591 6.23167 6.13094 5.92855 6.19684 5.92855C6.33917 6.08143 6.5395 5.94964 6.58431 5.89692C6.60276 5.87056 6.6502 5.85211 6.68183 5.88638C6.79254 5.96545 6.98759 5.92855 7.02976 5.78885C7.05348 5.64915 7.07193 5.50682 7.07721 5.36185C6.98495 5.38821 6.91906 5.40666 6.91115 5.44619L6.8927 5.56744C6.88479 5.60698 6.80835 5.60698 6.80308 5.5569C6.76881 5.39875 6.62648 5.3803 6.5395 5.6228C6.48414 5.67024 6.37871 5.68078 6.36817 5.60962C6.38135 5.4462 6.31545 5.42511 6.18366 5.50155L6.05714 4.54738C6.10986 4.54738 6.16257 4.58691 6.21265 4.52365C6.15994 4.35232 6.04132 4.0044 5.97543 3.97804C5.94643 3.94114 5.92008 3.96486 5.8779 3.9754C5.80937 3.99649 5.74611 4.05448 5.7672 4.17045C5.84627 4.66599 5.89899 5.04291 5.9807 5.54109C5.99388 5.59644 5.94643 5.67288 5.88317 5.66497C5.77774 5.5938 5.75138 5.44883 5.56687 5.4541C5.43508 5.4541 5.28748 5.59907 5.26903 5.73614C5.2453 5.84684 5.2374 5.96545 5.26903 6.06034C5.36128 6.17105 5.47198 6.16051 5.56951 6.13678C5.64858 6.10252 5.71448 6.02344 5.74347 6.04189C5.76193 6.06562 5.74611 6.3292 5.36655 6.52952C5.13723 6.63496 4.95273 6.65604 4.8552 6.4689C4.79458 6.35029 4.86047 5.90483 4.70759 6.00763Z" fill="white"/>
<path fill-rule="evenodd" clip-rule="evenodd" d="M6.59749 4.8426C6.68447 4.81097 7.10621 4.32598 7.10621 4.32598L7.04295 4.27326C7.01922 4.25481 7.02186 4.23372 7.04295 4.21527C7.14838 4.15201 7.11411 4.02022 7.0614 3.95696C7.02561 3.93951 6.98624 3.93067 6.94643 3.93112C6.90661 3.93158 6.86746 3.94133 6.83208 3.9596C6.75828 4.03076 6.74246 4.1441 6.80045 4.21264C6.8558 4.23899 6.91116 4.29698 6.87425 4.32861C6.70029 4.51312 6.22848 4.83206 6.28383 4.8426C6.29437 4.85841 6.58695 4.85841 6.59486 4.8426H6.59749ZM4.04073 6.55589C3.88258 6.80893 3.86941 7.18585 3.95639 7.29919C4.00383 7.35191 4.08027 7.37563 4.13562 7.35718C4.23579 7.31501 4.2806 7.11205 4.25687 7.04088C4.22261 6.98817 4.19625 6.98026 4.16198 7.02243C4.09345 7.16477 4.06446 7.06724 4.05655 6.98817C4.04899 6.85425 4.05607 6.7199 4.07764 6.58752C4.09609 6.47681 4.07764 6.50844 4.04073 6.55589ZM10.8175 6.15261C10.6646 5.82049 10.4511 5.49365 10.3852 5.36977C10.1798 5.04504 9.96171 4.7285 9.73149 4.42087C9.56807 4.22581 10.0003 4.50258 9.67878 4.11247L9.44419 3.91479C9.39147 3.87788 9.26495 3.80935 9.24387 3.92006C9.23332 4.02022 9.23859 4.07294 9.25441 4.15465C9.26759 4.20736 9.34666 4.29962 9.3862 4.35233C9.92658 5.06808 10.4012 5.83118 10.8043 6.63233C10.8728 6.59806 10.857 6.20796 10.8175 6.15261Z" fill="white"/>
<path fill-rule="evenodd" clip-rule="evenodd" d="M10.1453 7.25437C10.1137 7.28864 10.2191 7.43361 10.3562 7.43361C10.5829 7.40725 10.7832 7.28073 10.9677 6.94334C11.0427 6.83111 11.0905 6.70296 11.1074 6.56905C11.1297 5.92918 11.0784 5.28887 10.9545 4.66071C10.9466 4.60799 10.9545 4.54473 10.9598 4.52892C10.9756 4.51047 11.0257 4.52892 11.052 4.48411C11.0916 4.44457 10.9466 4.11509 10.8675 3.99121C10.8412 3.93322 10.828 3.89632 10.7805 3.99648C10.7233 4.107 10.696 4.2306 10.7015 4.35495C10.8095 5.10617 10.8438 5.76249 10.9123 6.5137C10.9202 6.5875 10.9097 6.69294 10.8596 6.73511C10.6607 6.95656 10.4173 7.1335 10.1453 7.25437ZM13.2161 7.25173C13.0526 7.34662 13.0526 7.45469 13.1844 7.45733C13.4111 7.43097 13.68 7.41252 13.8645 7.13312C13.9296 7.00152 13.9673 6.85803 13.9752 6.71139C14.0084 6.08137 13.9668 5.44964 13.8513 4.8294C13.846 4.77669 13.8223 4.6528 13.8302 4.63699C13.846 4.60009 13.9198 4.63962 13.9462 4.59745C13.9831 4.55791 13.7538 4.2627 13.6721 4.13618C13.6457 4.07819 13.6352 4.04129 13.5851 4.14145C13.532 4.25299 13.5154 4.37842 13.5376 4.49993C13.6589 5.31703 13.7485 5.92855 13.7669 6.65076C13.7564 6.7193 13.7538 6.7562 13.7221 6.84318C13.651 6.9328 13.5719 7.04877 13.4981 7.10413C13.4243 7.15684 13.2661 7.20956 13.2161 7.25173Z" fill="white"/>
<path fill-rule="evenodd" clip-rule="evenodd" d="M13.3373 6.5216C13.3373 6.32919 13.3399 6.16577 13.3347 6.02079C13.333 5.89802 13.3061 5.7769 13.2556 5.66496C13.2082 5.55689 13.2371 5.46991 13.2134 5.35393C13.1923 5.23795 13.1976 5.06399 13.166 4.92956C13.1554 4.87684 13.1291 4.70551 13.137 4.68706C13.1502 4.65016 13.2002 4.68706 13.2266 4.64489C13.2635 4.60535 13.0948 4.17044 13.0105 4.04656C12.9815 3.9912 12.9235 4.00966 12.8576 4.09927C12.7917 4.1599 12.8154 4.29433 12.8418 4.42348C13.0026 5.27485 13.1264 6.04715 13.1001 6.85635C13.0895 6.92489 13.3373 6.65076 13.3373 6.5216ZM12.1327 5.46727C12.0299 5.462 11.8164 5.26431 11.7532 5.15097C11.7428 5.12327 11.7384 5.0937 11.7402 5.06418C11.742 5.03467 11.75 5.00586 11.7637 4.97964C11.8033 4.95328 11.8612 4.92692 11.9061 4.95328C11.9061 4.95328 11.9509 5.01654 11.943 5.02445C11.9957 5.05081 12.022 5.03763 12.0273 5.01391C12.0299 4.97437 12.0115 4.95065 12.0115 4.90847C12.0352 4.78723 12.1696 4.76877 12.2224 4.84521C12.2593 4.89266 12.2751 4.99018 12.2777 5.05608C12.2777 5.09035 12.225 5.05081 12.1907 5.05608C12.1617 5.06662 12.1538 5.10353 12.1512 5.13516C12.1459 5.22214 12.1354 5.36184 12.1327 5.46463V5.46727ZM10.2402 6.73247C10.2666 6.47416 10.2297 6.01289 10.227 5.86001C10.2129 5.46684 10.1804 5.07455 10.1295 4.68443C10.0979 4.46302 10.2191 4.70815 10.2033 4.57899C10.1638 4.36022 10.0425 4.20998 9.89755 4.01229C9.85274 3.9464 9.85274 3.93322 9.78157 4.02811C9.7025 4.20471 9.77103 4.32859 9.79211 4.46829C9.89491 4.92165 9.95554 5.33811 9.98453 5.75194C10.0149 6.18182 10.0184 6.61318 9.99507 7.0435C10.0741 7.04613 10.1954 6.91961 10.2402 6.73247Z" fill="white"/>
<path fill-rule="evenodd" clip-rule="evenodd" d="M13.6879 6.31868C13.506 6.01292 13.2345 5.68608 13.1607 5.56219C12.9163 5.22087 12.6596 4.88854 12.391 4.56585C12.167 4.32863 12.4965 4.52631 12.3489 4.3418C12.225 4.20738 12.1907 4.16257 12.0826 4.08086C12.0299 4.04659 11.9983 3.9807 11.9772 4.09404C11.9688 4.19221 11.9671 4.29084 11.9719 4.38925C11.9719 4.43406 12.0194 4.52104 12.0616 4.57376C12.6072 5.2459 13.2055 5.93121 13.6852 6.79313C13.7538 6.75886 13.73 6.3714 13.6852 6.31868H13.6879Z" fill="white"/>
<path fill-rule="evenodd" clip-rule="evenodd" d="M5.47989 5.75724C5.46671 5.78096 5.43772 5.80996 5.44826 5.83895C5.46671 5.86531 5.48516 5.87322 5.51679 5.87322C5.54579 5.87322 5.58796 5.88112 5.59587 5.86531C5.61168 5.84686 5.62223 5.81259 5.61168 5.77833C5.58005 5.69925 5.49571 5.73088 5.47989 5.75724Z" fill="#165D31"/>
<path fill-rule="evenodd" clip-rule="evenodd" d="M11.5845 10.1801C11.827 10.1907 11.9851 10.1933 12.1986 10.217L12.4517 10.1907C12.7311 10.1643 12.7416 10.5887 12.7416 10.5887C12.7416 10.8391 12.6441 10.8522 12.5202 10.8786C12.449 10.8892 12.4148 10.8364 12.3752 10.7837C12.3156 10.8028 12.2521 10.8065 12.1907 10.7943C12.0879 10.789 11.9878 10.789 11.8876 10.7811C11.7822 10.7732 11.7242 10.7943 11.6161 10.7837C11.595 10.818 11.5634 10.8654 11.5001 10.8522C11.4474 10.8443 11.3815 10.6941 11.4 10.5755C11.4395 10.4911 11.4263 10.5201 11.4263 10.4832C10.4353 10.4569 9.43628 10.4121 8.46629 10.4252C7.70717 10.4279 6.9586 10.4595 6.20738 10.4911C5.80674 10.4859 5.50098 10.4226 5.29012 10.1142C5.3112 10.1142 6.31282 10.1696 6.6054 10.1511C7.14574 10.1458 7.64128 10.101 8.19217 10.0852C9.27813 10.1037 10.3562 10.1037 11.4421 10.1801C11.3367 10.1089 11.3367 9.94289 11.4949 9.90071C11.508 9.89017 11.5159 9.98242 11.5397 9.97979C11.6688 9.97188 11.6108 10.1458 11.5845 10.1801ZM7.21954 4.1915C7.05612 4.66068 7.31443 5.1773 7.49367 5.12722C7.62546 5.17994 7.70454 4.93217 7.75725 4.66332C7.79679 4.58688 7.82315 4.57897 7.8416 4.61851C7.83633 4.97698 7.86796 5.05869 7.96021 5.16676C8.16581 5.32491 8.33714 5.18785 8.35032 5.17467L8.50847 5.01388C8.54537 4.97434 8.59281 4.97434 8.64289 5.00597C8.69297 5.05078 8.68507 5.12722 8.7905 5.17994C8.88012 5.21684 9.06726 5.19048 9.11207 5.11404C9.17006 5.01125 9.18587 4.97698 9.21223 4.94008C9.25441 4.88473 9.32557 4.90845 9.32557 4.9269C9.31767 4.95853 9.27549 4.98752 9.30449 5.04551C9.3572 5.08241 9.36775 5.05869 9.39674 5.05078C9.50217 4.99807 9.58125 4.77138 9.58125 4.77138C9.58389 4.68704 9.53644 4.69231 9.50481 4.7134L9.4231 4.76875C9.37038 4.77666 9.27286 4.81092 9.22278 4.73448C9.1727 4.64486 9.1727 4.51571 9.13579 4.42345C9.13579 4.41818 9.06726 4.27848 9.13052 4.27058C9.16215 4.27585 9.22805 4.2943 9.23859 4.23895C9.27022 4.18359 9.17006 4.02808 9.09889 3.94901C9.03827 3.88311 8.95392 3.8752 8.87221 3.94373C8.81422 3.99645 8.82213 4.05444 8.81159 4.10979C8.80159 4.14946 8.80115 4.19093 8.81032 4.2308C8.81948 4.27067 8.83799 4.30779 8.8643 4.33911C8.92229 4.44981 9.02509 4.59478 8.99082 4.80038C8.99082 4.80038 8.9302 4.89527 8.82477 4.88209C8.77996 4.87418 8.70879 4.85573 8.67189 4.57106C8.64289 4.36019 8.67716 4.05971 8.58754 3.92001C8.55327 3.83303 8.52955 3.75132 8.45048 3.89629C8.42939 3.95428 8.33714 4.04126 8.40303 4.21786C8.46539 4.377 8.4836 4.55003 8.45575 4.71867C8.41621 4.77666 8.4083 4.79511 8.35822 4.85046C8.28969 4.92953 8.21325 4.90845 8.15526 4.87945C8.10255 4.84519 8.06037 4.82674 8.03402 4.70812C8.03929 4.52362 8.04983 4.2205 8.01557 4.15724C7.96548 4.05707 7.88377 4.09398 7.84951 4.12561C7.69271 4.29979 7.58772 4.51434 7.54639 4.74503C7.49894 4.8979 7.44886 4.8531 7.4146 4.79247C7.33025 4.7134 7.32234 4.0887 7.21954 4.1915Z" fill="white"/>
<path fill-rule="evenodd" clip-rule="evenodd" d="M7.71508 5.21422C7.79152 5.1615 7.75725 5.1246 7.86796 5.2353C8.01085 5.48813 8.09381 5.77038 8.11045 6.06032C8.10518 6.12885 8.15263 6.17103 8.17635 6.15521C8.18689 5.99706 8.57436 5.77565 8.9302 5.74402C8.98291 5.73084 8.95656 5.62804 8.96446 5.57533C8.94338 5.37764 9.07517 5.1984 9.25968 5.18522C9.51272 5.22213 9.59706 5.35655 9.60233 5.55951C9.57334 5.95489 9.16215 6.02078 8.93283 6.05241C8.89857 6.06559 8.88275 6.08141 8.93283 6.09986L9.89755 6.10513L9.94763 6.13149C9.9529 6.15785 9.93181 6.13676 9.89491 6.20002C9.84184 6.29325 9.80864 6.39645 9.79739 6.50314C9.51008 6.59803 9.21223 6.63493 8.91175 6.67447C8.80631 6.72719 8.7536 6.79835 8.77468 6.87743C8.81159 6.96441 9.04354 7.05403 9.04354 7.05666C9.08835 7.08302 9.13843 7.14892 9.03036 7.28335C8.56118 7.26226 8.1948 7.06194 8.06828 6.7799C8.03138 6.75091 7.98921 6.7799 7.96285 6.8168C7.77834 7.05403 7.5991 7.26489 7.28544 7.38087C7.10093 7.42832 6.90851 7.35188 6.8189 7.23063C6.75827 7.15946 6.76091 7.08302 6.73982 7.06721C6.63702 7.11202 5.7672 7.48103 5.8779 7.30707C6.08877 7.08302 6.45779 6.91433 6.77936 6.69292C6.80308 6.61648 6.84525 6.36344 6.97177 6.28173C6.97968 6.28173 6.95332 6.42934 6.95596 6.4926C6.95596 6.54531 6.95069 6.56376 6.96123 6.55059C6.98495 6.53741 7.37506 6.22901 7.40932 6.13412C7.44622 6.08141 7.41723 5.94434 7.41723 5.93907C7.34343 5.74929 7.24063 5.73348 7.20373 5.63859C7.16946 5.5147 7.18528 5.37237 7.25644 5.33019C7.3197 5.27484 7.39351 5.28011 7.46468 5.34337C7.54375 5.41454 7.61228 5.55424 7.63337 5.65704C7.62019 5.69658 7.52794 5.63068 7.50158 5.64913C7.55231 5.70743 7.58605 5.77855 7.5991 5.85473C7.65182 6.07086 7.636 6.15521 7.58329 6.29491C7.40932 6.66129 7.18791 6.76936 6.99286 6.90642C6.98759 6.90642 6.98495 6.99868 7.05612 7.04876C7.08248 7.07512 7.18528 7.08829 7.30389 7.04876C7.55729 6.90803 7.7622 6.69394 7.89168 6.43461C7.91408 6.23728 7.89247 6.03744 7.82842 5.84945C7.75198 5.67285 7.66236 5.42245 7.66236 5.41718C7.65973 5.30647 7.66763 5.26957 7.71508 5.21422ZM5.18995 4.19679C5.30066 4.2495 5.51152 4.22578 5.50098 4.04654L5.49571 3.96483C5.47462 3.91212 5.41136 3.9253 5.39818 3.97801C5.39291 3.99646 5.40609 4.02546 5.39028 4.03337C5.37973 4.04391 5.34547 4.03864 5.34547 3.98856C5.34547 3.97274 5.33492 3.95693 5.32702 3.94638C5.32174 3.94111 5.31647 3.94111 5.30329 3.94111C5.28748 3.94111 5.28748 3.94375 5.27957 3.95693C5.27694 3.97011 5.27166 3.98328 5.27166 3.9991C5.27166 4.01755 5.26112 4.02282 5.25058 4.02546C5.23476 4.02546 5.2374 4.02546 5.22422 4.02019C5.21895 4.01228 5.21104 4.00964 5.21104 3.99383L5.20313 3.95165C5.19786 3.94375 5.18732 3.93848 5.17677 3.93584C5.11615 3.93584 5.11088 4.00701 5.11615 4.03337C5.11088 4.03864 5.10824 4.16252 5.18995 4.19679Z" fill="white"/>
<path fill-rule="evenodd" clip-rule="evenodd" d="M8.4452 5.5727C8.55591 5.62542 8.82212 5.59642 8.75623 5.42509L8.75096 5.34075C8.72723 5.28803 8.66661 5.30121 8.65343 5.35656C8.64816 5.37238 8.66134 5.40137 8.64289 5.40928C8.63498 5.41982 8.59808 5.41455 8.60071 5.36711C8.60071 5.35129 8.59017 5.33284 8.58226 5.3223C8.57436 5.31966 8.57172 5.31703 8.55591 5.31703C8.54273 5.31703 8.54273 5.3223 8.53482 5.33548C8.52955 5.34866 8.52691 5.36183 8.52691 5.37765C8.52428 5.39346 8.51637 5.39874 8.50319 5.40401C8.49001 5.40401 8.49265 5.40401 8.4821 5.3961C8.47419 5.38819 8.46629 5.38556 8.46629 5.37238L8.45838 5.3302C8.45311 5.3223 8.44256 5.31703 8.43202 5.31439C8.3714 5.31439 8.36613 5.38292 8.36876 5.40928C8.36613 5.41455 8.36349 5.54107 8.44784 5.5727H8.4452ZM10.343 5.00336C10.4537 5.05608 10.6619 5.03236 10.654 4.85575L10.6488 4.77141C10.625 4.71869 10.5644 4.73187 10.5512 4.78459C10.546 4.80304 10.5591 4.83203 10.5407 4.84258C10.5328 4.85048 10.4959 4.84521 10.4985 4.79513C10.4985 4.77932 10.488 4.7635 10.4801 4.75296C10.4722 4.74769 10.4695 4.74769 10.4537 4.74769C10.4405 4.74769 10.4405 4.75296 10.4326 4.76614L10.4247 4.80567C10.4221 4.82413 10.4142 4.83203 10.401 4.83203C10.3878 4.83203 10.3904 4.83203 10.3799 4.82676C10.372 4.81885 10.3641 4.81622 10.3641 4.80304C10.3641 4.78986 10.3615 4.76877 10.3562 4.75823C10.3509 4.75032 10.3404 4.74769 10.3298 4.74505C10.2692 4.74505 10.2639 4.81358 10.2666 4.83994C10.2639 4.84521 10.2613 4.9691 10.3456 5.00336H10.343ZM11.3262 6.43462C11.1337 6.65339 11.2181 7.0145 11.2629 7.09358C11.3262 7.2201 11.3762 7.30181 11.5001 7.36507C11.6135 7.44678 11.7031 7.3967 11.7505 7.33871C11.8639 7.2201 11.8665 6.91698 11.9192 6.85899C11.9561 6.74828 12.051 6.76673 12.0958 6.81681C12.1378 6.87632 12.1939 6.92436 12.2592 6.95651C12.3647 7.04877 12.4912 7.06722 12.6177 6.98287C12.7021 6.93279 12.7574 6.87217 12.8075 6.74828C12.8602 6.60068 12.8339 5.91536 12.8207 5.50944L12.71 4.94274C12.71 4.93747 12.6968 4.67388 12.6836 4.61326C12.6836 4.5869 12.6757 4.57899 12.7021 4.58163C12.7311 4.60799 12.7337 4.60799 12.7548 4.61589C12.7811 4.62117 12.8075 4.57109 12.7891 4.52891L12.5255 4.03865C12.5044 4.01756 12.4754 3.99647 12.4411 4.04392C12.4209 4.06222 12.4048 4.08461 12.3939 4.1096C12.383 4.1346 12.3775 4.16162 12.3779 4.18889C12.3858 4.30487 12.4042 4.42348 12.4121 4.53946L12.5176 5.13515C12.5518 5.55689 12.5597 5.90482 12.594 6.32918C12.5887 6.50842 12.5334 6.66394 12.4807 6.68766C12.4807 6.68766 12.4016 6.73247 12.3489 6.68239C12.3093 6.66657 12.1538 6.42144 12.1538 6.42144C12.0747 6.35027 12.022 6.36872 11.9667 6.42144C11.8085 6.57432 11.74 6.85372 11.6319 7.04877C11.6056 7.09358 11.5265 7.12784 11.4421 7.04613C11.226 6.74828 11.3525 6.32655 11.3262 6.43462ZM10.3931 3.96484C10.4932 4.00438 10.5618 4.20734 10.5407 4.3075C10.5196 4.42611 10.4669 4.55791 10.43 4.54209C10.3878 4.52628 10.4563 4.42084 10.4168 4.31014C10.3957 4.23633 10.2587 4.10454 10.2745 4.06764C10.2481 3.98593 10.3325 3.94903 10.3931 3.96221V3.96484Z" fill="white"/>
<path fill-rule="evenodd" clip-rule="evenodd" d="M11.6477 6.55586C11.6662 6.31337 11.6319 6.16576 11.6266 6.02342C11.6214 5.88109 11.4659 4.79513 11.4342 4.68969C11.3947 4.4841 11.5845 4.66333 11.5634 4.54209C11.4975 4.39448 11.3367 4.17571 11.2866 4.04655C11.255 3.99383 11.2682 3.94112 11.1996 4.03337C11.1406 4.19512 11.1199 4.36834 11.139 4.53945C11.3024 5.39082 11.4685 6.09723 11.4421 6.90643C11.5212 6.90643 11.6082 6.72983 11.6477 6.55586ZM13.3452 4.3075C13.4375 4.35231 13.4902 4.60535 13.4796 4.67651C13.4612 4.80831 13.4137 4.95064 13.3795 4.93219C13.3399 4.91637 13.3874 4.73714 13.3689 4.68179C13.3478 4.60271 13.224 4.46038 13.2371 4.4182C13.2108 4.32858 13.2899 4.29168 13.3452 4.3075ZM6.60539 6.09723C6.69237 6.13149 6.74509 6.316 6.73718 6.36872C6.7161 6.46624 6.67129 6.57168 6.63702 6.55586C6.60276 6.54532 6.64493 6.41353 6.62911 6.37135C6.62121 6.27383 6.49996 6.22111 6.50259 6.17894C6.48151 6.09986 6.55531 6.08668 6.60803 6.09723H6.60539Z" fill="white"/>
<path fill-rule="evenodd" clip-rule="evenodd" d="M8.70352 6.37661C8.81422 6.38188 8.86957 6.4715 8.76678 6.5084C8.66134 6.54267 8.56382 6.57166 8.56118 6.71927C8.60072 6.93013 8.50846 6.85633 8.45575 6.82997C8.39249 6.78253 8.21325 6.67182 8.18689 6.4346C8.18426 6.37924 8.22907 6.32916 8.30023 6.32916C8.40567 6.35816 8.56382 6.36079 8.70352 6.37661Z" fill="#165D31"/>
<path fill-rule="evenodd" clip-rule="evenodd" d="M4.28849 3.90425C4.41501 3.94115 4.42292 4.13093 4.41501 4.18628C4.39656 4.28644 4.35175 4.39451 4.32012 4.38133C4.28322 4.36816 4.32012 4.23109 4.30167 4.18892C4.28322 4.13093 4.17515 4.02023 4.1857 3.9886C4.16197 3.9227 4.23841 3.89107 4.28849 3.90425ZM6.81626 4.78989C6.71609 4.8426 6.67919 5.00076 6.73982 5.09564C6.7978 5.17472 6.88742 5.14573 6.89797 5.14573C6.99549 5.15627 7.05348 4.96385 7.05348 4.96385C7.05348 4.96385 7.05612 4.91114 6.94278 5.01393C6.8927 5.02184 6.89006 5.00339 6.87688 4.97703C6.86481 4.92685 6.86944 4.8741 6.89006 4.82679C6.90851 4.77934 6.87161 4.75826 6.81626 4.78989ZM7.55429 3.83045C7.50157 3.86471 7.40405 3.96751 7.40141 4.08349C7.39877 4.14938 7.3856 4.14938 7.42777 4.18892C7.46203 4.23636 7.49103 4.23373 7.55429 4.19946C7.57005 4.18954 7.58358 4.17645 7.59402 4.16102C7.60445 4.14559 7.61157 4.12817 7.61491 4.10984C7.63073 4.03604 7.53584 4.14675 7.52529 4.0624C7.50421 3.98332 7.56483 3.95169 7.62282 3.87789C7.62282 3.82517 7.62282 3.79091 7.55165 3.83045H7.55429ZM8.14472 3.93588C8.12148 4.03186 8.10736 4.12982 8.10254 4.22846C8.08673 4.30226 8.18162 4.33389 8.22115 4.239C8.28441 4.06767 8.28441 3.99387 8.28969 3.9227C8.27123 3.80936 8.1948 3.81199 8.14472 3.93588ZM11.8876 5.84158C11.8981 5.82841 12.4148 5.46203 12.4148 5.46203C12.4675 5.44357 12.4543 5.65181 12.4306 5.64917C12.2704 5.80358 12.0861 5.93089 11.885 6.02609C11.8586 6.04454 11.8349 5.88639 11.885 5.84158H11.8876ZM12.3541 5.83631C12.4464 5.88112 12.4833 6.14734 12.4728 6.21851C12.4728 6.36084 12.3858 6.47155 12.3489 6.45573C12.312 6.43728 12.3541 6.27913 12.3357 6.22378C12.3146 6.14471 12.2382 5.99974 12.2513 5.95756C12.225 5.86794 12.2988 5.8205 12.3568 5.83631H12.3541ZM9.29657 6.98026C9.33933 6.93036 9.38904 6.88686 9.44418 6.85111C9.4969 6.82475 9.54434 6.8722 9.54171 6.86956C9.54961 6.92228 9.51008 6.96709 9.52326 7.03562C9.5338 7.06198 9.54171 7.09361 9.59179 7.08306C9.6735 7.01717 9.74994 7.01189 9.82901 7.00926C9.89491 7.01189 9.89754 7.11996 9.85537 7.11996C9.70513 7.15159 9.63923 7.19377 9.53116 7.2333C9.47845 7.26493 9.43627 7.2254 9.43627 7.22276C9.43627 7.22013 9.40728 7.19377 9.42573 7.12524C9.431 7.07252 9.40991 7.04089 9.36247 7.04616C9.33084 7.06725 9.29921 7.07779 9.28339 7.03825C9.27549 7.01189 9.27285 6.99608 9.29657 6.98026ZM12.8971 7.1226C12.9182 7.14896 12.934 7.17532 12.8945 7.22276L12.797 7.30711C12.7811 7.33347 12.7706 7.38091 12.8233 7.39409C12.9182 7.42045 13.1396 7.27548 13.1396 7.27284C13.1765 7.24648 13.166 7.19377 13.1607 7.19377C13.1396 7.17004 13.0922 7.18586 13.0605 7.18059C13.0447 7.18059 12.9946 7.17532 13.0184 7.12787C13.0361 7.10458 13.0503 7.07883 13.0605 7.05143C13.0737 7.0198 13.0605 6.99872 13.0078 6.98026C12.9525 6.96972 12.9287 6.97499 12.8681 6.98026C12.8365 6.98554 12.826 7.00135 12.818 7.04089C12.8207 7.10151 12.8576 7.09888 12.8971 7.11996V7.1226Z" fill="white"/>
<path fill-rule="evenodd" clip-rule="evenodd" d="M9.31503 5.6254C9.30185 5.65176 9.25441 5.65176 9.2096 5.6254C9.16479 5.59905 9.13843 5.55687 9.15424 5.53315C9.17006 5.50943 9.21487 5.50943 9.25968 5.53315C9.30449 5.55687 9.32821 5.60168 9.31503 5.6254ZM6.96914 4.2126C6.94278 4.22051 6.90588 4.19678 6.89006 4.15988C6.87425 4.12298 6.88216 4.09135 6.90852 4.08344C6.93487 4.07554 6.96914 4.10189 6.98759 4.13616C7.00604 4.17043 6.9955 4.20733 6.9665 4.21523L6.96914 4.2126ZM11.6108 10.5096C11.8586 10.5201 12.0906 10.5096 12.3357 10.5228C12.3805 10.5623 12.3489 10.6546 12.3199 10.6493L12.1143 10.6414C12.1116 10.5623 11.9113 10.5755 11.9166 10.644C11.8085 10.6572 11.711 10.6414 11.6003 10.6361C11.5687 10.5966 11.5739 10.5254 11.6108 10.5096Z" fill="#165D31"/>
</g>
</svg>
