<svg width="13" height="17" viewBox="0 0 13 17" fill="none" xmlns="http://www.w3.org/2000/svg">
<path fill-rule="evenodd" clip-rule="evenodd" d="M1.625 15.4062V1.59375H11.375V15.4062H9.75V11.6875C9.75 11.4057 9.63586 11.1355 9.4327 10.9362C9.22954 10.7369 8.95399 10.625 8.66667 10.625H4.33333C4.04602 10.625 3.77047 10.7369 3.5673 10.9362C3.36414 11.1355 3.25 11.4057 3.25 11.6875V15.4062H1.625ZM4.875 15.4062H8.125V12.2188H4.875V15.4062ZM0 1.0625C0 0.780707 0.114137 0.510456 0.317301 0.311199C0.520465 0.111942 0.796016 0 1.08333 0L11.9167 0C12.204 0 12.4795 0.111942 12.6827 0.311199C12.8859 0.510456 13 0.780707 13 1.0625V15.9375C13 16.2193 12.8859 16.4895 12.6827 16.6888C12.4795 16.8881 12.204 17 11.9167 17H1.08333C0.796016 17 0.520465 16.8881 0.317301 16.6888C0.114137 16.4895 0 16.2193 0 15.9375V1.0625ZM3.25 3.98438C3.25 3.77303 3.3356 3.57034 3.48798 3.4209C3.64035 3.27146 3.84701 3.1875 4.0625 3.1875H5.14583C5.36132 3.1875 5.56798 3.27146 5.72036 3.4209C5.87273 3.57034 5.95833 3.77303 5.95833 3.98438C5.95833 4.19572 5.87273 4.39841 5.72036 4.54785C5.56798 4.69729 5.36132 4.78125 5.14583 4.78125H4.0625C3.84701 4.78125 3.64035 4.69729 3.48798 4.54785C3.3356 4.39841 3.25 4.19572 3.25 3.98438ZM7.85417 3.1875C7.63868 3.1875 7.43202 3.27146 7.27964 3.4209C7.12727 3.57034 7.04167 3.77303 7.04167 3.98438C7.04167 4.19572 7.12727 4.39841 7.27964 4.54785C7.43202 4.69729 7.63868 4.78125 7.85417 4.78125H8.9375C9.15299 4.78125 9.35965 4.69729 9.51202 4.54785C9.6644 4.39841 9.75 4.19572 9.75 3.98438C9.75 3.77303 9.6644 3.57034 9.51202 3.4209C9.35965 3.27146 9.15299 3.1875 8.9375 3.1875H7.85417ZM3.25 7.70312C3.25 7.49178 3.3356 7.28909 3.48798 7.13965C3.64035 6.99021 3.84701 6.90625 4.0625 6.90625H5.14583C5.36132 6.90625 5.56798 6.99021 5.72036 7.13965C5.87273 7.28909 5.95833 7.49178 5.95833 7.70312C5.95833 7.91447 5.87273 8.11716 5.72036 8.2666C5.56798 8.41604 5.36132 8.5 5.14583 8.5H4.0625C3.84701 8.5 3.64035 8.41604 3.48798 8.2666C3.3356 8.11716 3.25 7.91447 3.25 7.70312ZM7.85417 6.90625C7.63868 6.90625 7.43202 6.99021 7.27964 7.13965C7.12727 7.28909 7.04167 7.49178 7.04167 7.70312C7.04167 7.91447 7.12727 8.11716 7.27964 8.2666C7.43202 8.41604 7.63868 8.5 7.85417 8.5H8.9375C9.15299 8.5 9.35965 8.41604 9.51202 8.2666C9.6644 8.11716 9.75 7.91447 9.75 7.70312C9.75 7.49178 9.6644 7.28909 9.51202 7.13965C9.35965 6.99021 9.15299 6.90625 8.9375 6.90625H7.85417Z" fill="#603913"/>
</svg>
