<svg width="18" height="16" viewBox="0 0 18 16" fill="none" xmlns="http://www.w3.org/2000/svg">
<path d="M1 3.55555C1 3.08405 1.1873 2.63187 1.5207 2.29847C1.8541 1.96507 2.30628 1.77777 2.77778 1.77777H15.2222C15.6937 1.77777 16.1459 1.96507 16.4793 2.29847C16.8127 2.63187 17 3.08405 17 3.55555V12.4444C17 12.9159 16.8127 13.3681 16.4793 13.7015C16.1459 14.0349 15.6937 14.2222 15.2222 14.2222H2.77778C2.30628 14.2222 1.8541 14.0349 1.5207 13.7015C1.1873 13.3681 1 12.9159 1 12.4444V3.55555Z" stroke="#603913" stroke-width="2" stroke-linecap="round" stroke-linejoin="round"/>
<path d="M1 3.55554L9 8.88888L17 3.55554" stroke="#603913" stroke-width="2" stroke-linecap="round" stroke-linejoin="round"/>
</svg>
