<svg width="15" height="17" viewBox="0 0 15 17" fill="none" xmlns="http://www.w3.org/2000/svg">
<path d="M14 17C14 15.2551 13.273 13.6725 12.096 12.5304C10.9191 11.3884 9.29521 10.6783 7.50149 10.6783C5.70777 10.6783 4.08091 11.3855 2.90397 12.5304C1.73001 13.6754 1 15.2551 1 17M7.50149 1C6.41692 1 5.43365 1.42899 4.7245 2.11884C4.01536 2.81159 3.57438 3.76522 3.57438 4.82029C3.57438 5.87536 4.01536 6.82899 4.7245 7.52174C5.43663 8.21449 6.41692 8.64058 7.50149 8.64058C8.58607 8.64058 9.56636 8.21449 10.2785 7.52174C10.9906 6.83188 11.4286 5.87536 11.4286 4.82029C11.4286 3.76522 10.9906 2.81159 10.2785 2.11884C9.56934 1.42899 8.58607 1 7.50447 1H7.50149Z" stroke="#603913" stroke-width="2" stroke-miterlimit="10"/>
</svg>
