<svg width="15" height="15" viewBox="0 0 15 15" fill="none" xmlns="http://www.w3.org/2000/svg">
<path d="M0.75 15C0.5375 15 0.3595 14.928 0.216 14.784C0.0725001 14.64 0.0005 14.462 0 14.25V8.25C0 8.0375 0.0720001 7.8595 0.216 7.716C0.36 7.5725 0.538 7.5005 0.75 7.5H3V4.5C3 3.25 3.4375 2.1875 4.3125 1.3125C5.1875 0.4375 6.25 0 7.5 0H10.5C11.75 0 12.8125 0.4375 13.6875 1.3125C14.5625 2.1875 15 3.25 15 4.5V14.25C15 14.4625 14.928 14.6407 14.784 14.7847C14.64 14.9287 14.462 15.0005 14.25 15C14.0375 15 13.8595 14.928 13.716 14.784C13.5725 14.64 13.5005 14.462 13.5 14.25V12.75H10.5V14.25C10.5 14.4625 10.428 14.6407 10.284 14.7847C10.14 14.9287 9.962 15.0005 9.75 15H0.75ZM10.5 11.25H13.5V4.5C13.5 3.675 13.2063 2.96875 12.6188 2.38125C12.0313 1.79375 11.325 1.5 10.5 1.5H7.5C6.675 1.5 5.96875 1.79375 5.38125 2.38125C4.79375 2.96875 4.5 3.675 4.5 4.5V7.5H9.75C9.9625 7.5 10.1407 7.572 10.2847 7.716C10.4288 7.86 10.5005 8.038 10.5 8.25V11.25ZM5.25 11.1375L9 9H1.5L5.25 11.1375ZM1.5 13.5H9V10.3125L6 12.0187C5.8875 12.0812 5.76875 12.1312 5.64375 12.1687C5.51875 12.2062 5.3875 12.225 5.25 12.225C5.1125 12.225 4.98125 12.2062 4.85625 12.1687C4.73125 12.1312 4.6125 12.0812 4.5 12.0187L1.5 10.3125V13.5ZM6.75 6C6.5375 6 6.3595 5.928 6.216 5.784C6.0725 5.64 6.0005 5.462 6 5.25C6 5.0375 6.072 4.8595 6.216 4.716C6.36 4.5725 6.538 4.5005 6.75 4.5H11.25C11.4625 4.5 11.6407 4.572 11.7847 4.716C11.9287 4.86 12.0005 5.038 12 5.25C12 5.4625 11.928 5.64075 11.784 5.78475C11.64 5.92875 11.462 6.0005 11.25 6H6.75Z" fill="#603913"/>
</svg>
