<svg width="164" height="60" viewBox="0 0 164 60" fill="none" xmlns="http://www.w3.org/2000/svg">
<g clip-path="url(#clip0_384_2197)">
<path d="M30.4038 59.001C30.2182 59.0815 30.0047 59.1652 29.7602 59.2334C29.5096 59.3016 29.2156 59.3636 28.9124 59.4255C28.5998 59.472 28.2718 59.503 27.9346 59.503C27.2012 59.503 26.5328 59.4007 25.9201 59.1993C25.3075 58.9855 24.7783 58.6663 24.3296 58.2479C23.8872 57.8233 23.5344 57.3089 23.2807 56.6984C23.03 56.0816 22.9062 55.3875 22.9062 54.6034C22.9062 53.8193 23.0269 53.1344 23.2807 52.5146C23.5344 51.9041 23.8872 51.3897 24.3513 50.9651C24.7969 50.5436 25.3477 50.2213 25.9758 50.0013C26.6102 49.7812 27.3033 49.6697 28.0707 49.6697C28.6772 49.6697 29.2311 49.7348 29.7293 49.8556C30.2336 49.9858 30.6699 50.1314 31.0567 50.2988C30.9887 50.4289 30.9206 50.6056 30.8773 50.8256C30.8339 51.0457 30.7937 51.2254 30.7597 51.3773L30.6854 51.4083C30.5957 51.2905 30.4595 51.1696 30.3079 51.0426C30.1408 50.9 29.9428 50.7667 29.7231 50.6366C29.5096 50.5064 29.2558 50.398 28.9835 50.3112C28.6989 50.2275 28.4049 50.1841 28.0707 50.1841C27.5292 50.1841 27.031 50.274 26.5669 50.4506C26.1027 50.6242 25.6942 50.8845 25.3477 51.2471C25.0042 51.6128 24.7412 52.0808 24.5524 52.6293C24.3513 53.1871 24.2554 53.8472 24.2554 54.6065C24.2554 55.3658 24.3513 56.0321 24.5524 56.5868C24.7412 57.1446 25.0042 57.6033 25.3477 57.9628C25.6942 58.3316 26.1027 58.5981 26.5669 58.7716C27.0279 58.9452 27.5292 59.0381 28.0707 59.0381C28.4049 59.0381 28.7081 58.9948 28.9928 58.9111C29.2682 58.8274 29.525 58.722 29.7633 58.6198C29.9954 58.502 30.2027 58.3688 30.3915 58.2417C30.5864 58.1022 30.738 57.9907 30.8711 57.8884L30.9113 57.9442L30.7937 58.7561C30.7071 58.8336 30.5864 58.9111 30.4038 59.001Z" fill="url(#paint0_linear_384_2197)"/>
<path d="M30.4038 59.001C30.2182 59.0815 30.0047 59.1652 29.7602 59.2334C29.5096 59.3016 29.2156 59.3636 28.9124 59.4255C28.5998 59.472 28.2718 59.503 27.9346 59.503C27.2012 59.503 26.5328 59.4007 25.9201 59.1993C25.3075 58.9855 24.7783 58.6663 24.3296 58.2479C23.8872 57.8233 23.5344 57.3089 23.2807 56.6984C23.03 56.0816 22.9062 55.3875 22.9062 54.6034C22.9062 53.8193 23.0269 53.1344 23.2807 52.5146C23.5344 51.9041 23.8872 51.3897 24.3513 50.9651C24.7969 50.5436 25.3477 50.2213 25.9758 50.0013C26.6102 49.7812 27.3033 49.6697 28.0707 49.6697C28.6772 49.6697 29.2311 49.7348 29.7293 49.8556C30.2336 49.9858 30.6699 50.1314 31.0567 50.2988C30.9887 50.4289 30.9206 50.6056 30.8773 50.8256C30.8339 51.0457 30.7937 51.2254 30.7597 51.3773L30.6854 51.4083C30.5957 51.2905 30.4595 51.1696 30.3079 51.0426C30.1408 50.9 29.9428 50.7667 29.7231 50.6366C29.5096 50.5064 29.2558 50.398 28.9835 50.3112C28.6989 50.2275 28.4049 50.1841 28.0707 50.1841C27.5292 50.1841 27.031 50.274 26.5669 50.4506C26.1027 50.6242 25.6942 50.8845 25.3477 51.2471C25.0042 51.6128 24.7412 52.0808 24.5524 52.6293C24.3513 53.1871 24.2554 53.8472 24.2554 54.6065C24.2554 55.3658 24.3513 56.0321 24.5524 56.5868C24.7412 57.1446 25.0042 57.6033 25.3477 57.9628C25.6942 58.3316 26.1027 58.5981 26.5669 58.7716C27.0279 58.9452 27.5292 59.0381 28.0707 59.0381C28.4049 59.0381 28.7081 58.9948 28.9928 58.9111C29.2682 58.8274 29.525 58.722 29.7633 58.6198C29.9954 58.502 30.2027 58.3688 30.3915 58.2417C30.5864 58.1022 30.738 57.9907 30.8711 57.8884L30.9113 57.9442L30.7937 58.7561C30.7071 58.8336 30.5864 58.9111 30.4038 59.001Z" fill="url(#paint1_linear_384_2197)"/>
<path d="M42.1838 51.6327C42.1652 51.0501 42.1343 50.4582 42.1002 49.8477C42.2271 49.8693 42.3385 49.8817 42.4561 49.8941C42.5675 49.9158 42.6727 49.9158 42.7841 49.9158C42.8955 49.9158 43.0007 49.9158 43.109 49.8941C43.2204 49.8817 43.338 49.8663 43.4556 49.8477C43.4246 50.4582 43.3999 51.0532 43.3813 51.6327C43.3658 52.2246 43.3503 52.8104 43.3503 53.4178V55.7979C43.3503 56.3991 43.3658 56.9972 43.3813 57.5922C43.3999 58.1717 43.4277 58.7482 43.4556 59.3184C43.2389 59.3029 43.0193 59.2936 42.7841 59.2936C42.5489 59.2936 42.3168 59.2998 42.0971 59.3184C42.1312 58.7482 42.1621 58.1717 42.1807 57.5922C42.2023 56.9972 42.2116 56.3991 42.2116 55.7979V54.552C41.7165 54.552 41.2431 54.5365 40.7789 54.5303C40.3179 54.5303 39.8352 54.521 39.3401 54.521C38.845 54.521 38.3654 54.5272 37.9074 54.5303C37.4433 54.5365 36.9605 54.552 36.4654 54.552V55.7979C36.4654 56.3991 36.4716 56.9972 36.5026 57.5922C36.5242 58.1717 36.549 58.7482 36.5799 59.3184C36.3664 59.3029 36.1405 59.2936 35.9023 59.2936C35.664 59.2936 35.4412 59.2998 35.2246 59.3184C35.2617 58.7482 35.2865 58.1717 35.3082 57.5922C35.3267 56.9972 35.3391 56.3991 35.3391 55.7979V53.4178C35.3391 52.8135 35.3267 52.2246 35.3082 51.6327C35.2865 51.0501 35.2586 50.4582 35.2246 49.8477C35.3484 49.8693 35.466 49.8817 35.5743 49.8941C35.6888 49.9158 35.7971 49.9158 35.9023 49.9158C36.0168 49.9158 36.1251 49.9158 36.2334 49.8941C36.3417 49.8817 36.4593 49.8663 36.5799 49.8477C36.549 50.4582 36.5242 51.0532 36.5026 51.6327C36.4747 52.2246 36.4654 52.8104 36.4654 53.4178V53.9074C36.9605 53.9105 37.4433 53.9229 37.9074 53.9353C38.3685 53.9384 38.8512 53.9477 39.3401 53.9477C39.829 53.9477 40.3179 53.9415 40.7789 53.9353C41.2431 53.926 41.7165 53.9136 42.2116 53.9074V53.4178C42.2116 52.8135 42.2023 52.2246 42.1807 51.6327" fill="url(#paint2_linear_384_2197)"/>
<path d="M42.1838 51.6327C42.1652 51.0501 42.1343 50.4582 42.1002 49.8477C42.2271 49.8693 42.3385 49.8817 42.4561 49.8941C42.5675 49.9158 42.6727 49.9158 42.7841 49.9158C42.8955 49.9158 43.0007 49.9158 43.109 49.8941C43.2204 49.8817 43.338 49.8663 43.4556 49.8477C43.4246 50.4582 43.3999 51.0532 43.3813 51.6327C43.3658 52.2246 43.3503 52.8104 43.3503 53.4178V55.7979C43.3503 56.3991 43.3658 56.9972 43.3813 57.5922C43.3999 58.1717 43.4277 58.7482 43.4556 59.3184C43.2389 59.3029 43.0193 59.2936 42.7841 59.2936C42.5489 59.2936 42.3168 59.2998 42.0971 59.3184C42.1312 58.7482 42.1621 58.1717 42.1807 57.5922C42.2023 56.9972 42.2116 56.3991 42.2116 55.7979V54.552C41.7165 54.552 41.2431 54.5365 40.7789 54.5303C40.3179 54.5303 39.8352 54.521 39.3401 54.521C38.845 54.521 38.3654 54.5272 37.9074 54.5303C37.4433 54.5365 36.9605 54.552 36.4654 54.552V55.7979C36.4654 56.3991 36.4716 56.9972 36.5026 57.5922C36.5242 58.1717 36.549 58.7482 36.5799 59.3184C36.3664 59.3029 36.1405 59.2936 35.9023 59.2936C35.664 59.2936 35.4412 59.2998 35.2246 59.3184C35.2617 58.7482 35.2865 58.1717 35.3082 57.5922C35.3267 56.9972 35.3391 56.3991 35.3391 55.7979V53.4178C35.3391 52.8135 35.3267 52.2246 35.3082 51.6327C35.2865 51.0501 35.2586 50.4582 35.2246 49.8477C35.3484 49.8693 35.466 49.8817 35.5743 49.8941C35.6888 49.9158 35.7971 49.9158 35.9023 49.9158C36.0168 49.9158 36.1251 49.9158 36.2334 49.8941C36.3417 49.8817 36.4593 49.8663 36.5799 49.8477C36.549 50.4582 36.5242 51.0532 36.5026 51.6327C36.4747 52.2246 36.4654 52.8104 36.4654 53.4178V53.9074C36.9605 53.9105 37.4433 53.9229 37.9074 53.9353C38.3685 53.9384 38.8512 53.9477 39.3401 53.9477C39.829 53.9477 40.3179 53.9415 40.7789 53.9353C41.2431 53.926 41.7165 53.9136 42.2116 53.9074V53.4178C42.2116 52.8135 42.2023 52.2246 42.1807 51.6327" fill="url(#paint3_linear_384_2197)"/>
<path d="M48.1396 52.5141C48.3778 51.9035 48.7306 51.386 49.1824 50.9645C49.6403 50.5369 50.1911 50.2208 50.8162 50.0038C51.4598 49.7807 52.1529 49.666 52.8956 49.666C53.6382 49.666 54.353 49.7776 54.9873 50.0038C55.6279 50.2177 56.1725 50.5369 56.6242 50.9645C57.0853 51.3829 57.4319 51.9004 57.6794 52.5141C57.9393 53.1308 58.06 53.825 58.06 54.6059C58.06 55.3869 57.9393 56.0842 57.6794 56.6916C57.4319 57.3083 57.0853 57.8259 56.6242 58.2473C56.1725 58.6626 55.6279 58.9818 54.9873 59.1894C54.353 59.394 53.666 59.4994 52.8956 59.4994C52.1251 59.4994 51.4598 59.3971 50.8162 59.1894C50.1911 58.9818 49.6403 58.6626 49.1824 58.2473C48.7306 57.8228 48.3778 57.3052 48.1396 56.6916C47.8734 56.0873 47.7559 55.39 47.7559 54.6059C47.7559 53.8219 47.8765 53.1277 48.1396 52.5141ZM56.4293 52.6256C56.2282 52.0771 55.9528 51.6153 55.6124 51.2434C55.2751 50.8809 54.8728 50.6143 54.4056 50.4439C53.9445 50.261 53.4402 50.1836 52.8956 50.1836C52.351 50.1836 51.8682 50.261 51.4103 50.4439C50.9399 50.6143 50.5346 50.8809 50.1942 51.2434C49.8538 51.6153 49.5846 52.0771 49.3897 52.6256C49.1854 53.1835 49.0957 53.8436 49.0957 54.6059C49.0957 55.3683 49.1885 56.0284 49.3897 56.5831C49.5846 57.141 49.8538 57.5996 50.1942 57.9591C50.5346 58.3155 50.9399 58.5975 51.4103 58.7711C51.8682 58.9415 52.3757 59.0314 52.8956 59.0314C53.4402 59.0314 53.9445 58.9415 54.4056 58.7711C54.8728 58.5975 55.2782 58.3155 55.6124 57.9591C55.9497 57.5996 56.2282 57.141 56.4293 56.5831C56.618 56.0284 56.7078 55.3652 56.7078 54.6059C56.7078 53.8467 56.618 53.1835 56.4293 52.6256Z" fill="url(#paint4_linear_384_2197)"/>
<path d="M48.1396 52.5141C48.3778 51.9035 48.7306 51.386 49.1824 50.9645C49.6403 50.5369 50.1911 50.2208 50.8162 50.0038C51.4598 49.7807 52.1529 49.666 52.8956 49.666C53.6382 49.666 54.353 49.7776 54.9873 50.0038C55.6279 50.2177 56.1725 50.5369 56.6242 50.9645C57.0853 51.3829 57.4319 51.9004 57.6794 52.5141C57.9393 53.1308 58.06 53.825 58.06 54.6059C58.06 55.3869 57.9393 56.0842 57.6794 56.6916C57.4319 57.3083 57.0853 57.8259 56.6242 58.2473C56.1725 58.6626 55.6279 58.9818 54.9873 59.1894C54.353 59.394 53.666 59.4994 52.8956 59.4994C52.1251 59.4994 51.4598 59.3971 50.8162 59.1894C50.1911 58.9818 49.6403 58.6626 49.1824 58.2473C48.7306 57.8228 48.3778 57.3052 48.1396 56.6916C47.8734 56.0873 47.7559 55.39 47.7559 54.6059C47.7559 53.8219 47.8765 53.1277 48.1396 52.5141ZM56.4293 52.6256C56.2282 52.0771 55.9528 51.6153 55.6124 51.2434C55.2751 50.8809 54.8728 50.6143 54.4056 50.4439C53.9445 50.261 53.4402 50.1836 52.8956 50.1836C52.351 50.1836 51.8682 50.261 51.4103 50.4439C50.9399 50.6143 50.5346 50.8809 50.1942 51.2434C49.8538 51.6153 49.5846 52.0771 49.3897 52.6256C49.1854 53.1835 49.0957 53.8436 49.0957 54.6059C49.0957 55.3683 49.1885 56.0284 49.3897 56.5831C49.5846 57.141 49.8538 57.5996 50.1942 57.9591C50.5346 58.3155 50.9399 58.5975 51.4103 58.7711C51.8682 58.9415 52.3757 59.0314 52.8956 59.0314C53.4402 59.0314 53.9445 58.9415 54.4056 58.7711C54.8728 58.5975 55.2782 58.3155 55.6124 57.9591C55.9497 57.5996 56.2282 57.141 56.4293 56.5831C56.618 56.0284 56.7078 55.3652 56.7078 54.6059C56.7078 53.8467 56.618 53.1835 56.4293 52.6256Z" fill="url(#paint5_linear_384_2197)"/>
<path d="M69.1882 59.001C69.0149 59.0815 68.7983 59.1652 68.5476 59.2334C68.2877 59.3016 68.0154 59.3636 67.6998 59.4255C67.3873 59.472 67.0593 59.503 66.722 59.503C65.9979 59.503 65.3234 59.4007 64.7107 59.1993C64.1011 58.9855 63.5658 58.6663 63.114 58.2479C62.6684 57.8233 62.328 57.3089 62.0681 56.6984C61.8206 56.0816 61.6875 55.3875 61.6875 54.6034C61.6875 53.8193 61.8175 53.1344 62.0681 52.5146C62.328 51.9041 62.6777 51.3897 63.1326 50.9651C63.5843 50.5436 64.1196 50.2213 64.7664 50.0013C65.4007 49.7812 66.1031 49.6697 66.855 49.6697C67.4677 49.6697 68.0185 49.7348 68.5198 49.8556C69.0118 49.9858 69.4574 50.1314 69.838 50.2988C69.7668 50.4289 69.7111 50.6056 69.6678 50.8256C69.6121 51.0457 69.575 51.2254 69.5502 51.3773L69.4698 51.4083C69.38 51.2905 69.2563 51.1696 69.0861 51.0426C68.9252 50.9 68.7271 50.7667 68.5198 50.6366C68.2877 50.5064 68.0402 50.398 67.7617 50.3112C67.4925 50.2275 67.1892 50.1841 66.855 50.1841C66.3104 50.1841 65.8092 50.274 65.345 50.4506C64.8839 50.6242 64.4817 50.8845 64.1413 51.2471C63.8009 51.6128 63.5255 52.0808 63.3368 52.6293C63.148 53.1871 63.0459 53.8472 63.0459 54.6065C63.0459 55.3658 63.148 56.0321 63.3368 56.5868C63.5255 57.1446 63.7978 57.6033 64.1413 57.9628C64.4817 58.3316 64.887 58.5981 65.345 58.7716C65.8123 58.9452 66.3104 59.0381 66.855 59.0381C67.1892 59.0381 67.4894 58.9948 67.7648 58.9111C68.0433 58.8274 68.3094 58.722 68.5446 58.6198C68.7797 58.502 68.987 58.3688 69.1727 58.2417C69.3707 58.1022 69.5255 57.9907 69.6492 57.8884L69.7049 57.9442L69.575 58.7561C69.4976 58.8336 69.3769 58.9111 69.1851 59.001" fill="url(#paint6_linear_384_2197)"/>
<path d="M69.1882 59.001C69.0149 59.0815 68.7983 59.1652 68.5476 59.2334C68.2877 59.3016 68.0154 59.3636 67.6998 59.4255C67.3873 59.472 67.0593 59.503 66.722 59.503C65.9979 59.503 65.3234 59.4007 64.7107 59.1993C64.1011 58.9855 63.5658 58.6663 63.114 58.2479C62.6684 57.8233 62.328 57.3089 62.0681 56.6984C61.8206 56.0816 61.6875 55.3875 61.6875 54.6034C61.6875 53.8193 61.8175 53.1344 62.0681 52.5146C62.328 51.9041 62.6777 51.3897 63.1326 50.9651C63.5843 50.5436 64.1196 50.2213 64.7664 50.0013C65.4007 49.7812 66.1031 49.6697 66.855 49.6697C67.4677 49.6697 68.0185 49.7348 68.5198 49.8556C69.0118 49.9858 69.4574 50.1314 69.838 50.2988C69.7668 50.4289 69.7111 50.6056 69.6678 50.8256C69.6121 51.0457 69.575 51.2254 69.5502 51.3773L69.4698 51.4083C69.38 51.2905 69.2563 51.1696 69.0861 51.0426C68.9252 50.9 68.7271 50.7667 68.5198 50.6366C68.2877 50.5064 68.0402 50.398 67.7617 50.3112C67.4925 50.2275 67.1892 50.1841 66.855 50.1841C66.3104 50.1841 65.8092 50.274 65.345 50.4506C64.8839 50.6242 64.4817 50.8845 64.1413 51.2471C63.8009 51.6128 63.5255 52.0808 63.3368 52.6293C63.148 53.1871 63.0459 53.8472 63.0459 54.6065C63.0459 55.3658 63.148 56.0321 63.3368 56.5868C63.5255 57.1446 63.7978 57.6033 64.1413 57.9628C64.4817 58.3316 64.887 58.5981 65.345 58.7716C65.8123 58.9452 66.3104 59.0381 66.855 59.0381C67.1892 59.0381 67.4894 58.9948 67.7648 58.9111C68.0433 58.8274 68.3094 58.722 68.5446 58.6198C68.7797 58.502 68.987 58.3688 69.1727 58.2417C69.3707 58.1022 69.5255 57.9907 69.6492 57.8884L69.7049 57.9442L69.575 58.7561C69.4976 58.8336 69.3769 58.9111 69.1851 59.001" fill="url(#paint7_linear_384_2197)"/>
<path d="M73.7431 52.5141C73.9906 51.9035 74.3403 51.386 74.789 50.9645C75.2407 50.5369 75.7946 50.2208 76.4197 50.0038C77.0602 49.7807 77.7564 49.666 78.5022 49.666C79.2479 49.666 79.9658 49.7776 80.5939 50.0038C81.2283 50.2177 81.7791 50.5369 82.2216 50.9645C82.6733 51.3829 83.0323 51.9004 83.286 52.5141C83.5305 53.1308 83.6635 53.825 83.6635 54.6059C83.6635 55.3869 83.5305 56.0842 83.286 56.6916C83.0292 57.3083 82.6702 57.8259 82.2216 58.2473C81.776 58.6626 81.2252 58.9818 80.5939 59.1894C79.9658 59.394 79.2603 59.4994 78.5022 59.4994C77.7441 59.4994 77.0602 59.3971 76.4197 59.1894C75.7946 58.9818 75.2407 58.6626 74.789 58.2473C74.3403 57.8228 73.9906 57.3052 73.7431 56.6916C73.4862 56.0873 73.3594 55.39 73.3594 54.6059C73.3594 53.8219 73.4862 53.1277 73.7431 52.5141ZM82.0173 52.6256C81.8317 52.0771 81.5656 51.6153 81.2221 51.2434C80.8848 50.8809 80.4702 50.6143 80.0029 50.4439C79.545 50.261 79.0437 50.1836 78.5022 50.1836C77.9607 50.1836 77.4748 50.261 77.0107 50.4439C76.5527 50.6143 76.1412 50.8809 75.7977 51.2434C75.4481 51.6153 75.1819 52.0771 74.9963 52.6256C74.789 53.1835 74.6992 53.8436 74.6992 54.6059C74.6992 55.3683 74.789 56.0284 74.9963 56.5831C75.1819 57.141 75.4481 57.5996 75.7977 57.9591C76.1381 58.3155 76.5496 58.5975 77.0107 58.7711C77.4748 58.9415 77.9699 59.0314 78.5022 59.0314C79.0344 59.0314 79.548 58.9415 80.0029 58.7711C80.4702 58.5975 80.8848 58.3155 81.2221 57.9591C81.5656 57.5996 81.8317 57.141 82.0173 56.5831C82.2247 56.0284 82.3206 55.3652 82.3206 54.6059C82.3206 53.8467 82.2247 53.1835 82.0173 52.6256Z" fill="url(#paint8_linear_384_2197)"/>
<path d="M73.7431 52.5141C73.9906 51.9035 74.3403 51.386 74.789 50.9645C75.2407 50.5369 75.7946 50.2208 76.4197 50.0038C77.0602 49.7807 77.7564 49.666 78.5022 49.666C79.2479 49.666 79.9658 49.7776 80.5939 50.0038C81.2283 50.2177 81.7791 50.5369 82.2216 50.9645C82.6733 51.3829 83.0323 51.9004 83.286 52.5141C83.5305 53.1308 83.6635 53.825 83.6635 54.6059C83.6635 55.3869 83.5305 56.0842 83.286 56.6916C83.0292 57.3083 82.6702 57.8259 82.2216 58.2473C81.776 58.6626 81.2252 58.9818 80.5939 59.1894C79.9658 59.394 79.2603 59.4994 78.5022 59.4994C77.7441 59.4994 77.0602 59.3971 76.4197 59.1894C75.7946 58.9818 75.2407 58.6626 74.789 58.2473C74.3403 57.8228 73.9906 57.3052 73.7431 56.6916C73.4862 56.0873 73.3594 55.39 73.3594 54.6059C73.3594 53.8219 73.4862 53.1277 73.7431 52.5141ZM82.0173 52.6256C81.8317 52.0771 81.5656 51.6153 81.2221 51.2434C80.8848 50.8809 80.4702 50.6143 80.0029 50.4439C79.545 50.261 79.0437 50.1836 78.5022 50.1836C77.9607 50.1836 77.4748 50.261 77.0107 50.4439C76.5527 50.6143 76.1412 50.8809 75.7977 51.2434C75.4481 51.6153 75.1819 52.0771 74.9963 52.6256C74.789 53.1835 74.6992 53.8436 74.6992 54.6059C74.6992 55.3683 74.789 56.0284 74.9963 56.5831C75.1819 57.141 75.4481 57.5996 75.7977 57.9591C76.1381 58.3155 76.5496 58.5975 77.0107 58.7711C77.4748 58.9415 77.9699 59.0314 78.5022 59.0314C79.0344 59.0314 79.548 58.9415 80.0029 58.7711C80.4702 58.5975 80.8848 58.3155 81.2221 57.9591C81.5656 57.5996 81.8317 57.141 82.0173 56.5831C82.2247 56.0284 82.3206 55.3652 82.3206 54.6059C82.3206 53.8467 82.2247 53.1835 82.0173 52.6256Z" fill="url(#paint9_linear_384_2197)"/>
<path d="M88.0383 51.6327C88.0104 51.0501 87.9888 50.4582 87.9609 49.8477C88.0785 49.8693 88.1961 49.8817 88.3044 49.8941C88.422 49.9158 88.5272 49.9158 88.6386 49.9158C88.75 49.9158 88.8552 49.9158 88.9635 49.8941C89.0749 49.8817 89.1894 49.8663 89.3101 49.8477C89.2791 50.4582 89.2606 51.0532 89.242 51.6327C89.2111 52.2246 89.2049 52.8104 89.2049 53.4178C89.2049 54.5768 89.2049 55.5809 89.2111 56.4301C89.2327 57.2823 89.242 58.0416 89.2482 58.7172C89.898 58.7172 90.5231 58.711 91.111 58.6955C91.7051 58.6769 92.3518 58.6242 93.0449 58.5312C92.9923 58.7048 92.9676 58.8349 92.9676 58.9496C92.9676 59.0488 92.9923 59.1727 93.0449 59.3153C92.621 59.2998 92.1909 59.2905 91.7763 59.2905H89.2389C88.8212 59.2905 88.4034 59.2967 87.9609 59.3153C87.9888 58.7451 88.0104 58.1686 88.0383 57.5891C88.0538 56.9941 88.0692 56.396 88.0692 55.7948V53.4147C88.0692 52.8104 88.0569 52.2215 88.0383 51.6296" fill="url(#paint10_linear_384_2197)"/>
<path d="M88.0383 51.6327C88.0104 51.0501 87.9888 50.4582 87.9609 49.8477C88.0785 49.8693 88.1961 49.8817 88.3044 49.8941C88.422 49.9158 88.5272 49.9158 88.6386 49.9158C88.75 49.9158 88.8552 49.9158 88.9635 49.8941C89.0749 49.8817 89.1894 49.8663 89.3101 49.8477C89.2791 50.4582 89.2606 51.0532 89.242 51.6327C89.2111 52.2246 89.2049 52.8104 89.2049 53.4178C89.2049 54.5768 89.2049 55.5809 89.2111 56.4301C89.2327 57.2823 89.242 58.0416 89.2482 58.7172C89.898 58.7172 90.5231 58.711 91.111 58.6955C91.7051 58.6769 92.3518 58.6242 93.0449 58.5312C92.9923 58.7048 92.9676 58.8349 92.9676 58.9496C92.9676 59.0488 92.9923 59.1727 93.0449 59.3153C92.621 59.2998 92.1909 59.2905 91.7763 59.2905H89.2389C88.8212 59.2905 88.4034 59.2967 87.9609 59.3153C87.9888 58.7451 88.0104 58.1686 88.0383 57.5891C88.0538 56.9941 88.0692 56.396 88.0692 55.7948V53.4147C88.0692 52.8104 88.0569 52.2215 88.0383 51.6296" fill="url(#paint11_linear_384_2197)"/>
<path d="M105.026 59.3162C104.906 59.3007 104.791 59.2883 104.661 59.2883H103.94C103.814 59.2883 103.699 59.3007 103.569 59.3162C103.501 59.1116 103.417 58.8575 103.303 58.56C103.195 58.2532 103.08 57.9433 102.941 57.6241C102.814 57.2956 102.672 56.9578 102.539 56.6262C102.399 56.2946 102.269 55.9816 102.158 55.6717C101.858 55.6593 101.561 55.6531 101.258 55.65C100.948 55.65 100.648 55.6438 100.342 55.6438C100.066 55.6438 99.7847 55.65 99.5031 55.65C99.2246 55.65 98.9492 55.6593 98.6676 55.6717C98.3675 56.3845 98.1045 57.0693 97.8693 57.7171C97.631 58.3648 97.4515 58.9071 97.3309 59.3193C97.17 59.3038 97.0029 59.2914 96.8203 59.2914C96.6377 59.2914 96.4675 59.3038 96.3066 59.3193C97.0586 57.717 97.7795 56.1148 98.482 54.5219C99.1937 52.9352 99.8992 51.3206 100.617 49.6719H100.88C101.097 50.2018 101.341 50.7844 101.601 51.4043C101.855 52.0241 102.121 52.647 102.381 53.2885C102.65 53.9145 102.913 54.5529 103.173 55.1789C103.442 55.7987 103.693 56.3844 103.937 56.9206C104.166 57.4567 104.38 57.9371 104.562 58.3586C104.757 58.7769 104.903 59.0992 105.023 59.3193M98.9306 55.0364C99.172 55.0364 99.4165 55.0364 99.6764 55.0488C99.9332 55.055 100.175 55.0611 100.416 55.0611C100.676 55.0611 100.936 55.0612 101.19 55.0488C101.449 55.0488 101.697 55.0395 101.963 55.0333L100.431 51.5344L98.9306 55.0333V55.0364Z" fill="url(#paint12_linear_384_2197)"/>
<path d="M105.026 59.3162C104.906 59.3007 104.791 59.2883 104.661 59.2883H103.94C103.814 59.2883 103.699 59.3007 103.569 59.3162C103.501 59.1116 103.417 58.8575 103.303 58.56C103.195 58.2532 103.08 57.9433 102.941 57.6241C102.814 57.2956 102.672 56.9578 102.539 56.6262C102.399 56.2946 102.269 55.9816 102.158 55.6717C101.858 55.6593 101.561 55.6531 101.258 55.65C100.948 55.65 100.648 55.6438 100.342 55.6438C100.066 55.6438 99.7847 55.65 99.5031 55.65C99.2246 55.65 98.9492 55.6593 98.6676 55.6717C98.3675 56.3845 98.1045 57.0693 97.8693 57.7171C97.631 58.3648 97.4515 58.9071 97.3309 59.3193C97.17 59.3038 97.0029 59.2914 96.8203 59.2914C96.6377 59.2914 96.4675 59.3038 96.3066 59.3193C97.0586 57.717 97.7795 56.1148 98.482 54.5219C99.1937 52.9352 99.8992 51.3206 100.617 49.6719H100.88C101.097 50.2018 101.341 50.7844 101.601 51.4043C101.855 52.0241 102.121 52.647 102.381 53.2885C102.65 53.9145 102.913 54.5529 103.173 55.1789C103.442 55.7987 103.693 56.3844 103.937 56.9206C104.166 57.4567 104.38 57.9371 104.562 58.3586C104.757 58.7769 104.903 59.0992 105.023 59.3193M98.9306 55.0364C99.172 55.0364 99.4165 55.0364 99.6764 55.0488C99.9332 55.055 100.175 55.0611 100.416 55.0611C100.676 55.0611 100.936 55.0612 101.19 55.0488C101.449 55.0488 101.697 55.0395 101.963 55.0333L100.431 51.5344L98.9306 55.0333V55.0364Z" fill="url(#paint13_linear_384_2197)"/>
<path d="M109.943 50.5697C109.705 50.5697 109.457 50.5728 109.188 50.5728C108.919 50.5728 108.668 50.5883 108.405 50.6007C108.139 50.6131 107.895 50.6348 107.653 50.6441C107.409 50.6689 107.186 50.6937 106.994 50.7185C107.044 50.548 107.059 50.4024 107.059 50.2722C107.059 50.1762 107.047 50.0367 106.994 49.8477C107.604 49.8693 108.189 49.8817 108.77 49.9034C109.346 49.9158 109.943 49.9158 110.546 49.9158C111.15 49.9158 111.741 49.9158 112.323 49.9034C112.895 49.8817 113.495 49.8693 114.099 49.8477C114.049 50.0367 114.028 50.1793 114.028 50.2939C114.028 50.4086 114.049 50.5511 114.099 50.7185C113.91 50.6937 113.687 50.6689 113.437 50.6441C113.201 50.6348 112.945 50.6131 112.694 50.6007C112.428 50.5883 112.165 50.5728 111.899 50.5728C111.633 50.5728 111.397 50.5697 111.156 50.5697C111.134 51.515 111.119 52.4633 111.119 53.4178V55.7979C111.119 56.3991 111.125 56.9972 111.147 57.5922C111.168 58.1717 111.193 58.7482 111.215 59.3184C111.017 59.3029 110.779 59.2936 110.546 59.2936C110.314 59.2936 110.082 59.2998 109.869 59.3184C109.89 58.7482 109.924 58.1717 109.946 57.5922C109.968 56.9972 109.983 56.3991 109.983 55.7979V53.4178C109.983 52.4633 109.971 51.515 109.943 50.5697Z" fill="url(#paint14_linear_384_2197)"/>
<path d="M109.943 50.5697C109.705 50.5697 109.457 50.5728 109.188 50.5728C108.919 50.5728 108.668 50.5883 108.405 50.6007C108.139 50.6131 107.895 50.6348 107.653 50.6441C107.409 50.6689 107.186 50.6937 106.994 50.7185C107.044 50.548 107.059 50.4024 107.059 50.2722C107.059 50.1762 107.047 50.0367 106.994 49.8477C107.604 49.8693 108.189 49.8817 108.77 49.9034C109.346 49.9158 109.943 49.9158 110.546 49.9158C111.15 49.9158 111.741 49.9158 112.323 49.9034C112.895 49.8817 113.495 49.8693 114.099 49.8477C114.049 50.0367 114.028 50.1793 114.028 50.2939C114.028 50.4086 114.049 50.5511 114.099 50.7185C113.91 50.6937 113.687 50.6689 113.437 50.6441C113.201 50.6348 112.945 50.6131 112.694 50.6007C112.428 50.5883 112.165 50.5728 111.899 50.5728C111.633 50.5728 111.397 50.5697 111.156 50.5697C111.134 51.515 111.119 52.4633 111.119 53.4178V55.7979C111.119 56.3991 111.125 56.9972 111.147 57.5922C111.168 58.1717 111.193 58.7482 111.215 59.3184C111.017 59.3029 110.779 59.2936 110.546 59.2936C110.314 59.2936 110.082 59.2998 109.869 59.3184C109.89 58.7482 109.924 58.1717 109.946 57.5922C109.968 56.9972 109.983 56.3991 109.983 55.7979V53.4178C109.983 52.4633 109.971 51.515 109.943 50.5697Z" fill="url(#paint15_linear_384_2197)"/>
<path d="M118.165 51.6327C118.14 51.0501 118.116 50.4582 118.088 49.8477C118.221 49.8693 118.323 49.8817 118.434 49.8941C118.546 49.9158 118.651 49.9158 118.762 49.9158C118.874 49.9158 118.985 49.9158 119.094 49.8941C119.214 49.8817 119.326 49.8663 119.44 49.8477C119.415 50.4582 119.384 51.0532 119.369 51.6327C119.347 52.2246 119.329 52.8104 119.329 53.4178V55.7979C119.329 56.3991 119.347 56.9972 119.369 57.5922C119.384 58.1717 119.415 58.7482 119.44 59.3184C119.233 59.3029 119.007 59.2936 118.762 59.2936C118.518 59.2936 118.301 59.2998 118.088 59.3184C118.116 58.7482 118.14 58.1717 118.165 57.5922C118.187 56.9972 118.212 56.3991 118.212 55.7979V53.4178C118.212 52.8135 118.19 52.2246 118.165 51.6327Z" fill="url(#paint16_linear_384_2197)"/>
<path d="M118.165 51.6327C118.14 51.0501 118.116 50.4582 118.088 49.8477C118.221 49.8693 118.323 49.8817 118.434 49.8941C118.546 49.9158 118.651 49.9158 118.762 49.9158C118.874 49.9158 118.985 49.9158 119.094 49.8941C119.214 49.8817 119.326 49.8663 119.44 49.8477C119.415 50.4582 119.384 51.0532 119.369 51.6327C119.347 52.2246 119.329 52.8104 119.329 53.4178V55.7979C119.329 56.3991 119.347 56.9972 119.369 57.5922C119.384 58.1717 119.415 58.7482 119.44 59.3184C119.233 59.3029 119.007 59.2936 118.762 59.2936C118.518 59.2936 118.301 59.2998 118.088 59.3184C118.116 58.7482 118.14 58.1717 118.165 57.5922C118.187 56.9972 118.212 56.3991 118.212 55.7979V53.4178C118.212 52.8135 118.19 52.2246 118.165 51.6327Z" fill="url(#paint17_linear_384_2197)"/>
<path d="M124.469 51.611C124.444 51.0284 124.42 50.4427 124.395 49.8477C124.813 49.8693 125.23 49.8817 125.63 49.8941C126.035 49.9158 126.45 49.9158 126.864 49.9158C127.279 49.9158 127.675 49.9158 128.083 49.8941C128.492 49.8817 128.894 49.8663 129.306 49.8477C129.275 49.984 129.265 50.1235 129.265 50.2629C129.265 50.4024 129.275 50.5356 129.306 50.6782C129.012 50.6565 128.758 50.6348 128.504 50.6224C128.266 50.6069 128 50.5883 127.731 50.5697C127.461 50.548 127.161 50.5356 126.846 50.5171C126.527 50.5047 126.14 50.4985 125.682 50.4985C125.676 50.7929 125.673 51.0749 125.66 51.3383C125.636 51.6048 125.636 51.9116 125.636 52.2494V53.3C125.642 53.6378 125.642 53.8919 125.642 54.0686C126.05 54.0686 126.403 54.0593 126.731 54.0469C127.053 54.0407 127.341 54.0314 127.607 54.0159C127.876 54.0004 128.127 53.988 128.349 53.9725C128.572 53.957 128.789 53.9477 128.981 53.9291C128.962 54.0655 128.944 54.208 128.944 54.3568C128.944 54.4932 128.959 54.6326 128.981 54.769C128.752 54.738 128.467 54.7194 128.154 54.707C127.833 54.6822 127.517 54.6698 127.198 54.6605C126.886 54.6605 126.583 54.6543 126.307 54.6481C126.029 54.6419 125.812 54.6419 125.639 54.6419C125.639 54.7256 125.639 54.8124 125.633 54.9115V57.9393C125.639 58.2771 125.645 58.5343 125.657 58.7141H126.614C126.969 58.7141 127.307 58.7079 127.65 58.6924C127.978 58.6738 128.294 58.6583 128.594 58.6273C128.888 58.6118 129.154 58.5715 129.374 58.525C129.355 58.5901 129.343 58.6645 129.343 58.7389C129.337 58.8194 129.337 58.8876 129.337 58.9589C129.337 59.1046 129.349 59.2254 129.374 59.3122C128.962 59.2967 128.547 59.2843 128.142 59.2843H125.639C125.233 59.2843 124.813 59.2967 124.389 59.3122C124.413 58.7234 124.438 58.1408 124.463 57.555C124.491 56.9693 124.497 56.3743 124.497 55.77V53.4054C124.497 52.8011 124.491 52.1998 124.463 51.6079" fill="url(#paint18_linear_384_2197)"/>
<path d="M124.469 51.611C124.444 51.0284 124.42 50.4427 124.395 49.8477C124.813 49.8693 125.23 49.8817 125.63 49.8941C126.035 49.9158 126.45 49.9158 126.864 49.9158C127.279 49.9158 127.675 49.9158 128.083 49.8941C128.492 49.8817 128.894 49.8663 129.306 49.8477C129.275 49.984 129.265 50.1235 129.265 50.2629C129.265 50.4024 129.275 50.5356 129.306 50.6782C129.012 50.6565 128.758 50.6348 128.504 50.6224C128.266 50.6069 128 50.5883 127.731 50.5697C127.461 50.548 127.161 50.5356 126.846 50.5171C126.527 50.5047 126.14 50.4985 125.682 50.4985C125.676 50.7929 125.673 51.0749 125.66 51.3383C125.636 51.6048 125.636 51.9116 125.636 52.2494V53.3C125.642 53.6378 125.642 53.8919 125.642 54.0686C126.05 54.0686 126.403 54.0593 126.731 54.0469C127.053 54.0407 127.341 54.0314 127.607 54.0159C127.876 54.0004 128.127 53.988 128.349 53.9725C128.572 53.957 128.789 53.9477 128.981 53.9291C128.962 54.0655 128.944 54.208 128.944 54.3568C128.944 54.4932 128.959 54.6326 128.981 54.769C128.752 54.738 128.467 54.7194 128.154 54.707C127.833 54.6822 127.517 54.6698 127.198 54.6605C126.886 54.6605 126.583 54.6543 126.307 54.6481C126.029 54.6419 125.812 54.6419 125.639 54.6419C125.639 54.7256 125.639 54.8124 125.633 54.9115V57.9393C125.639 58.2771 125.645 58.5343 125.657 58.7141H126.614C126.969 58.7141 127.307 58.7079 127.65 58.6924C127.978 58.6738 128.294 58.6583 128.594 58.6273C128.888 58.6118 129.154 58.5715 129.374 58.525C129.355 58.5901 129.343 58.6645 129.343 58.7389C129.337 58.8194 129.337 58.8876 129.337 58.9589C129.337 59.1046 129.349 59.2254 129.374 59.3122C128.962 59.2967 128.547 59.2843 128.142 59.2843H125.639C125.233 59.2843 124.813 59.2967 124.389 59.3122C124.413 58.7234 124.438 58.1408 124.463 57.555C124.491 56.9693 124.497 56.3743 124.497 55.77V53.4054C124.497 52.8011 124.491 52.1998 124.463 51.6079" fill="url(#paint19_linear_384_2197)"/>
<path d="M133.838 51.6327C133.813 51.0532 133.788 50.4582 133.757 49.8477C134.023 49.8693 134.277 49.8817 134.537 49.8941C134.794 49.9158 135.06 49.9158 135.323 49.9158C135.586 49.9158 135.852 49.9034 136.112 49.8817C136.369 49.8601 136.623 49.8477 136.898 49.8477C137.276 49.8477 137.65 49.8879 138.003 49.9623C138.343 50.0367 138.649 50.1514 138.903 50.3249C139.169 50.4985 139.377 50.7185 139.528 50.9943C139.683 51.2732 139.76 51.6141 139.76 52.0263C139.76 52.4664 139.661 52.8537 139.457 53.1637C139.262 53.486 139.021 53.7463 138.742 53.9508C138.451 54.1585 138.151 54.3196 137.82 54.4374C137.492 54.5458 137.198 54.6233 136.932 54.6636C137.044 54.8 137.189 54.9983 137.39 55.24C137.579 55.488 137.789 55.7514 138.037 56.0644C138.272 56.3588 138.516 56.6749 138.77 57.0003C139.033 57.3195 139.271 57.6387 139.519 57.9331C139.757 58.2368 139.986 58.5064 140.197 58.7513C140.401 59.0023 140.571 59.1882 140.701 59.3153C140.565 59.3029 140.426 59.2874 140.293 59.2874H139.476C139.343 59.2874 139.21 59.3029 139.08 59.3153C138.943 59.1294 138.73 58.8349 138.451 58.4445C138.173 58.0664 137.87 57.6542 137.523 57.2141C137.186 56.771 136.839 56.3309 136.48 55.8939C136.131 55.4539 135.812 55.0851 135.506 54.7814H134.986V55.7917C134.986 56.396 135.001 56.9941 135.026 57.5891C135.054 58.1748 135.072 58.7513 135.103 59.3153C134.887 59.3029 134.664 59.2874 134.426 59.2874C134.187 59.2874 133.952 59.3029 133.748 59.3153C133.779 58.7513 133.804 58.1717 133.829 57.5891C133.85 56.9941 133.859 56.396 133.859 55.7917V53.4178C133.859 52.8166 133.853 52.2246 133.829 51.6327M135.416 54.2638C135.558 54.2731 135.728 54.2731 135.92 54.2731C136.202 54.2731 136.493 54.2359 136.808 54.1801C137.118 54.1151 137.393 54.0004 137.659 53.8424C137.913 53.6812 138.12 53.4581 138.297 53.1884C138.467 52.9188 138.541 52.5717 138.541 52.1689C138.541 51.8094 138.482 51.5026 138.349 51.2763C138.213 51.0439 138.043 50.8517 137.836 50.7154C137.622 50.5759 137.396 50.4861 137.149 50.4303C136.901 50.3931 136.66 50.3559 136.425 50.3559C136.094 50.3559 135.831 50.3714 135.629 50.3776C135.41 50.3931 135.23 50.4117 135.085 50.4241C135.069 50.9292 135.048 51.4344 135.038 51.9302C135.014 52.4292 134.998 52.9188 134.998 53.4178V54.2049C135.128 54.2328 135.267 54.2514 135.422 54.2638" fill="url(#paint20_linear_384_2197)"/>
<path d="M133.838 51.6327C133.813 51.0532 133.788 50.4582 133.757 49.8477C134.023 49.8693 134.277 49.8817 134.537 49.8941C134.794 49.9158 135.06 49.9158 135.323 49.9158C135.586 49.9158 135.852 49.9034 136.112 49.8817C136.369 49.8601 136.623 49.8477 136.898 49.8477C137.276 49.8477 137.65 49.8879 138.003 49.9623C138.343 50.0367 138.649 50.1514 138.903 50.3249C139.169 50.4985 139.377 50.7185 139.528 50.9943C139.683 51.2732 139.76 51.6141 139.76 52.0263C139.76 52.4664 139.661 52.8537 139.457 53.1637C139.262 53.486 139.021 53.7463 138.742 53.9508C138.451 54.1585 138.151 54.3196 137.82 54.4374C137.492 54.5458 137.198 54.6233 136.932 54.6636C137.044 54.8 137.189 54.9983 137.39 55.24C137.579 55.488 137.789 55.7514 138.037 56.0644C138.272 56.3588 138.516 56.6749 138.77 57.0003C139.033 57.3195 139.271 57.6387 139.519 57.9331C139.757 58.2368 139.986 58.5064 140.197 58.7513C140.401 59.0023 140.571 59.1882 140.701 59.3153C140.565 59.3029 140.426 59.2874 140.293 59.2874H139.476C139.343 59.2874 139.21 59.3029 139.08 59.3153C138.943 59.1294 138.73 58.8349 138.451 58.4445C138.173 58.0664 137.87 57.6542 137.523 57.2141C137.186 56.771 136.839 56.3309 136.48 55.8939C136.131 55.4539 135.812 55.0851 135.506 54.7814H134.986V55.7917C134.986 56.396 135.001 56.9941 135.026 57.5891C135.054 58.1748 135.072 58.7513 135.103 59.3153C134.887 59.3029 134.664 59.2874 134.426 59.2874C134.187 59.2874 133.952 59.3029 133.748 59.3153C133.779 58.7513 133.804 58.1717 133.829 57.5891C133.85 56.9941 133.859 56.396 133.859 55.7917V53.4178C133.859 52.8166 133.853 52.2246 133.829 51.6327M135.416 54.2638C135.558 54.2731 135.728 54.2731 135.92 54.2731C136.202 54.2731 136.493 54.2359 136.808 54.1801C137.118 54.1151 137.393 54.0004 137.659 53.8424C137.913 53.6812 138.12 53.4581 138.297 53.1884C138.467 52.9188 138.541 52.5717 138.541 52.1689C138.541 51.8094 138.482 51.5026 138.349 51.2763C138.213 51.0439 138.043 50.8517 137.836 50.7154C137.622 50.5759 137.396 50.4861 137.149 50.4303C136.901 50.3931 136.66 50.3559 136.425 50.3559C136.094 50.3559 135.831 50.3714 135.629 50.3776C135.41 50.3931 135.23 50.4117 135.085 50.4241C135.069 50.9292 135.048 51.4344 135.038 51.9302C135.014 52.4292 134.998 52.9188 134.998 53.4178V54.2049C135.128 54.2328 135.267 54.2514 135.422 54.2638" fill="url(#paint21_linear_384_2197)"/>
<path d="M146.82 31.6428C146.82 33.1551 146.907 34.3978 147.077 35.3555C147.272 36.3131 147.56 37.063 147.968 37.5806C148.374 38.1105 148.94 38.4576 149.636 38.6684C150.348 38.8636 151.23 38.9659 152.297 38.9473V32.2781C152.291 32.0735 152.291 31.8597 152.297 31.6428V18.825H152.242C152.124 17.3096 151.845 16.008 151.412 14.9202C150.83 13.4946 150.048 12.3728 149.067 11.5794C148.095 10.7675 146.981 10.1941 145.762 9.87184C144.543 9.54644 143.277 9.39149 141.968 9.40079C140.752 9.40698 139.641 9.56813 138.636 9.84085C137.627 10.1415 136.751 10.5195 135.981 10.9782C135.213 11.4431 134.57 11.9203 134.072 12.441H133.765C133.477 11.6786 132.905 11.0836 132.094 10.6528C131.274 10.2313 130.117 10.0144 128.598 10.0082V16.7239C128.604 16.9036 128.604 17.0989 128.598 17.2941V31.7791C128.604 33.2295 128.694 34.4133 128.851 35.3462C129.043 36.3038 129.328 37.0537 129.752 37.5713C130.148 38.1012 130.72 38.4483 131.414 38.6591C132.131 38.8543 133.013 38.9566 134.072 38.938V15.3696C134.57 14.7963 135.142 14.2694 135.783 13.7767C136.408 13.2932 137.104 12.8872 137.822 12.6052C138.568 12.3046 139.338 12.159 140.152 12.1404C140.987 12.128 141.81 12.2705 142.6 12.5711C143.401 12.8624 144.106 13.3366 144.747 13.9719C145.378 14.6103 145.876 15.4657 146.254 16.5038C146.625 17.5606 146.817 18.8405 146.82 20.356V31.6397V31.6428Z" fill="url(#paint22_linear_384_2197)"/>
<path d="M88.2476 12.7937H94.2723C94.984 12.7659 95.5843 12.7225 96.0825 12.6357C96.8034 12.5148 97.3697 12.3196 97.7627 12.0345C98.1526 11.7618 98.4156 11.3775 98.5765 10.9095C98.7374 10.4385 98.8024 10.488 98.79 9.78456V9.75357H94.4951C94.427 9.75357 94.362 9.75976 94.2815 9.76596L94.2692 9.75357H88.2445V7.45716C88.2104 6.50265 88.1455 5.69069 88.0434 5.012C87.8639 4.05129 87.607 3.28272 87.2295 2.75588C86.8675 2.21974 86.3538 1.86025 85.7164 1.65881C85.0883 1.44807 84.2837 1.3613 83.3183 1.3675H83.275V7.14725C83.2874 7.24022 83.2966 7.3363 83.2966 7.43856L83.275 7.45406V9.75047C82.031 10.1348 80.7748 10.1533 80.2828 11.6254C80.1466 12.1058 80.0631 12.0469 80.0754 12.7566V12.7937H82.0775C82.1486 12.7845 82.2229 12.7814 82.2941 12.7752L82.3034 12.7937H83.2781V33.1236H83.2843V33.2569L83.2874 33.3003V33.4273L83.2966 33.4707V33.604L83.3059 33.6443V33.6845H83.3121V33.8457L83.3183 33.886V34.0471L83.3338 34.0874V34.2393L83.3431 34.2858L83.3492 34.323V34.3601L83.3554 34.3973V34.4779L83.3585 34.5058L83.3709 34.5492V34.6638L83.3771 34.701L83.3833 34.732V34.8064L83.3926 34.8374L83.3987 34.8777V34.9118L83.4049 34.949V35.0636L83.4266 35.0791V35.1876L83.439 35.2217H83.4421V35.2589L83.4483 35.2899V35.3209L83.4545 35.3611L83.4668 35.3921V35.4231L83.473 35.4541V35.4944L83.4854 35.5254V35.5657L83.4916 35.606L83.504 35.6617V35.702L83.5163 35.7485L83.5349 35.7857V35.826V35.8756L83.5504 35.9128L83.5627 35.9562L83.5689 35.9933L83.5782 36.0398L83.5906 36.0801L83.6061 36.1235L83.6185 36.1638V36.2041L83.6277 36.2475L83.6401 36.2847L83.6525 36.3249L83.6649 36.3652L83.671 36.4055L83.6834 36.4427L83.6958 36.4892L83.702 36.5202L83.7144 36.5605L83.736 36.5946V36.6349L83.7577 36.672V36.703L83.7763 36.7402L83.7917 36.7774L83.7979 36.8177L83.8134 36.8487L83.8196 36.8828L83.8412 36.9138L83.8474 36.9541L83.8598 36.9819H83.866L83.8722 37.0129L83.8907 37.0532L83.9 37.0842L83.9124 37.1152L83.9248 37.1462L83.9372 37.1803L83.9588 37.2175L83.9743 37.2485L83.9867 37.2733L83.9929 37.3043L84.0145 37.3476L84.0269 37.3724L84.0393 37.4003L84.064 37.4251L84.0702 37.453L84.0919 37.4871L84.1074 37.5088L84.1197 37.546L84.1352 37.5677L84.1476 37.5956L84.1723 37.6235L84.1847 37.6483L84.194 37.6792L84.2157 37.7071L84.2373 37.7257L84.2497 37.7474L84.2744 37.7877H84.2775L84.2899 37.8094L84.3116 37.8311L84.324 37.8621L84.3394 37.8838L84.3518 37.8993H84.3642L84.3828 37.9241L84.3951 37.9458L84.4106 37.9675L84.4261 37.9984L84.4508 38.0201L84.4663 38.0356L84.488 38.0635L84.5065 38.0821L84.5375 38.1038L84.5468 38.1317L84.5684 38.1503L84.5901 38.1658L84.6024 38.1906L84.6272 38.203L84.652 38.2309L84.6705 38.2526L84.6922 38.2681L84.7138 38.2898L84.7355 38.3083L84.751 38.3269L84.7819 38.3455L84.8005 38.3672L84.8252 38.3858L84.8407 38.4013L84.8593 38.4137L84.8902 38.4292L84.9181 38.4478L84.9397 38.4695L84.9614 38.485L84.9923 38.5005L85.0202 38.516L85.0388 38.5315L85.0666 38.547L85.0914 38.5594L85.1161 38.5873L85.1378 38.5997L85.1656 38.6152L85.1904 38.6214L85.212 38.643L85.2399 38.6492L85.277 38.6616L85.2956 38.6802L85.3265 38.6926L85.3482 38.705L85.3791 38.7174L85.407 38.7298L85.4348 38.7453L85.4565 38.7577H85.4627L85.4843 38.7701L85.5153 38.7825L85.5369 38.7949L85.5679 38.8042L85.6019 38.8166L85.6267 38.829L85.6607 38.8445H85.6917L85.7195 38.86L85.7504 38.8662L85.7814 38.8786L85.8154 38.8848L85.8433 38.8972L85.8742 38.9096L85.899 38.9158L85.933 38.9313L85.9671 38.9375H85.9949L86.0042 38.9406L86.0227 38.9468L86.0506 38.9592H86.0908L86.1218 38.9715H86.1341L86.1589 38.9777L86.1867 38.9901L86.2177 38.9963L86.261 39.0025L86.2858 39.0118L86.3291 39.018L86.3631 39.0242L86.3848 39.0366H86.425L86.4652 39.0428L86.4931 39.049H86.5302L86.5612 39.0552L86.6014 39.0645H86.6416H86.6849L86.7128 39.0769H86.7499L86.7871 39.0831L86.8273 39.0893L86.8613 39.0955H86.8984L86.9325 39.1017L86.9758 39.1079H87.0532L87.0903 39.1141H87.1274L87.1707 39.1172L87.2017 39.1296H87.2852L87.3224 39.1358H87.4028L87.4492 39.1451H87.5699L87.6194 39.1482H91.7875L91.8339 39.1544H92.131C89.5317 38.1782 88.6437 36.8921 88.3559 34.6948C88.1857 33.3839 88.2259 31.7259 88.2259 29.6186V12.7752L88.2476 12.7937Z" fill="url(#paint23_linear_384_2197)"/>
<path d="M104.554 38.8627C105.783 39.1881 107.042 39.3369 108.345 39.3338C109.561 39.3245 110.681 39.1726 111.671 38.8875C112.674 38.5931 113.559 38.215 114.339 37.7595C115.109 37.2915 115.74 36.808 116.248 36.2874H116.554C116.826 37.0188 117.346 37.5859 118.108 38.0105C118.383 38.1964 118.702 38.339 119.057 38.4381C119.772 38.6365 120.654 38.7357 121.716 38.7264V18.5917H121.654C121.542 17.0763 121.264 15.784 120.824 14.6993C120.246 13.2613 119.469 12.1519 118.488 11.3523C117.51 10.5404 116.396 9.97323 115.174 9.65403C113.955 9.32243 112.686 9.17368 111.384 9.17987C110.167 9.18917 109.053 9.34102 108.057 9.63234C107.048 9.92365 106.17 10.2955 105.393 10.7511C104.663 11.1912 104.065 11.6529 103.567 12.1302V15.0526C104.056 14.5072 104.595 14.0082 105.192 13.5527C105.814 13.0692 106.504 12.6632 107.243 12.3781C107.974 12.0868 108.741 11.9287 109.558 11.9163C110.406 11.9101 111.216 12.0496 112.009 12.344C112.81 12.6415 113.528 13.1126 114.159 13.7448C114.79 14.3832 115.295 15.2354 115.672 16.2922C116.044 17.3273 116.235 18.6196 116.245 20.1413V23.2372C115.737 22.7197 115.106 22.2269 114.336 21.7652C113.556 21.3034 112.674 20.9346 111.668 20.6433C110.678 20.3613 109.558 20.2032 108.342 20.197C107.039 20.1816 105.78 20.3334 104.551 20.6619C103.332 20.9842 102.224 21.5606 101.243 22.3664C96.6761 26.0946 96.6668 33.4332 101.243 37.1675C102.224 37.9733 103.335 38.5435 104.551 38.8658M107.72 23.3581C108.506 23.0699 109.329 22.9211 110.167 22.9273C110.984 22.9428 111.749 23.0916 112.491 23.3891C113.225 23.6804 113.912 24.074 114.534 24.5605C115.174 25.0533 115.74 25.5739 116.245 26.1535V33.3588C115.737 33.9445 115.174 34.4713 114.534 34.9579C113.912 35.4444 113.222 35.8442 112.491 36.1324C111.749 36.43 110.984 36.5818 110.167 36.5911C109.332 36.5973 108.509 36.4578 107.72 36.1634C101.726 33.9693 101.726 25.5584 107.72 23.3581Z" fill="url(#paint24_linear_384_2197)"/>
<path d="M162.983 10.8832C162.621 10.3408 162.113 9.99374 161.485 9.7861C160.838 9.57537 160.034 9.48549 159.068 9.49479H159.031V15.2714C159.037 15.3706 159.047 15.4636 159.047 15.569L159.031 15.5907V32.7781C159.053 33.7295 159.133 34.5383 159.232 35.2108C159.412 36.187 159.675 36.9525 160.04 37.4732C160.411 38.0155 160.925 38.3719 161.559 38.5826C162.197 38.7841 162.986 38.8708 163.957 38.8646H163.998V33.0787C163.991 32.9919 163.982 32.8958 163.976 32.7967L163.998 32.7781V15.5907C163.97 14.633 163.899 13.8211 163.784 13.1362C163.626 12.1693 163.357 11.4131 162.98 10.8863" fill="url(#paint25_linear_384_2197)"/>
<path d="M159.138 6.89193C159.661 7.24522 160.227 7.42497 160.859 7.44356C161.719 7.42807 162.396 7.18634 162.891 6.71528C163.39 6.22873 163.637 5.56243 163.653 4.68849C163.637 3.9912 163.498 3.3497 163.185 2.75778C162.882 2.17825 162.477 1.70099 161.969 1.3446C161.453 0.985111 160.886 0.802266 160.255 0.792969C159.389 0.802266 158.708 1.04709 158.213 1.51815C157.718 2.0016 157.473 2.6741 157.461 3.53874C157.476 4.23603 157.628 4.88064 157.925 5.46946C158.231 6.05518 158.637 6.52314 159.138 6.89503" fill="url(#paint26_linear_384_2197)"/>
<path d="M37.3216 11.0133C35.8023 11.8408 34.4996 12.9378 33.4073 14.2735C32.2593 15.6743 31.4114 17.2734 30.8019 18.981C30.1551 20.8002 29.8457 22.6844 29.8457 24.6151C29.8457 26.3909 30.0809 28.1543 30.5883 29.8618C31.0432 31.4641 31.7425 32.9826 32.7296 34.34C33.6703 35.6509 34.8493 36.7015 36.2386 37.4886C37.7177 38.3254 39.3268 38.6849 41.0101 38.6849C42.6934 38.6849 44.3241 38.2634 45.8156 37.4545C47.338 36.6302 48.6562 35.5424 49.7547 34.2129C50.9243 32.8214 51.797 31.2223 52.422 29.5178C53.0811 27.7018 53.3998 25.8145 53.3998 23.8899C53.3998 22.1421 53.1585 20.4128 52.6974 18.7269C52.2363 17.1185 51.5494 15.5968 50.5809 14.2178C49.6464 12.9038 48.4829 11.8284 47.0843 11.0257C45.5959 10.1549 43.9404 9.80469 42.2262 9.80469C40.5119 9.80469 38.8564 10.2076 37.3216 11.0195M45.3948 14.9026C45.9734 15.4202 46.4592 16.0152 46.877 16.6629C47.3287 17.3695 47.7 18.1195 48.0064 18.9066C48.3127 19.7434 48.5541 20.6111 48.7119 21.4913C48.8883 22.4086 48.9687 23.3197 48.9687 24.2494C48.9687 25.8362 48.8264 27.457 48.4086 28.9848C48.0683 30.1686 47.5917 31.3463 46.8522 32.338C46.2364 33.1561 45.4783 33.8503 44.5531 34.3028C43.6279 34.7646 42.6532 34.966 41.6228 34.966C40.5923 34.966 39.7197 34.6778 38.8719 34.1385C37.9374 33.528 37.1607 32.7254 36.5295 31.7957C35.793 30.7203 35.2577 29.5116 34.8771 28.2689C34.4656 26.8836 34.2675 25.4488 34.2675 23.9891C34.2675 22.5294 34.416 20.9706 34.7936 19.5141C35.1092 18.3271 35.5702 17.1743 36.2726 16.1609C36.873 15.2931 37.6218 14.5927 38.5563 14.0876C39.5093 13.5732 40.549 13.3624 41.6228 13.3624C42.3159 13.3624 42.9905 13.4957 43.6279 13.7684C44.2808 14.0504 44.8718 14.4378 45.3979 14.8995" fill="url(#paint27_linear_384_2197)"/>
<path d="M8.51562 0.500126H0V7.8821C0.0123774 10.662 0.0123774 13.4635 0.0216604 16.2496L0 16.2558V19.6276C0.0216604 19.6152 0.0556981 19.5966 0.0835472 19.5811C0.0959245 22.7514 0.0464151 26.6903 0.0556981 29.8669C0.0711698 42.6257 26.5185 41.8324 26.1008 28.2399C26.1317 24.0747 23.9069 21.0779 20.5062 19.5935C19.3953 19.11 18.2814 18.8683 17.1241 18.6297L15.2303 19.1534C19.878 20.0428 21.9977 24.0778 21.7068 28.0167C21.4314 31.7418 18.9033 35.3925 12.9065 35.8914C8.98596 36.223 5.17064 33.9142 5.19849 29.3524C5.20158 25.7885 5.25419 22.3299 5.15826 18.766C6.46408 18.89 7.68634 19.2123 8.9674 19.2123C15.7192 19.1844 21.6449 17.1483 21.9667 9.65166C22.1617 5.27578 18.6774 1.02077 11.7399 0.620989C10.5981 0.531117 9.52438 0.48773 8.51562 0.500126ZM17.9905 10.0483C17.5449 17.0584 8.6951 17.2227 5.13041 16.2465V3.06615C5.52649 2.97628 5.96279 2.87401 6.43932 2.79343C11.1768 1.92879 18.4485 2.99797 17.9905 10.0483Z" fill="url(#paint28_linear_384_2197)"/>
<path d="M66.4474 36.1119C65.6676 36.366 64.8693 36.4838 64.0431 36.4745C63.2385 36.4745 62.4773 36.3412 61.744 36.0902C61.0261 35.8423 60.333 35.5014 59.6924 35.0799C59.0828 34.7018 58.5413 34.2679 58.0493 33.8093L58.1298 36.2916C58.6218 36.7069 59.2499 37.0943 59.9833 37.4724C60.7507 37.8566 61.6264 38.182 62.6289 38.43C63.6191 38.6686 64.7238 38.8081 65.9182 38.8143C67.2024 38.8205 68.4432 38.6934 69.6438 38.4176C70.832 38.1418 71.8996 37.6583 72.8434 36.9641C77.2373 33.7814 77.0238 27.5306 72.4133 24.3447C68.7681 21.8066 62.6166 23.2198 62.5361 17.3532C62.5083 15.249 63.8265 13.1602 66.5433 12.2863C67.976 11.8183 69.5788 11.8307 70.996 12.3111C71.9893 12.655 73.1435 13.2718 73.9233 14.0093L75.0373 12.7232C71.5902 9.85659 67.8986 9.08803 63.5139 10.1107C62.3907 10.3741 61.385 10.8266 60.4908 11.4805C56.332 14.4959 56.5362 20.412 60.8899 23.4212C63.6779 25.3612 67.2333 24.6422 69.4551 27.4221C70.4019 28.5997 70.8011 30.0284 70.6495 31.392C70.4298 33.3909 69.0342 35.2751 66.4474 36.1088" fill="url(#paint29_linear_384_2197)"/>
</g>
<defs>
<linearGradient id="paint0_linear_384_2197" x1="-24.7156" y1="-216.45" x2="64.906" y2="248.873" gradientUnits="userSpaceOnUse">
<stop stop-color="#C69B50"/>
<stop offset="0.28" stop-color="#F7D287"/>
<stop offset="0.53" stop-color="#C69B50"/>
<stop offset="1" stop-color="#8B6D35"/>
</linearGradient>
<linearGradient id="paint1_linear_384_2197" x1="-24.7156" y1="-216.45" x2="64.906" y2="248.873" gradientUnits="userSpaceOnUse">
<stop stop-color="#C69B50"/>
<stop offset="0.28" stop-color="#F7D287"/>
<stop offset="0.53" stop-color="#C69B50"/>
<stop offset="1" stop-color="#8B6D35"/>
</linearGradient>
<linearGradient id="paint2_linear_384_2197" x1="-13.1306" y1="-218.683" x2="76.491" y2="246.64" gradientUnits="userSpaceOnUse">
<stop stop-color="#C69B50"/>
<stop offset="0.28" stop-color="#F7D287"/>
<stop offset="0.53" stop-color="#C69B50"/>
<stop offset="1" stop-color="#8B6D35"/>
</linearGradient>
<linearGradient id="paint3_linear_384_2197" x1="-13.1306" y1="-218.683" x2="76.491" y2="246.64" gradientUnits="userSpaceOnUse">
<stop stop-color="#C69B50"/>
<stop offset="0.28" stop-color="#F7D287"/>
<stop offset="0.53" stop-color="#C69B50"/>
<stop offset="1" stop-color="#8B6D35"/>
</linearGradient>
<linearGradient id="paint4_linear_384_2197" x1="-0.0516954" y1="-221.202" x2="89.5701" y2="244.122" gradientUnits="userSpaceOnUse">
<stop stop-color="#C69B50"/>
<stop offset="0.28" stop-color="#F7D287"/>
<stop offset="0.53" stop-color="#C69B50"/>
<stop offset="1" stop-color="#8B6D35"/>
</linearGradient>
<linearGradient id="paint5_linear_384_2197" x1="-0.0516954" y1="-221.202" x2="89.5701" y2="244.122" gradientUnits="userSpaceOnUse">
<stop stop-color="#C69B50"/>
<stop offset="0.28" stop-color="#F7D287"/>
<stop offset="0.53" stop-color="#C69B50"/>
<stop offset="1" stop-color="#8B6D35"/>
</linearGradient>
<linearGradient id="paint6_linear_384_2197" x1="12.6917" y1="-223.655" x2="102.313" y2="241.668" gradientUnits="userSpaceOnUse">
<stop stop-color="#C69B50"/>
<stop offset="0.28" stop-color="#F7D287"/>
<stop offset="0.53" stop-color="#C69B50"/>
<stop offset="1" stop-color="#8B6D35"/>
</linearGradient>
<linearGradient id="paint7_linear_384_2197" x1="12.6917" y1="-223.655" x2="102.313" y2="241.668" gradientUnits="userSpaceOnUse">
<stop stop-color="#C69B50"/>
<stop offset="0.28" stop-color="#F7D287"/>
<stop offset="0.53" stop-color="#C69B50"/>
<stop offset="1" stop-color="#8B6D35"/>
</linearGradient>
<linearGradient id="paint8_linear_384_2197" x1="24.639" y1="-225.956" x2="114.261" y2="239.365" gradientUnits="userSpaceOnUse">
<stop stop-color="#C69B50"/>
<stop offset="0.28" stop-color="#F7D287"/>
<stop offset="0.53" stop-color="#C69B50"/>
<stop offset="1" stop-color="#8B6D35"/>
</linearGradient>
<linearGradient id="paint9_linear_384_2197" x1="24.639" y1="-225.956" x2="114.261" y2="239.365" gradientUnits="userSpaceOnUse">
<stop stop-color="#C69B50"/>
<stop offset="0.28" stop-color="#F7D287"/>
<stop offset="0.53" stop-color="#C69B50"/>
<stop offset="1" stop-color="#8B6D35"/>
</linearGradient>
<linearGradient id="paint10_linear_384_2197" x1="35.4035" y1="-228.03" x2="125.025" y2="237.29" gradientUnits="userSpaceOnUse">
<stop stop-color="#C69B50"/>
<stop offset="0.28" stop-color="#F7D287"/>
<stop offset="0.53" stop-color="#C69B50"/>
<stop offset="1" stop-color="#8B6D35"/>
</linearGradient>
<linearGradient id="paint11_linear_384_2197" x1="35.4035" y1="-228.03" x2="125.025" y2="237.29" gradientUnits="userSpaceOnUse">
<stop stop-color="#C69B50"/>
<stop offset="0.28" stop-color="#F7D287"/>
<stop offset="0.53" stop-color="#C69B50"/>
<stop offset="1" stop-color="#8B6D35"/>
</linearGradient>
<linearGradient id="paint12_linear_384_2197" x1="45.1324" y1="-229.904" x2="134.754" y2="235.419" gradientUnits="userSpaceOnUse">
<stop stop-color="#C69B50"/>
<stop offset="0.28" stop-color="#F7D287"/>
<stop offset="0.53" stop-color="#C69B50"/>
<stop offset="1" stop-color="#8B6D35"/>
</linearGradient>
<linearGradient id="paint13_linear_384_2197" x1="45.1324" y1="-229.904" x2="134.754" y2="235.419" gradientUnits="userSpaceOnUse">
<stop stop-color="#C69B50"/>
<stop offset="0.28" stop-color="#F7D287"/>
<stop offset="0.53" stop-color="#C69B50"/>
<stop offset="1" stop-color="#8B6D35"/>
</linearGradient>
<linearGradient id="paint14_linear_384_2197" x1="56.3336" y1="-232.059" x2="145.955" y2="233.262" gradientUnits="userSpaceOnUse">
<stop stop-color="#C69B50"/>
<stop offset="0.28" stop-color="#F7D287"/>
<stop offset="0.53" stop-color="#C69B50"/>
<stop offset="1" stop-color="#8B6D35"/>
</linearGradient>
<linearGradient id="paint15_linear_384_2197" x1="56.3336" y1="-232.059" x2="145.955" y2="233.262" gradientUnits="userSpaceOnUse">
<stop stop-color="#C69B50"/>
<stop offset="0.28" stop-color="#F7D287"/>
<stop offset="0.53" stop-color="#C69B50"/>
<stop offset="1" stop-color="#8B6D35"/>
</linearGradient>
<linearGradient id="paint16_linear_384_2197" x1="63.4605" y1="-233.435" x2="153.082" y2="231.889" gradientUnits="userSpaceOnUse">
<stop stop-color="#C69B50"/>
<stop offset="0.28" stop-color="#F7D287"/>
<stop offset="0.53" stop-color="#C69B50"/>
<stop offset="1" stop-color="#8B6D35"/>
</linearGradient>
<linearGradient id="paint17_linear_384_2197" x1="63.4605" y1="-233.435" x2="153.082" y2="231.889" gradientUnits="userSpaceOnUse">
<stop stop-color="#C69B50"/>
<stop offset="0.28" stop-color="#F7D287"/>
<stop offset="0.53" stop-color="#C69B50"/>
<stop offset="1" stop-color="#8B6D35"/>
</linearGradient>
<linearGradient id="paint18_linear_384_2197" x1="71.2588" y1="-234.938" x2="160.88" y2="230.386" gradientUnits="userSpaceOnUse">
<stop stop-color="#C69B50"/>
<stop offset="0.28" stop-color="#F7D287"/>
<stop offset="0.53" stop-color="#C69B50"/>
<stop offset="1" stop-color="#8B6D35"/>
</linearGradient>
<linearGradient id="paint19_linear_384_2197" x1="71.2588" y1="-234.938" x2="160.88" y2="230.386" gradientUnits="userSpaceOnUse">
<stop stop-color="#C69B50"/>
<stop offset="0.28" stop-color="#F7D287"/>
<stop offset="0.53" stop-color="#C69B50"/>
<stop offset="1" stop-color="#8B6D35"/>
</linearGradient>
<linearGradient id="paint20_linear_384_2197" x1="80.6368" y1="-236.744" x2="170.258" y2="228.579" gradientUnits="userSpaceOnUse">
<stop stop-color="#C69B50"/>
<stop offset="0.28" stop-color="#F7D287"/>
<stop offset="0.53" stop-color="#C69B50"/>
<stop offset="1" stop-color="#8B6D35"/>
</linearGradient>
<linearGradient id="paint21_linear_384_2197" x1="80.6368" y1="-236.744" x2="170.258" y2="228.579" gradientUnits="userSpaceOnUse">
<stop stop-color="#C69B50"/>
<stop offset="0.28" stop-color="#F7D287"/>
<stop offset="0.53" stop-color="#C69B50"/>
<stop offset="1" stop-color="#8B6D35"/>
</linearGradient>
<linearGradient id="paint22_linear_384_2197" x1="89.609" y1="-238.469" x2="179.231" y2="226.852" gradientUnits="userSpaceOnUse">
<stop stop-color="#C69B50"/>
<stop offset="0.28" stop-color="#F7D287"/>
<stop offset="0.53" stop-color="#C69B50"/>
<stop offset="1" stop-color="#8B6D35"/>
</linearGradient>
<linearGradient id="paint23_linear_384_2197" x1="42.7298" y1="-229.442" x2="132.352" y2="235.882" gradientUnits="userSpaceOnUse">
<stop stop-color="#C69B50"/>
<stop offset="0.28" stop-color="#F7D287"/>
<stop offset="0.53" stop-color="#C69B50"/>
<stop offset="1" stop-color="#8B6D35"/>
</linearGradient>
<linearGradient id="paint24_linear_384_2197" x1="60.3517" y1="-232.835" x2="149.973" y2="232.488" gradientUnits="userSpaceOnUse">
<stop stop-color="#C69B50"/>
<stop offset="0.28" stop-color="#F7D287"/>
<stop offset="0.53" stop-color="#C69B50"/>
<stop offset="1" stop-color="#8B6D35"/>
</linearGradient>
<linearGradient id="paint25_linear_384_2197" x1="110.317" y1="-242.456" x2="199.939" y2="222.867" gradientUnits="userSpaceOnUse">
<stop stop-color="#C69B50"/>
<stop offset="0.28" stop-color="#F7D287"/>
<stop offset="0.53" stop-color="#C69B50"/>
<stop offset="1" stop-color="#8B6D35"/>
</linearGradient>
<linearGradient id="paint26_linear_384_2197" x1="113.11" y1="-242.995" x2="202.731" y2="222.328" gradientUnits="userSpaceOnUse">
<stop stop-color="#C69B50"/>
<stop offset="0.28" stop-color="#F7D287"/>
<stop offset="0.53" stop-color="#C69B50"/>
<stop offset="1" stop-color="#8B6D35"/>
</linearGradient>
<linearGradient id="paint27_linear_384_2197" x1="-5.3122" y1="-220.186" x2="84.3095" y2="245.137" gradientUnits="userSpaceOnUse">
<stop stop-color="#C69B50"/>
<stop offset="0.28" stop-color="#F7D287"/>
<stop offset="0.53" stop-color="#C69B50"/>
<stop offset="1" stop-color="#8B6D35"/>
</linearGradient>
<linearGradient id="paint28_linear_384_2197" x1="-33.7005" y1="-214.721" x2="55.9212" y2="250.603" gradientUnits="userSpaceOnUse">
<stop stop-color="#C69B50"/>
<stop offset="0.28" stop-color="#F7D287"/>
<stop offset="0.53" stop-color="#C69B50"/>
<stop offset="1" stop-color="#8B6D35"/>
</linearGradient>
<linearGradient id="paint29_linear_384_2197" x1="18.711" y1="-224.814" x2="108.333" y2="240.51" gradientUnits="userSpaceOnUse">
<stop stop-color="#C69B50"/>
<stop offset="0.28" stop-color="#F7D287"/>
<stop offset="0.53" stop-color="#C69B50"/>
<stop offset="1" stop-color="#8B6D35"/>
</linearGradient>
<clipPath id="clip0_384_2197">
<rect width="164" height="59" fill="white" transform="translate(0 0.5)"/>
</clipPath>
</defs>
</svg>
