<svg width="36" height="36" viewBox="0 0 36 36" fill="none" xmlns="http://www.w3.org/2000/svg">
<circle cx="18.3414" cy="17.9027" r="17.4977" fill="#603913"/>
<path d="M22.2865 15.4411C22.2865 15.6658 22.1992 15.8812 22.044 16.0401C21.8887 16.199 21.6781 16.2882 21.4585 16.2882C21.239 16.2882 21.0284 16.199 20.8731 16.0401C20.7178 15.8812 20.6306 15.6658 20.6306 15.4411C20.6306 15.2164 20.7178 15.001 20.8731 14.8421C21.0284 14.6832 21.239 14.594 21.4585 14.594C21.6781 14.594 21.8887 14.6832 22.044 14.8421C22.1992 15.001 22.2865 15.2164 22.2865 15.4411ZM17.3189 15.4411C17.3189 15.6658 17.2317 15.8812 17.0764 16.0401C16.9212 16.199 16.7106 16.2882 16.491 16.2882C16.2714 16.2882 16.0608 16.199 15.9056 16.0401C15.7503 15.8812 15.6631 15.6658 15.6631 15.4411C15.6631 15.2164 15.7503 15.001 15.9056 14.8421C16.0608 14.6832 16.2714 14.594 16.491 14.594C16.7106 14.594 16.9212 14.6832 17.0764 14.8421C17.2317 15.001 17.3189 15.2164 17.3189 15.4411Z" fill="white"/>
<path fill-rule="evenodd" clip-rule="evenodd" d="M18.9745 10.1469C18.4805 10.1469 18.0067 10.3477 17.6573 10.7051C17.308 11.0626 17.1117 11.5474 17.1117 12.0529V12.268C17.4578 12.2647 17.8303 12.2647 18.2335 12.2647H19.7155C20.1187 12.2647 20.4921 12.2647 20.8373 12.268V12.0529C20.8373 11.5474 20.6411 11.0626 20.2917 10.7051C19.9424 10.3477 19.4686 10.1469 18.9745 10.1469ZM22.0792 12.3129V12.0529C22.0792 11.2104 21.7521 10.4024 21.1699 9.80664C20.5876 9.2109 19.7979 8.87622 18.9745 8.87622C18.1511 8.87622 17.3614 9.2109 16.7792 9.80664C16.1969 10.4024 15.8698 11.2104 15.8698 12.0529V12.3129C15.758 12.3214 15.6504 12.3307 15.5461 12.3426C14.8192 12.4231 14.2107 12.5908 13.6709 12.9694C13.4851 13.0996 13.3106 13.2458 13.1493 13.4066C12.6807 13.8742 12.4 14.4519 12.1806 15.1651C11.9678 15.8589 11.7956 16.7399 11.5787 17.8471L11.563 17.9276C11.2517 19.5227 11.0058 20.7798 10.9354 21.7811C10.8625 22.8044 10.9635 23.6642 11.4371 24.4105C11.5953 24.6595 11.7799 24.8891 11.9869 25.0966C12.6095 25.7184 13.4142 25.9878 14.4085 26.1166C15.3822 26.2419 16.6356 26.2419 18.2253 26.2419H19.7238C21.3142 26.2419 22.5669 26.2419 23.5405 26.1166C24.5348 25.9878 25.3404 25.7184 25.9622 25.0966C26.1696 24.8893 26.354 24.6592 26.5119 24.4105C26.9855 23.665 27.0865 22.8044 27.0145 21.7811C26.9433 20.7798 26.6982 19.5227 26.3853 17.9276L26.3704 17.8471C26.1543 16.7399 25.9812 15.8589 25.7685 15.1651C25.5491 14.4519 25.2684 13.8742 24.7998 13.4066C24.6385 13.2458 24.464 13.0996 24.2782 12.9694C23.7384 12.5908 23.1299 12.4231 22.403 12.3426C22.2955 12.3308 22.1878 12.3209 22.0801 12.3129M15.6794 13.6056C15.0609 13.6734 14.6793 13.803 14.3729 14.0173C14.2458 14.1066 14.1264 14.207 14.0161 14.3172C13.7503 14.5823 13.5525 14.9398 13.3654 15.5463C13.1749 16.1673 13.0143 16.9805 12.7899 18.1317C12.4671 19.7819 12.2377 20.9611 12.174 21.8725C12.1102 22.7722 12.217 23.3067 12.4786 23.7184C12.5863 23.8878 12.7129 24.0462 12.8545 24.1877C13.1981 24.5308 13.6891 24.7425 14.5642 24.8561C15.4501 24.9704 16.6257 24.9713 18.27 24.9713H19.6799C21.3242 24.9713 22.4982 24.9704 23.3849 24.8561C24.26 24.7425 24.7509 24.5308 25.0945 24.1877C25.2363 24.0459 25.3624 23.8885 25.4704 23.7184C25.732 23.3067 25.8388 22.7722 25.7759 21.8717C25.7113 20.9602 25.482 19.7819 25.1599 18.1317C24.9347 16.9805 24.7749 16.1664 24.5837 15.5463C24.3974 14.9398 24.1987 14.5823 23.933 14.3172C23.8229 14.207 23.7038 14.1067 23.5769 14.0173C23.2706 13.803 22.8881 13.6742 22.2697 13.6056C21.6379 13.5362 20.8266 13.5353 19.6791 13.5353H18.2708C17.1233 13.5353 16.3119 13.5362 15.6794 13.6056Z" fill="white"/>
</svg>
