<svg width="78" height="63" viewBox="0 0 78 63" fill="none" xmlns="http://www.w3.org/2000/svg">
<rect width="78" height="63" rx="19.7465" fill="white"/>
<g clip-path="url(#clip0_295_1206)">
<path d="M26.5752 22.1898H16V25.9932H26.5752V22.1898Z" fill="#84B740"/>
<path d="M26.5752 17H16V20.8068H26.5752V17Z" fill="#259BD6"/>
<path d="M37.1496 25.2204L37.1025 25.2306C36.9392 25.2645 36.8796 25.2781 36.7603 25.2781C36.484 25.2781 36.1574 25.1255 36.1574 24.4069C36.1574 24.0374 36.2139 23.5459 36.7289 23.5459H36.732C36.8199 23.5527 36.9204 23.5628 37.1088 23.6238L37.1496 23.6374V25.2204ZM37.2344 21.6374L37.1496 21.6543V22.9832L37.0743 22.9594L37.0523 22.9527C36.9675 22.9255 36.7728 22.8645 36.5844 22.8645C35.5545 22.8645 35.3379 23.7052 35.3379 24.4103C35.3379 25.3764 35.8403 25.9323 36.7163 25.9323C37.0868 25.9323 37.36 25.8916 37.6363 25.7933C37.8906 25.7052 37.9817 25.5798 37.9817 25.312V21.4984C37.7368 21.5459 37.4825 21.5933 37.2344 21.6374Z" fill="#27292D"/>
<path d="M40.2116 25.244L40.1676 25.2576L40.0106 25.3016C39.863 25.3423 39.7311 25.3661 39.6307 25.3661C39.3889 25.3661 39.2445 25.2372 39.2445 25.0169C39.2445 24.8745 39.3041 24.6339 39.6997 24.6339H40.2116V25.244ZM39.8505 22.8474C39.5333 22.8474 39.2068 22.9084 38.8017 23.044L38.538 23.1288L38.6259 23.7728L38.8834 23.6813C39.1534 23.5864 39.4894 23.5254 39.7406 23.5254C39.8536 23.5254 40.199 23.5254 40.199 23.9288V24.105H39.7186C38.8426 24.105 38.4375 24.4067 38.4375 25.0542C38.4375 25.6067 38.8112 25.9389 39.4391 25.9389C39.6338 25.9389 39.9038 25.8983 40.1362 25.8372L40.1488 25.8339L40.1613 25.8372L40.2398 25.8508C40.4847 25.8983 40.7391 25.9457 40.9871 25.9966V23.8813C40.9871 23.1966 40.604 22.8474 39.8505 22.8474Z" fill="#27292D"/>
<path d="M34.1119 25.244L34.068 25.2576L33.911 25.3016C33.7634 25.3423 33.6347 25.3661 33.5311 25.3661C33.2893 25.3661 33.1448 25.2372 33.1448 25.0169C33.1448 24.8745 33.2045 24.6339 33.597 24.6339H34.1088L34.1119 25.244ZM33.754 22.8474C33.4337 22.8474 33.1103 22.9084 32.7053 23.044L32.4415 23.1288L32.5294 23.7728L32.7869 23.6813C33.0569 23.5864 33.3929 23.5254 33.6441 23.5254C33.7571 23.5254 34.1025 23.5254 34.1025 23.9288V24.105H33.6221C32.7461 24.105 32.3379 24.4067 32.3379 25.0542C32.3379 25.6067 32.7115 25.9389 33.3427 25.9389C33.5373 25.9389 33.8074 25.8983 34.0397 25.8372L34.0523 25.8339L34.0648 25.8372L34.1402 25.8508C34.3883 25.8983 34.6394 25.9457 34.8875 26V23.8847C34.8906 23.1932 34.5076 22.8474 33.754 22.8474Z" fill="#27292D"/>
<path d="M30.8046 22.8542C30.4058 22.8542 30.0762 22.9966 29.9537 23.0576L29.9223 23.0746L29.894 23.0508C29.7245 22.9186 29.4764 22.8508 29.131 22.8508C28.8265 22.8508 28.5407 22.8983 28.2299 22.9966C27.963 23.0847 27.8594 23.2237 27.8594 23.4847V25.9017H28.6946V23.6678L28.7354 23.6542C28.905 23.5932 29.0054 23.583 29.1028 23.583C29.3446 23.583 29.467 23.722 29.467 23.9932V25.9051H30.2897V23.9559C30.2897 23.8407 30.2677 23.7729 30.2645 23.7593L30.2363 23.7017L30.2928 23.6746C30.4184 23.6135 30.5566 23.583 30.701 23.583C30.8674 23.583 31.0652 23.6542 31.0652 23.9932V25.9051H31.8847V23.9051C31.8847 23.1966 31.5331 22.8542 30.8046 22.8542Z" fill="#27292D"/>
<path d="M39.595 19.4815C39.4725 19.4815 39.2684 19.4679 39.1083 19.434L39.0612 19.4239V18.1188C39.0612 18.0103 39.0423 17.9425 39.0392 17.9323L39.0141 17.8781L39.0675 17.8544C39.08 17.8476 39.0926 17.8442 39.1083 17.8374L39.1177 17.8306C39.1365 17.8239 39.1554 17.8171 39.1742 17.8103C39.1836 17.8069 39.1899 17.8035 39.1962 17.8035C39.3815 17.7493 39.551 17.7561 39.6264 17.7493H39.6295C40.1413 17.7493 40.201 18.2408 40.201 18.6103C40.1978 19.3289 39.8681 19.4815 39.595 19.4815ZM39.5918 17.0001C39.5856 17.0001 39.5761 17.0001 39.5699 17.0001C39.0894 17.0001 38.5965 17.1425 38.4206 17.4205C38.3264 17.5561 38.2731 17.7255 38.2699 17.9255V19.2713C38.2699 19.3866 38.248 19.4306 38.2448 19.4408L38.2166 19.4984H36.7V18.5628H36.6968C36.678 17.5764 36.1379 17.034 35.3561 17.034H35.265H34.5931C34.5617 17.2747 34.5366 17.4442 34.5052 17.6849H35.265C35.6638 17.6849 35.8742 18.051 35.8742 18.6137V19.5561L35.8208 19.5255C35.8114 19.5222 35.7454 19.4984 35.6418 19.4984H34.3293C34.3042 19.6781 34.2728 19.912 34.2383 20.1459H38.2731C38.4112 20.1154 38.5714 20.0883 38.7095 20.0645C38.9136 20.173 39.2935 20.2306 39.5542 20.2306C40.4302 20.2306 40.9985 19.5967 40.9985 18.6205C40.9954 17.6544 40.4459 17.0205 39.5918 17.0001Z" fill="#27292D"/>
<path d="M32.519 20.5423H32.5567C33.4327 20.5423 33.8409 20.2304 33.8409 19.4609C33.8409 18.9084 33.4673 18.4677 32.8393 18.4677H32.0323C31.7905 18.4677 31.6461 18.3185 31.6461 18.0677C31.6461 17.8982 31.7058 17.688 32.1014 17.688H33.866C33.9037 17.4406 33.9226 17.2846 33.9571 17.0372H32.1234C31.2693 17.0372 30.8392 17.4236 30.8392 18.0677C30.8392 18.705 31.2128 19.0372 31.8408 19.0372H32.6477C32.8895 19.0372 33.034 19.244 33.034 19.4609C33.034 19.6033 32.9743 19.8982 32.5818 19.8982H32.4468L29.8626 19.8914H29.3917C28.9929 19.8914 28.7134 19.6473 28.7134 19.0812V18.6914C28.7134 18.1016 28.9301 17.7355 29.3917 17.7355H30.1578C30.1923 17.4846 30.2143 17.3253 30.2457 17.088H29.2912H29.2001C28.4183 17.088 27.8782 17.6541 27.8594 18.6406V18.6778V19.0812C27.8782 20.0677 28.4183 20.5389 29.2001 20.5389H29.2912H29.9631L31.3635 20.5423H32.1987H32.519Z" fill="#27292D"/>
</g>
<g clip-path="url(#clip1_295_1206)">
<path d="M48.7191 27.9737V27.1773C48.7191 26.8726 48.539 26.6731 48.2297 26.6731C48.0751 26.6731 47.907 26.7257 47.7914 26.8989C47.7013 26.7536 47.5722 26.6731 47.3786 26.6731C47.2494 26.6731 47.1203 26.7134 47.0183 26.8587V26.6994H46.748V27.9737H47.0183V27.2701C47.0183 27.0443 47.1339 26.9376 47.314 26.9376C47.4941 26.9376 47.5842 27.0567 47.5842 27.2701V27.9737H47.8544V27.2701C47.8544 27.0443 47.9835 26.9376 48.1502 26.9376C48.3303 26.9376 48.4204 27.0567 48.4204 27.2701V27.9737H48.7191ZM52.7273 26.6994H52.289V26.3144H52.0188V26.6994H51.7741V26.9515H52.0188V27.536C52.0188 27.8283 52.1344 28 52.4436 28C52.5592 28 52.6883 27.9597 52.7784 27.9072L52.7003 27.6675C52.6222 27.7201 52.5322 27.734 52.4676 27.734C52.3385 27.734 52.2875 27.6536 52.2875 27.5221V26.9515H52.7258V26.6994H52.7273ZM55.0212 26.6716C54.8665 26.6716 54.763 26.752 54.6984 26.8572V26.6979H54.4282V27.9721H54.6984V27.2546C54.6984 27.0427 54.7885 26.9221 54.9566 26.9221C55.0077 26.9221 55.0722 26.936 55.1247 26.9484L55.2028 26.6824C55.1488 26.6716 55.0722 26.6716 55.0212 26.6716ZM51.5549 26.8046C51.4258 26.7118 51.2456 26.6716 51.052 26.6716C50.7427 26.6716 50.5371 26.8309 50.5371 27.0829C50.5371 27.2948 50.6917 27.4154 50.9619 27.4541L51.091 27.468C51.2321 27.4943 51.3102 27.5345 51.3102 27.601C51.3102 27.6938 51.2066 27.7603 51.0265 27.7603C50.8463 27.7603 50.7037 27.6938 50.6136 27.6273L50.4845 27.8391C50.6256 27.9458 50.8193 27.9984 51.013 27.9984C51.3732 27.9984 51.5804 27.8252 51.5804 27.5871C51.5804 27.3613 51.4123 27.2422 51.1556 27.202L51.0265 27.1881C50.9109 27.1742 50.8208 27.1479 50.8208 27.069C50.8208 26.9762 50.9109 26.9237 51.0535 26.9237C51.2081 26.9237 51.3627 26.9902 51.4408 27.0304L51.5549 26.8046ZM58.7441 26.6716C58.5895 26.6716 58.4859 26.752 58.4214 26.8572V26.6979H58.1512V27.9721H58.4214V27.2546C58.4214 27.0427 58.5115 26.9221 58.6796 26.9221C58.7306 26.9221 58.7952 26.936 58.8477 26.9484L58.9258 26.6855C58.8732 26.6716 58.7967 26.6716 58.7441 26.6716ZM55.2914 27.3365C55.2914 27.7216 55.5496 28 55.9489 28C56.1291 28 56.2582 27.9597 56.3873 27.8546L56.2582 27.6288C56.1546 27.7092 56.0525 27.7479 55.9354 27.7479C55.7162 27.7479 55.5616 27.5886 55.5616 27.3365C55.5616 27.0969 55.7162 26.9376 55.9354 26.9252C56.051 26.9252 56.1546 26.9654 56.2582 27.0443L56.3873 26.8185C56.2582 26.7118 56.1291 26.6731 55.9489 26.6731C55.5496 26.6716 55.2914 26.9515 55.2914 27.3365ZM57.7909 27.3365V26.6994H57.5207V26.8587C57.4306 26.7396 57.3015 26.6731 57.1334 26.6731C56.7851 26.6731 56.5149 26.9515 56.5149 27.3365C56.5149 27.7216 56.7851 28 57.1334 28C57.3135 28 57.4426 27.9335 57.5207 27.8144V27.9737H57.7909V27.3365ZM56.7986 27.3365C56.7986 27.1108 56.9397 26.9252 57.1724 26.9252C57.3916 26.9252 57.5462 27.0984 57.5462 27.3365C57.5462 27.5623 57.3916 27.7479 57.1724 27.7479C56.9412 27.734 56.7986 27.5608 56.7986 27.3365ZM53.565 26.6716C53.2047 26.6716 52.9465 26.9376 52.9465 27.335C52.9465 27.734 53.2047 27.9984 53.5785 27.9984C53.7587 27.9984 53.9388 27.9458 54.0814 27.8252L53.9523 27.6257C53.8487 27.7061 53.7196 27.7587 53.592 27.7587C53.4239 27.7587 53.2573 27.6783 53.2182 27.4541H54.1325C54.1325 27.4139 54.1325 27.3876 54.1325 27.3474C54.1445 26.9376 53.9118 26.6716 53.565 26.6716ZM53.565 26.9113C53.7331 26.9113 53.8487 27.018 53.8742 27.2159H53.2302C53.2558 27.0443 53.3713 26.9113 53.565 26.9113ZM60.2784 27.3365V26.1953H60.0082V26.8587C59.9181 26.7396 59.789 26.6731 59.6208 26.6731C59.2726 26.6731 59.0023 26.9515 59.0023 27.3365C59.0023 27.7216 59.2726 28 59.6208 28C59.801 28 59.9301 27.9335 60.0082 27.8144V27.9737H60.2784V27.3365ZM59.2861 27.3365C59.2861 27.1108 59.4272 26.9252 59.6599 26.9252C59.8791 26.9252 60.0337 27.0984 60.0337 27.3365C60.0337 27.5623 59.8791 27.7479 59.6599 27.7479C59.4272 27.734 59.2861 27.5608 59.2861 27.3365ZM50.2398 27.3365V26.6994H49.9696V26.8587C49.8796 26.7396 49.7504 26.6731 49.5823 26.6731C49.234 26.6731 48.9638 26.9515 48.9638 27.3365C48.9638 27.7216 49.234 28 49.5823 28C49.7625 28 49.8916 27.9335 49.9696 27.8144V27.9737H50.2398V27.3365ZM49.2355 27.3365C49.2355 27.1108 49.3766 26.9252 49.6093 26.9252C49.8285 26.9252 49.9831 27.0984 49.9831 27.3365C49.9831 27.5623 49.8285 27.7479 49.6093 27.7479C49.3766 27.734 49.2355 27.5608 49.2355 27.3365Z" fill="black"/>
<path d="M55.5241 17.0222H51.4648V24.5345H55.5241V17.0222Z" fill="#FF5A00"/>
<path d="M51.7346 20.7784C51.7346 19.2521 52.4311 17.8974 53.5 17.0222C52.7134 16.3851 51.7211 16 50.6387 16C48.0747 16 46 18.1371 46 20.7784C46 23.4196 48.0747 25.5567 50.6387 25.5567C51.7211 25.5567 52.7134 25.1717 53.5 24.5345C52.4296 23.6717 51.7346 22.3046 51.7346 20.7784Z" fill="#EB001B"/>
<path d="M61 20.7785C61 23.4197 58.9253 25.5568 56.3613 25.5568C55.2789 25.5568 54.2866 25.1718 53.5 24.5347C54.5824 23.6579 55.2654 22.3048 55.2654 20.7785C55.2654 19.2522 54.5689 17.8975 53.5 17.0223C54.2851 16.3852 55.2774 16.0001 56.3598 16.0001C58.9253 16.0001 61 18.1512 61 20.7785Z" fill="#F79E1B"/>
</g>
<path d="M16.2578 30.5765H32.6406V39.4424L31.8297 40.7126L32.6406 41.843V47H16.2578V38.6422L16.7646 38.0579L16.2578 37.499V30.5765Z" fill="#016FD0"/>
<path d="M19.4375 42.0209V39.4424H22.1609L22.453 39.8243L22.7549 39.4424H32.64V41.8431C32.64 41.8431 32.3815 42.0183 32.0825 42.0209H26.6089L26.2795 41.6145V42.0209H25.2V41.3271C25.2 41.3271 25.0525 41.4239 24.7337 41.4239H24.3663V42.0209H22.7318L22.44 41.6309L22.1438 42.0209H19.4375Z" fill="white"/>
<path d="M16.2578 37.4993L16.8719 36.064H17.934L18.2825 36.868V36.064H19.6028L19.8103 36.6451L20.0114 36.064H25.938V36.3561C25.938 36.3561 26.2495 36.064 26.7615 36.064L28.6845 36.0707L29.027 36.8642V36.064H30.1318L30.4359 36.5198V36.064H31.5509V38.6424H30.4359L30.1445 38.1852V38.6424H28.5212L28.358 38.236H27.9216L27.761 38.6424H26.6602C26.2196 38.6424 25.938 38.3563 25.938 38.3563V38.6424H24.2781L23.9487 38.236V38.6424H17.7767L17.6135 38.236H17.1785L17.0166 38.6424H16.2578V37.4993Z" fill="white"/>
<path d="M17.09 36.3815L16.2617 38.3122H16.801L16.9538 37.9255H17.8423L17.9944 38.3122H18.5455L17.718 36.3815H17.09ZM17.3965 36.8308L17.6673 37.5064H17.1249L17.3965 36.8308Z" fill="#016FD0"/>
<path d="M18.6016 38.3122V36.3815L19.3679 36.3843L19.8136 37.6291L20.2487 36.3815H21.0089V38.3122H20.5275V36.8895L20.0171 38.3122H19.5948L19.083 36.8895V38.3122H18.6016Z" fill="#016FD0"/>
<path d="M21.3379 38.3122V36.3815H22.909V36.8133H21.8244V37.1436H22.8837V37.55H21.8244V37.893H22.909V38.3122H21.3379Z" fill="#016FD0"/>
<path d="M23.1895 36.3815V38.3122H23.6709V37.6263H23.8737L24.4509 38.3122H25.0393L24.4058 37.6009C24.6658 37.5789 24.934 37.3551 24.934 37.0078C24.934 36.6015 24.6159 36.3815 24.2609 36.3815H23.1895ZM23.6709 36.8133H24.2213C24.3533 36.8133 24.4494 36.9169 24.4494 37.0166C24.4494 37.1448 24.3249 37.2198 24.2284 37.2198H23.6709V36.8133Z" fill="#016FD0"/>
<path d="M25.6205 38.3122H25.1289V36.3815H25.6205V38.3122Z" fill="#016FD0"/>
<path d="M26.7867 38.3122H26.6806C26.1672 38.3122 25.8555 37.9066 25.8555 37.3548C25.8555 36.7892 26.1637 36.3815 26.8121 36.3815H27.3442V36.8387H26.7926C26.5294 36.8387 26.3433 37.0447 26.3433 37.3595C26.3433 37.7334 26.5561 37.8905 26.8628 37.8905H26.9895L26.7867 38.3122Z" fill="#016FD0"/>
<path d="M27.8342 36.3815L27.0059 38.3122H27.5451L27.698 37.9255H28.5865L28.7385 38.3122H29.2897L28.4622 36.3815H27.8342ZM28.1406 36.8308L28.4115 37.5064H27.869L28.1406 36.8308Z" fill="#016FD0"/>
<path d="M29.3457 38.3122V36.3815H29.9578L30.7394 37.5945V36.3815H31.2209V38.3122H30.6286L29.8272 37.0674V38.3122H29.3457Z" fill="#016FD0"/>
<path d="M19.7676 41.6906V39.7599H21.3387V40.1918H20.2541V40.5221H21.3134V40.9285H20.2541V41.2715H21.3387V41.6906H19.7676Z" fill="#016FD0"/>
<path d="M27.4648 41.6906V39.7599H29.036V40.1918H27.9514V40.5221H29.0056V40.9285H27.9514V41.2715H29.036V41.6906H27.4648Z" fill="#016FD0"/>
<path d="M21.3991 41.6906L22.164 40.7372L21.3809 39.7599H21.9875L22.4539 40.3641L22.9219 39.7599H23.5047L22.7318 40.7253L23.4982 41.6906H22.8917L22.4388 41.096L21.997 41.6906H21.3991Z" fill="#016FD0"/>
<path d="M23.5547 39.7599V41.6906H24.0488V41.0809H24.5556C24.9845 41.0809 25.3095 40.8529 25.3095 40.4093C25.3095 40.0419 25.0546 39.7599 24.6182 39.7599H23.5547ZM24.0488 40.1966H24.5826C24.7211 40.1966 24.8201 40.2817 24.8201 40.4189C24.8201 40.5477 24.7216 40.6411 24.581 40.6411H24.0488V40.1966Z" fill="#016FD0"/>
<path d="M25.5195 39.7599V41.6906H26.001V41.0047H26.2037L26.781 41.6906H27.3694L26.7359 40.9793C26.9959 40.9573 27.2641 40.7336 27.2641 40.3863C27.2641 39.98 26.946 39.7599 26.591 39.7599H25.5195ZM26.001 40.1918H26.5514C26.6834 40.1918 26.7794 40.2953 26.7794 40.395C26.7794 40.5233 26.655 40.5983 26.5585 40.5983H26.001V40.1918Z" fill="#016FD0"/>
<path d="M29.2604 41.6906V41.2715H30.2239C30.3665 41.2715 30.4282 41.1942 30.4282 41.1095C30.4282 41.0284 30.3667 40.9463 30.2239 40.9463H29.7885C29.41 40.9463 29.1992 40.7151 29.1992 40.3681C29.1992 40.0585 29.3923 39.7599 29.9547 39.7599H30.8923L30.6896 40.1944H29.8787C29.7237 40.1944 29.6759 40.2759 29.6759 40.3538C29.6759 40.4338 29.7349 40.5221 29.8533 40.5221H30.3095C30.7314 40.5221 30.9145 40.762 30.9145 41.0762C30.9145 41.414 30.7105 41.6906 30.2865 41.6906H29.2604Z" fill="#016FD0"/>
<path d="M31.0279 41.6906V41.2715H31.9915C32.1341 41.2715 32.1958 41.1942 32.1958 41.1095C32.1958 41.0284 32.1343 40.9463 31.9915 40.9463H31.5561C31.1776 40.9463 30.9668 40.7151 30.9668 40.3681C30.9668 40.0585 31.1598 39.7599 31.7223 39.7599H32.6599L32.4571 40.1944H31.6462C31.4912 40.1944 31.4435 40.2759 31.4435 40.3538C31.4435 40.4338 31.5025 40.5221 31.6209 40.5221H32.077C32.499 40.5221 32.682 40.762 32.682 41.0762C32.682 41.414 32.478 41.6906 32.0541 41.6906H31.0279Z" fill="#016FD0"/>
<g clip-path="url(#clip2_295_1206)">
<path d="M48.2663 42.8846H46.1602L47.4775 35.1404H49.5836L48.2663 42.8846Z" fill="#00579F"/>
<path d="M55.902 35.3297C55.4865 35.173 54.8276 35 54.0129 35C51.933 35 50.4683 36.0545 50.4593 37.5621C50.442 38.6744 51.508 39.2921 52.3052 39.663C53.12 40.042 53.397 40.2894 53.397 40.6272C53.3887 41.146 52.7386 41.3851 52.1322 41.3851C51.2913 41.3851 50.8408 41.2618 50.1561 40.9732L49.8787 40.8494L49.584 42.5878C50.078 42.8018 50.9881 42.9917 51.933 43C54.1429 43 55.5817 41.9618 55.5987 40.3553C55.6071 39.4737 55.0443 38.7982 53.8308 38.2462C53.0941 37.8919 52.643 37.6529 52.643 37.2904C52.6516 36.9608 53.0246 36.6232 53.8561 36.6232C54.5408 36.6067 55.0439 36.7632 55.425 36.9197L55.6155 37.002L55.902 35.3297Z" fill="#00579F"/>
<path d="M58.702 40.1411C58.8754 39.6962 59.5429 37.9743 59.5429 37.9743C59.5341 37.9909 59.716 37.5212 59.82 37.2329L59.9672 37.9002C59.9672 37.9002 60.366 39.7539 60.4526 40.1411C60.1234 40.1411 59.118 40.1411 58.702 40.1411ZM61.3018 35.1404H59.6727C59.1703 35.1404 58.7886 35.2803 58.5718 35.7829L55.4434 42.8845H57.6533C57.6533 42.8845 58.0171 41.9287 58.0954 41.7228C58.3378 41.7228 60.4876 41.7228 60.7995 41.7228C60.86 41.9947 61.0508 42.8845 61.0508 42.8845H63.0009L61.3018 35.1404Z" fill="#00579F"/>
<path d="M44.4012 35.1404L42.3385 40.4212L42.1131 39.3502C41.7318 38.1144 40.5358 36.7717 39.2012 36.1041L41.0905 42.8764H43.3177L46.6283 35.1404H44.4012Z" fill="#00579F"/>
<path d="M40.4233 35.1404H37.0347L37 35.2969C39.6434 35.9395 41.394 37.4886 42.1133 39.3505L41.3766 35.7914C41.2553 35.2967 40.8826 35.1567 40.4233 35.1404Z" fill="#FAA61A"/>
</g>
<defs>
<clipPath id="clip0_295_1206">
<rect width="25" height="9" fill="white" transform="translate(16 17)"/>
</clipPath>
<clipPath id="clip1_295_1206">
<rect width="15" height="12" fill="white" transform="translate(46 16)"/>
</clipPath>
<clipPath id="clip2_295_1206">
<rect width="26" height="8" fill="white" transform="translate(37 35)"/>
</clipPath>
</defs>
</svg>
