<svg width="21" height="21" viewBox="0 0 21 21" fill="none" xmlns="http://www.w3.org/2000/svg">
<g clip-path="url(#clip0_126_2851)">
<path d="M14.3233 18.3442C14.6774 18.1702 15.0162 17.9749 15.3429 17.7551C15.8191 17.4377 16.2617 17.0714 16.6677 16.6686C17.0706 16.2626 17.4369 15.8201 17.7575 15.3439C18.0749 14.8739 18.3436 14.3673 18.5634 13.8362C18.7801 13.3143 18.948 12.768 19.0579 12.2033C19.1678 11.6509 19.2227 11.0832 19.2227 10.5003C19.2227 9.9173 19.1647 9.34656 19.0579 8.79718C18.948 8.23254 18.7801 7.68622 18.5634 7.16431V7.1521C18.3405 6.62714 18.0719 6.12354 17.7575 5.65657C17.4369 5.18044 17.0737 4.73788 16.6677 4.33195C16.2647 3.92602 15.8191 3.56282 15.3429 3.24235C14.8697 2.92493 14.366 2.65635 13.8379 2.4366H13.8257C13.3068 2.2199 12.7634 2.05203 12.2048 1.94216C11.6523 1.83228 11.0814 1.77734 10.5014 1.77734C9.92144 1.77734 9.35061 1.83533 8.79808 1.94216C8.23335 2.05509 7.68694 2.2199 7.16494 2.4366C6.63684 2.65635 6.13316 2.92799 5.66001 3.24235C5.1838 3.55977 4.73812 3.92602 4.33518 4.3289C3.93224 4.73178 3.56898 5.17434 3.24845 5.65352C2.93098 6.12659 2.66235 6.63019 2.44257 7.16125C2.22583 7.68316 2.06099 8.22644 1.94804 8.79413C1.83815 9.34656 1.7832 9.91425 1.7832 10.4972C1.7832 11.0802 1.8412 11.6509 1.94804 12.2003C2.06099 12.7649 2.22583 13.3112 2.44257 13.8332C2.66235 14.3642 2.93403 14.8678 3.24845 15.3409C3.56898 15.817 3.93224 16.2626 4.33518 16.6655C4.74118 17.0684 5.1838 17.4346 5.66001 17.7521C6.13011 18.0695 6.63684 18.3381 7.16799 18.5578C7.68999 18.7745 8.23641 18.9393 8.79808 19.0523C9.35061 19.1621 9.91839 19.2201 10.5014 19.2201C11.0845 19.2201 11.6553 19.1621 12.2048 19.0523C12.7695 18.9393 13.3159 18.7745 13.8379 18.5578L13.8868 18.5364L14.3233 18.3381V18.3442Z" stroke="#603913" stroke-width="2" stroke-miterlimit="10"/>
<path d="M6.16793 2.92969C9.50137 4.471 9.55632 9.1865 6.9616 8.88739C4.33026 8.58218 3.561 11.2711 5.08425 11.8296C6.6075 12.3882 8.61917 14.9489 5.65814 17.7538" stroke="#603913" stroke-miterlimit="10"/>
<path d="M16.1198 3.829C16.1198 3.829 12.7986 3.6123 12.0385 6.09671C11.2784 8.58418 13.867 9.80197 15.6925 9.6982C17.521 9.59748 18.4642 10.3422 19.0595 12.2009" stroke="#603913" stroke-miterlimit="10"/>
</g>
<defs>
<clipPath id="clip0_126_2851">
<rect width="21" height="21" fill="white"/>
</clipPath>
</defs>
</svg>
